<svg id="Layer_2" data-name="Layer 2" xmlns="http://www.w3.org/2000/svg" viewBox="0 0 216.96 243.35"><defs><style>.cls-1{fill:#231f20;}</style></defs><path d="M133.27,61.64c4.2,1,6.51,1.74,9.28,3.79.68.5.7.55,1.94-.14A29.69,29.69,0,0,1,149,62.71c5.93-2.9,19.05-1.14,20-.94,6.45,1.38,12.73,3.17,18.46,6.6,5.94,3.56,11.21,7.75,14.72,13.85,1.27,2.21,2.75,4.13,5.57,4.54A14,14,0,0,1,211.05,88a42.39,42.39,0,0,1,16.43,12.86,47.33,47.33,0,0,1,10.16,26.84,71.37,71.37,0,0,1-.25,12.9,80,80,0,0,1-5.31,20.35,2.71,2.71,0,0,0,.21,2.73c5.61,9.64,7.14,19.93,4,30.66a32.53,32.53,0,0,1-13.24,17.8c-.49.34-1.46.45-1.27,1.51a35,35,0,0,1,0,10.81,23.8,23.8,0,0,1-5.41,12.18c-5.41,6.53-12.76,9.52-20.93,11-1.05.19-2.5-.46-3.45,1.33a29.39,29.39,0,0,1-14.06,13.26A43.64,43.64,0,0,1,158,265.9a22.81,22.81,0,0,1-13.27-4.6,1.75,1.75,0,0,0-2.57,0,20.76,20.76,0,0,1-11.49,4.5,44.23,44.23,0,0,1-19.54-2.74,30.48,30.48,0,0,1-15.53-13c-.7-1.17-1.07-2.53-3-2.33a12.44,12.44,0,0,1-3.62-.69,34.24,34.24,0,0,1-14.5-6.52c-8.29-6.72-10.58-15.85-9.61-26a2.2,2.2,0,0,0-1-2.47c-8.45-5.84-13.47-13.9-14.62-24.05a37.83,37.83,0,0,1,5.36-24.37,2.85,2.85,0,0,0,.15-2.92,68.78,68.78,0,0,1-5.51-22.28c-.57-8.89-.12-17.75,3.5-26.14A47.53,47.53,0,0,1,60.88,99,42.69,42.69,0,0,1,81.35,86a2.85,2.85,0,0,0,1.84-1.49A41.77,41.77,0,0,1,93,72.8,51.39,51.39,0,0,1,112.75,63C121.24,60.68,129.08,60.65,133.27,61.64Zm87.1,114.42a45.22,45.22,0,0,1-14,9.16,33.72,33.72,0,0,1-9.16,2.58c-4.35.54-8.74.91-13-.62a7.64,7.64,0,0,1-5.2-7.92,8.05,8.05,0,0,1,6.73-7.35A15,15,0,0,1,190,172,22.88,22.88,0,0,0,205,167.61c4.84-3.38,9.44-7.16,12-12.59a53.13,53.13,0,0,0,4.8-18.84c.49-7.51-.59-14.78-4.39-21.44-4.06-7.11-9.92-11.94-18.1-13.42-4.28-.78-7.46-2.76-8.87-6.94s-4.28-7.19-7.53-9.69C175.48,79,166.91,77,157.74,77.33c-3.21.11-4.07.79-5.05,3.87a32,32,0,0,0-1.21,9.71q-.12,51.22,0,102.45c0,16,0,32,0,47.93,0,5,2,7.4,6.29,8.49a15.48,15.48,0,0,0,6.89-.3,23.58,23.58,0,0,0,10.13-4.33c1.08-.84.92-1.27-.16-2.11a28.36,28.36,0,0,1-5.28-5.33A27.41,27.41,0,0,1,164,223.83c-.35-3.24-1-6.72.84-9.91a8.36,8.36,0,0,1,8.4-3.95,8.17,8.17,0,0,1,6.65,6.21c.54,2.14.23,4.29.65,6.44a11.1,11.1,0,0,0,8.2,9c3.31.73,6.18-.48,9.13-1.34a11.09,11.09,0,0,0,5.93-3.94c2.89-3.86,2.81-8.13,1.71-12.54-.86-3.4-1.58-6.77.9-9.88a14.9,14.9,0,0,1,5-3.57,18.71,18.71,0,0,0,8-7.62C222.29,187.35,222.4,181.87,220.37,176.06Zm-84.9-10.34c0-25,0-49.93-.05-74.89a31.37,31.37,0,0,0-1.24-9.71c-1-3-1.85-3.7-5.11-3.8a39.3,39.3,0,0,0-20.3,4.39c-5.49,3-10,6.91-12.37,12.92-.88,2.25-2.06,4.28-4.33,5.37-2,.93-4.18.94-6.21,1.57a26.68,26.68,0,0,0-13.19,8.72,34,34,0,0,0-7.5,20.57,47.65,47.65,0,0,0,.33,7.91A58.82,58.82,0,0,0,68,149.6c.2.62.47,1,1.3.54a39.12,39.12,0,0,1,16.67-4.45,64.12,64.12,0,0,1,19.54,2c4,1,7.23,4.78,6.73,8.31-.82,5.88-4.73,8.63-10.64,7.43-5.14-1.05-10.21-1.92-15.52-1.46-10,.89-17.59,6.57-20.23,16.7a18.34,18.34,0,0,0,3.09,16.15,21.11,21.11,0,0,0,8.29,6.4c3.06,1.5,5.48,5.1,5.09,7.7s-1,5-1.39,7.48c-.74,4.17.44,9.53,4.6,12.13a24,24,0,0,0,12.87,3.44c5.17,0,8.64,2,10,7.2a11.86,11.86,0,0,0,5.27,7.08,25.64,25.64,0,0,0,11.42,3.65c6.92.7,10.48-2.65,10.45-9.86C135.4,215.24,135.47,190.48,135.47,165.72Z" transform="translate(-49 -22.59)"/><path d="M201.6,148c-10-.13-18.63-3.55-25.08-11.18-5.38-6.37-9.07-13.71-9.46-22.28-.17-3.87,2.63-6.73,7.13-7.41,2.67-.4,6.93,1.4,8.05,4.86,1.37,4.25,2.41,8.67,5.13,12.36,3.74,5.09,8.59,7.76,15.08,7.35,2.45-.15,5-.49,7.39.68a8.73,8.73,0,0,1,4.69,7.5,8.44,8.44,0,0,1-5.81,7.32c-1.22.3-2.5.22-3.68.5A20.88,20.88,0,0,1,201.6,148Z" transform="translate(-49 -22.59)"/><path d="M119.88,217.68c0,5-1.88,7.54-5.95,8.69-5.08,1.44-9.57-2.42-10.06-7.72-.85-9.24-4.71-16.72-13.06-21.52-1.93-1.11-4-1.72-6-2.74-3.93-2-5.32-5.91-3.67-10.47,1.16-3.19,5.64-5.48,9.14-4.42a42.29,42.29,0,0,1,15.18,8.17c6.49,5.45,10.49,12.4,12.85,20.39A30.22,30.22,0,0,1,119.88,217.68Z" transform="translate(-49 -22.59)"/><path d="M119.68,99.3c5.23-.56,9.15,5.34,7.9,10-2.94,10.9-9.52,17.92-20.33,21.22A41.67,41.67,0,0,1,97.79,132c-6.38.43-11.22-4.55-8.92-11.19,1-3.05,3.59-5,8.49-5.06,4.29,0,8.16-1,11.26-4.16a13.57,13.57,0,0,0,3.25-6C113,101.59,116.67,98.94,119.68,99.3Z" transform="translate(-49 -22.59)"/><path class="cls-1" d="M230.54,68.62l19.66,6.29a7.59,7.59,0,0,1,4.1,2.64,4.13,4.13,0,0,1,.49,3.78,4.54,4.54,0,0,1-2.22,2.73,5.17,5.17,0,0,1-4.12.09l-27.72-8.87a6.27,6.27,0,0,1-3.91-3,5.26,5.26,0,0,1-.41-4.18,9.8,9.8,0,0,1,2.17-3.27A13.63,13.63,0,0,1,221.93,62q6.67-3.59,11.89-6a62.65,62.65,0,0,1,7.33-3,35.25,35.25,0,0,0,6.54-2.75,18.2,18.2,0,0,0,4.58-3.52,11.16,11.16,0,0,0,2.52-4.19,8.53,8.53,0,0,0,.23-4.68,8.35,8.35,0,0,0-2.18-4,9.37,9.37,0,0,0-4-2.43,9.25,9.25,0,0,0-9.15,1.84A20.71,20.71,0,0,0,237.47,36a13.69,13.69,0,0,1-3.24,3.24,4.15,4.15,0,0,1-3.69.31,4.49,4.49,0,0,1-2.73-2.24,4.82,4.82,0,0,1-.15-3.79,14.9,14.9,0,0,1,2.9-5.05,16.45,16.45,0,0,1,5.12-4,18.41,18.41,0,0,1,7.07-1.83,23.72,23.72,0,0,1,8.79,1.26,25.19,25.19,0,0,1,9.25,5,15.63,15.63,0,0,1,3.58,4.79,16.45,16.45,0,0,1,.82,12,16.9,16.9,0,0,1-5,7.75,28.07,28.07,0,0,1-6.64,4.48q-3.1,1.4-10.26,4.21a64.15,64.15,0,0,0-10.08,4.7A23.21,23.21,0,0,0,230.54,68.62Z" transform="translate(-49 -22.59)"/></svg>