<svg xmlns="http://www.w3.org/2000/svg" viewBox="0 0 300 300"><defs><style>.cls-1{fill:#fff;opacity:0;}.cls-2{fill:#3f6449;}.cls-3{fill:#87a975;}.cls-4{fill:#527a91;}.cls-5{fill:#3f5c6f;}.cls-6{fill:#cc6429;}.cls-7{fill:#fdd7bd;}.cls-8{fill:#fbb788;}.cls-9{fill:#d0975b;}.cls-10{fill:#f8b35d;}.cls-11{fill:#fdf099;}.cls-12{fill:#e6efc3;}.cls-13{fill:#d3e281;}.cls-14{fill:#d3d351;}.cls-15{fill:#f1e87c;}.cls-16{fill:#ffe300;}.cls-17{fill:#71a54c;}.cls-18{fill:#2e8f62;}.cls-19{fill:#9dc09e;}.cls-20{fill:#86b5b8;}.cls-21{fill:#d0eadc;}.cls-22{fill:#457d76;}.cls-23{fill:#4e6365;}.cls-24{fill:#014459;}.cls-25{fill:#98ba65;}.cls-26{fill:#0a4c64;}.cls-27{fill:#1b5570;}.cls-28{fill:#facc35;}.cls-29{fill:#d6c75d;}.cls-30{fill:#f4a943;}.cls-31{fill:#f8be54;}.cls-32{fill:#fece8b;}.cls-33{fill:#f2bd2f;}.cls-34{fill:#facd57;}</style></defs><g id="Layer_2" data-name="Layer 2"><g id="Layer_2-2" data-name="Layer 2"><rect class="cls-1" width="300" height="300"/></g><g id="Layer_1-2" data-name="Layer 1"><g id="Layer_2-3" data-name="Layer 2"><g id="Layer_4" data-name="Layer 4"><polygon class="cls-2" points="58.09 233.29 52.11 214.87 78.05 208.09 58.09 233.29"/><polygon class="cls-3" points="50.36 209.47 95.54 185.57 78.05 208.09 52.13 214.95 50.36 209.47"/><polygon class="cls-4" points="171.25 183.13 129.8 194.2 145.2 227.59 171.25 183.13"/><polygon class="cls-5" points="171.25 183.13 145.2 227.59 165.69 272.05 171.25 183.13"/><polygon class="cls-6" points="256.89 187.18 229.31 272.05 165.69 272.05 171.25 183.13 220.62 169.86 256.89 187.18"/><polygon class="cls-7" points="173.48 147.5 171.25 183.13 188.08 154.43 173.48 147.5"/><polygon class="cls-8" points="188.08 154.43 171.25 183.13 220.62 169.86 188.08 154.43"/><polygon class="cls-9" points="256.89 187.18 220.62 169.86 266.47 157.69 256.89 187.18"/><polygon class="cls-10" points="274.78 132.1 235.88 111.38 173.69 144.25 173.48 147.5 220.62 169.86 266.47 157.69 274.78 132.1"/><polygon class="cls-11" points="170.36 146.01 173.69 144.25 173.48 147.5 170.36 146.01"/><polygon class="cls-12" points="119.89 172.7 114.63 161.26 138.49 130.85 170.36 146.01 119.89 172.7"/><polygon class="cls-13" points="89.95 107.74 138.49 130.85 114.63 161.26 89.95 107.74"/><polygon class="cls-14" points="120.08 49.69 77.46 80.66 89.95 107.74 138.49 130.85 177.11 80.66 120.08 49.69"/><polygon class="cls-15" points="170.36 146.01 138.49 130.85 177.11 80.66 173.69 144.25 170.36 146.01"/><polygon class="cls-16" points="120.08 49.69 150 27.95 193.57 59.6 177.11 80.66 120.08 49.69"/><polygon class="cls-17" points="114.63 161.26 89.95 107.74 59.87 93.44 59.87 93.44 95.54 185.57 95.54 185.57 114.63 161.26"/><polygon class="cls-18" points="21.67 121.19 50.36 209.47 95.54 185.57 59.87 93.44 21.67 121.19"/><polygon class="cls-19" points="119.89 172.7 114.63 161.26 95.54 185.57 119.89 172.7"/><polygon class="cls-20" points="95.54 185.57 78.05 208.09 101.8 201.72 95.54 185.57"/><polygon class="cls-21" points="129.8 194.2 119.89 172.7 95.54 185.57 95.54 185.57 101.8 201.72 129.8 194.2"/><polygon class="cls-22" points="129.8 194.2 101.8 201.72 125.1 261.88 145.2 227.59 129.8 194.2"/><polygon class="cls-23" points="145.2 227.59 125.1 261.88 129.03 272.05 165.69 272.05 145.2 227.59"/><polygon class="cls-24" points="78.05 208.09 58.09 233.29 70.69 272.05 129.03 272.05 101.8 201.72 78.05 208.09"/><polygon class="cls-25" points="77.46 80.66 59.87 93.44 89.95 107.74 77.46 80.66"/><polygon class="cls-26" points="101.8 201.72 78.05 208.09 58.09 233.29 70.69 272.05 119.14 272.05 125.1 261.88 101.8 201.72"/><polygon class="cls-27" points="125.1 261.88 119.14 272.05 129.03 272.05 125.1 261.88"/><polygon class="cls-28" points="193.57 59.6 177.11 80.66 218.54 102.48 228.69 85.13 193.57 59.6"/><polygon class="cls-29" points="177.11 80.66 173.69 144.25 203.18 128.66 218.61 102.35 177.11 80.66"/><polygon class="cls-30" points="218.61 102.35 203.18 128.66 235.88 111.38 218.61 102.35"/><polygon class="cls-31" points="173.69 144.25 173.48 147.5 188.08 154.43 203.18 128.66 173.69 144.25"/><polygon class="cls-32" points="203.18 128.66 188.08 154.43 220.62 169.86 266.47 157.69 274.78 132.1 235.88 111.38 203.18 128.66"/><polygon class="cls-33" points="228.69 85.13 218.54 102.48 235.65 111.49 252.64 102.52 228.69 85.13"/><polygon class="cls-34" points="278.33 121.19 252.64 102.52 235.65 111.49 274.78 132.1 278.33 121.19"/></g></g></g></g></svg>