<svg xmlns="http://www.w3.org/2000/svg" viewBox="0 0 385.86 457.8"><defs><style>.cls-1{fill:#f8f2f1;}.cls-2{fill:#efe2dd;}.cls-3{fill:#ee6261;}.cls-4{fill:#e84444;}.cls-5{fill:#010101;}.cls-6{fill:#ecf0f3;}.cls-7{fill:#e66454;}.cls-8{fill:#d5d6dc;}.cls-9{fill:#4fbf9f;}.cls-10{fill:#28a2db;}.cls-11{fill:#dc8743;}</style></defs><g id="Layer_2" data-name="Layer 2"><g id="Layer_3" data-name="Layer 3"><path class="cls-1" d="M299.16,3.79H9.32A5.54,5.54,0,0,0,3.79,9.32V444.86a5.53,5.53,0,0,0,8.56,4.62l18.51-12.12a5.53,5.53,0,0,1,6,0L61,453.1a5.53,5.53,0,0,0,6.05,0l24-15.74a5.53,5.53,0,0,1,6,0l24,15.74a5.53,5.53,0,0,0,6,0l24-15.74a5.53,5.53,0,0,1,6.05,0l24,15.74a5.53,5.53,0,0,0,6.05,0l24-15.74a5.55,5.55,0,0,1,6.06,0l24,15.74a5.53,5.53,0,0,0,6,0l24-15.74a5.53,5.53,0,0,1,6.05,0l18.51,12.12a5.53,5.53,0,0,0,8.56-4.62V9.32a5.54,5.54,0,0,0-5.53-5.53Z"/><path class="cls-2" d="M304.69,9.32V444.86a5.53,5.53,0,0,1-8.55,4.62l-9.57-6.27V9.32A5.53,5.53,0,0,0,281,3.79h18.12A5.54,5.54,0,0,1,304.69,9.32Z"/><path class="cls-3" d="M198.18,92.76H177.84a7.26,7.26,0,0,1-7.25-7.25V65.16a7.25,7.25,0,0,0-7.25-7.25h-18.2a7.26,7.26,0,0,0-7.25,7.25V85.51a7.26,7.26,0,0,1-7.25,7.25H110.3a7.24,7.24,0,0,0-7.25,7.25v18.2a7.25,7.25,0,0,0,7.25,7.25h20.34a7.25,7.25,0,0,1,7.25,7.25v20.34a7.25,7.25,0,0,0,7.25,7.25h18.2a7.25,7.25,0,0,0,7.25-7.25V132.71a7.25,7.25,0,0,1,7.25-7.25h20.34a7.26,7.26,0,0,0,7.26-7.25V100A7.25,7.25,0,0,0,198.18,92.76Z"/><path class="cls-4" d="M159.6,125.46h18.24a7.26,7.26,0,0,0-7.25,7.25v20.34a7.26,7.26,0,0,1-7.25,7.26H145.13a7.26,7.26,0,0,0,7.22-7.26V132.71a7.26,7.26,0,0,1,7.25-7.25Z"/><path class="cls-4" d="M177.84,92.76H159.6a7.26,7.26,0,0,1-7.25-7.26V65.17a7.26,7.26,0,0,0-7.22-7.26h18.21a7.25,7.25,0,0,1,7.25,7.26V85.5a7.26,7.26,0,0,0,7.25,7.26Z"/><path class="cls-4" d="M205.43,100v18.2a7.25,7.25,0,0,1-7.24,7.25H179.94a7.26,7.26,0,0,0,7.26-7.25V100a7.25,7.25,0,0,0-7.26-7.25h18.25A7.24,7.24,0,0,1,205.43,100Z"/><path class="cls-5" d="M3.79,316.07A3.8,3.8,0,0,1,0,312.27V9.32A9.33,9.33,0,0,1,9.32,0h220.1a3.8,3.8,0,1,1,0,7.59H7.59V312.27A3.8,3.8,0,0,1,3.79,316.07Z"/><path class="cls-5" d="M184.34,457.8a9.27,9.27,0,0,1-5.1-1.53l-25-16.35-25,16.35a9.28,9.28,0,0,1-10.21,0l-25-16.35-25,16.35a9.28,9.28,0,0,1-10.21,0l-25-16.36L14.42,452.66A9.32,9.32,0,0,1,0,444.86V344.06a3.8,3.8,0,1,1,7.59,0v104l21.2-13.87a9.32,9.32,0,0,1,10.2,0l25,16.36,25-16.36a9.33,9.33,0,0,1,10.21,0l25,16.36,25-16.36a9.33,9.33,0,0,1,10.21,0l25,16.36,25-16.36a9.33,9.33,0,0,1,10.21,0l25,16.35,25-16.35a9.33,9.33,0,0,1,10.21,0l21.19,13.87V7.59H261.3a3.8,3.8,0,1,1,0-7.59h37.86a9.33,9.33,0,0,1,9.32,9.32V444.86a9.3,9.3,0,0,1-4.89,8.2,9.4,9.4,0,0,1-4.43,1.12h0a9.38,9.38,0,0,1-5.11-1.52L274.6,439.92l-25,16.35a9.28,9.28,0,0,1-10.21,0l-25-16.35-25,16.35A9.28,9.28,0,0,1,184.34,457.8Z"/><path class="cls-5" d="M145.14,164.1a11.07,11.07,0,0,1-11-11V132.71a3.46,3.46,0,0,0-3.45-3.46H110.3a11.06,11.06,0,0,1-11-11V100A11.07,11.07,0,0,1,110.3,89h20.34a3.46,3.46,0,0,0,3.45-3.45V65.16a11.06,11.06,0,0,1,11-11h18.2a11.06,11.06,0,0,1,11,11V85.51A3.46,3.46,0,0,0,177.84,89h20.34a11.07,11.07,0,0,1,11,11.05v18.2a11.06,11.06,0,0,1-11,11H177.84a3.46,3.46,0,0,0-3.45,3.46v20.34a11.07,11.07,0,0,1-11,11ZM110.3,96.55a3.46,3.46,0,0,0-3.46,3.46v18.2a3.47,3.47,0,0,0,3.46,3.46h20.34a11,11,0,0,1,11,11v20.34a3.46,3.46,0,0,0,3.46,3.46h18.2a3.46,3.46,0,0,0,3.46-3.46V132.71a11,11,0,0,1,11-11h20.35a3.47,3.47,0,0,0,3.45-3.46V100a3.46,3.46,0,0,0-3.45-3.46H177.84a11,11,0,0,1-11-11V65.16a3.46,3.46,0,0,0-3.46-3.45h-18.2a3.46,3.46,0,0,0-3.46,3.45V85.51a11,11,0,0,1-11,11Z"/><path class="cls-5" d="M161,403.68a3.87,3.87,0,0,1-3.5-5.27c10.26-24.3,21.54-48.52,33.54-72a3.77,3.77,0,0,1,3.38-2.07,3.84,3.84,0,0,1,1.6.35,4,4,0,0,1,1.68,5.36c-7.93,15.51-15.6,31.48-22.81,47.47l-4.43,8.89a1,1,0,0,0,1.56,1.21l7.53-6.57A264,264,0,0,0,206,355.54a3.8,3.8,0,0,1,5.65,5.07A61.35,61.35,0,0,0,205,373.26a41.58,41.58,0,0,0-3.15,10.89l.13,2a2.06,2.06,0,0,0,3.16,1.62l1.68-1A53.59,53.59,0,0,0,221,368.84a4,4,0,0,1,2.34-2.12,3.78,3.78,0,0,1,2.59.11,3.94,3.94,0,0,1,2.15,4.74c-.92,3.2-2,7.12-.87,10.06,1.07,2.78,4.5,4.79,8.16,4.79.21,0,.42,0,.63,0,3.59-.24,7.52-2.24,11.08-5.65a4,4,0,0,1,2.32-1.17,3.8,3.8,0,0,1,4.16,4.52,4,4,0,0,1-1.16,2.06c-4.93,4.74-10.42,7.45-15.89,7.81-.4,0-.81,0-1.2,0a16.62,16.62,0,0,1-13.41-6.43l-2.13-2.88-2.46,2.6a61.75,61.75,0,0,1-5.76,5.35c-2,1.62-4.26,3.15-7.2,3.32l-.78,0c-3.86,0-6.81-1.73-8.31-4.87a13.07,13.07,0,0,1-1.06-6l.17-6.85-5.15,4.52A272.8,272.8,0,0,1,163.15,403,3.83,3.83,0,0,1,161,403.68Z"/><path class="cls-5" d="M57,214a3.8,3.8,0,0,1,0-7.59H169.43a3.8,3.8,0,1,1,0,7.59Z"/><path class="cls-5" d="M227.17,214a3.8,3.8,0,0,1,0-7.59h24.32a3.8,3.8,0,0,1,0,7.59Z"/><path class="cls-5" d="M57,253.6A3.8,3.8,0,0,1,57,246h65.83a3.8,3.8,0,0,1,0,7.59Z"/><path class="cls-5" d="M227.17,253.6a3.8,3.8,0,0,1,0-7.59h24.32a3.8,3.8,0,0,1,0,7.59Z"/><path class="cls-5" d="M57,293.19a3.8,3.8,0,0,1,0-7.59H169.43a3.8,3.8,0,1,1,0,7.59Z"/><path class="cls-5" d="M227.17,293.19a3.8,3.8,0,0,1,0-7.59h24.32a3.8,3.8,0,0,1,0,7.59Z"/></g><g id="Layer_1-2" data-name="Layer 1"><path class="cls-5" d="M236.63,295a82.3,82.3,0,1,1,58.28-24.11A81.87,81.87,0,0,1,236.63,295Z"/><circle class="cls-6" cx="236.63" cy="212.59" r="71.28"/><polygon class="cls-5" points="289.69 274.69 298.67 265.57 320.28 287.18 311.23 296.24 289.69 274.69"/><path class="cls-7" d="M311.31,314.77l38.26,43.46a10.53,10.53,0,0,0,15.37.5l17.83-17.83a10.53,10.53,0,0,0-.51-15.37l-43.45-38.26Z"/><path class="cls-8" d="M332.61,281.81a5.27,5.27,0,0,0-7.2.24l-19.32,19.33a5.25,5.25,0,0,0-.24,7.19l5.46,6.2,27.5-27.5Z"/><path class="cls-9" d="M242,209.46l43.28-19.91a47.82,47.82,0,0,0-23.37-23.37L242,209.46Z"/><path class="cls-10" d="M235.7,206.33l19.9-43.27a47.22,47.22,0,0,0-39.81,0l19.91,43.27Z"/><path class="cls-11" d="M279,198.94,235.7,218.85h0l-19.91-43.28A47.72,47.72,0,1,0,279,198.94Z"/></g></g></svg>