<svg id="Layer_1" data-name="Layer 1" xmlns="http://www.w3.org/2000/svg" viewBox="0 0 284.6 51.02"><defs><style>.cls-1{fill:#243e90;}</style></defs><g id="Layer_2" data-name="Layer 2"><polygon class="cls-1" points="115.65 0.36 128.65 0.36 139.01 26.33 149.88 0.36 162.88 0.36 170.73 48.92 157.54 48.92 153.8 20.99 153.62 20.99 141.48 48.92 136.14 48.92 124.59 20.99 124.41 20.99 120.3 48.92 107.11 48.92 115.65 0.36"/><polygon class="cls-1" points="214.04 48.92 228.1 48.92 208.84 0.36 194.42 0.36 175.02 48.92 189.08 48.92 201.54 15.29 201.72 15.29 214.04 48.92"/><polygon class="cls-1" points="32.08 0.36 32.08 18.85 13.19 18.85 13.19 0.36 0 0.36 0 48.92 13.19 48.92 13.19 28.98 32.08 28.98 32.08 48.92 45.46 48.92 45.46 0.36 32.08 0.36"/><path class="cls-1" d="M107.28,157.82c.18-.92,0-32.77,0-32.77h-13V153c0,6.2-.55,11.73-8.9,11.73-8.53,0-9.08-5.53-9.08-11.73V125.05H63.1v33.09h0a16.47,16.47,0,0,0,5.34,12.27c4.29,3.93,11,5.34,16.93,5.34s12.46-1.41,16.75-5.34c4.11-3.74,5-7.67,5.16-12.27h0Z" transform="translate(-7.28 -124.73)"/><path class="cls-1" d="M291.88,124.73H274.77l-9.81,13v-.18l-.55.55-9.63-13.33h-16l17.48,22.78h0l.37.36c-.19.37-.55.73-.73,1.05a303.63,303.63,0,0,0-17.62,26.11h0l-.18.18c0,.18.18.36.54.36a.67.67,0,0,1,.37-.18h0c6.43-7.3,13.37-15.1,20.31-24l.55.73c-6.07,8.17-11.23,16.2-15.34,23h0v.19c0,.18,0,.36.37.36a.63.63,0,0,0,.36-.18h0c5.34-6.21,11.23-12.83,17.12-19.95l.54.73c-4.61,6.58-8.71,13-12.09,18.53h0V175a.39.39,0,0,0,.36.36.63.63,0,0,0,.37-.18h0c4.47-5,8.9-10.13,13.55-15.66l10,14.43h16.38l-18.53-24.37Z" transform="translate(-7.28 -124.73)"/></g></svg>