<svg id="Layer_2" data-name="Layer 2" xmlns="http://www.w3.org/2000/svg" viewBox="0 0 288.89 237.46"><defs><style>.cls-1{fill:#31a9b9;}</style></defs><circle class="cls-1" cx="3.09" cy="84.36" r="3.09"/><circle class="cls-1" cx="285.55" cy="55.72" r="3.34"/><circle class="cls-1" cx="24.1" cy="64.23" r="6.58"/><circle class="cls-1" cx="264.66" cy="75.78" r="6.74"/><circle class="cls-1" cx="237.08" cy="98.51" r="9.65"/><circle class="cls-1" cx="200.81" cy="116.66" r="12.54"/><circle class="cls-1" cx="154.7" cy="125.13" r="14.85"/><circle class="cls-1" cx="100.92" cy="116.66" r="17.28"/><circle class="cls-1" cx="56.34" cy="92.29" r="15.64"/><circle class="cls-1" cx="51.93" cy="41.6" r="9.65"/><circle class="cls-1" cx="88.14" cy="23.33" r="12.54"/><circle class="cls-1" cx="134.15" cy="14.85" r="14.85"/><circle class="cls-1" cx="187.96" cy="23.74" r="17.28"/><circle class="cls-1" cx="232.57" cy="47.57" r="15.64"/><path class="cls-1" d="M49.69,235.75H34.37c0,2.61,1.57,8.61,8.61,8.61,5.26,0,5.75-1.42,7.19-2.37a3.24,3.24,0,0,1,3.72.38c3.91,4.6-3.88,8.22-10,8.22-4.91,0-9.63-1-12.36-4.31s-4.31-7.1-4.31-12.79A26.4,26.4,0,0,1,27.9,226a17.14,17.14,0,0,1,2.94-5.89,12.91,12.91,0,0,1,4.77-3.77,14.83,14.83,0,0,1,6.28-1.31,13.15,13.15,0,0,1,7.7,2.24,13.89,13.89,0,0,1,4.81,5.79,17.56,17.56,0,0,1,1.6,7.23c0,2.28-.55,3.75-1.66,4.43A9,9,0,0,1,49.69,235.75Zm-15-6.34H48.59c-.18-3.1-1.39-8.06-7-8.06S35,226.36,34.71,229.41Z" transform="translate(-4.79 -28.7)"/><path class="cls-1" d="M67,254.57c1.18-2.1,2.6-5.45,2.71-7.29L59.31,223a12,12,0,0,1-.87-3.52,4.75,4.75,0,0,1,.5-2.15,4.06,4.06,0,0,1,1.39-1.59,3.23,3.23,0,0,1,1.84-.6,2.8,2.8,0,0,1,2.49,1.24,12.45,12.45,0,0,1,1.49,3.57L73,238.32l5.76-16.83c.49-1.68.93-3,1.32-4a4.56,4.56,0,0,1,1.25-1.92,3,3,0,0,1,1.86-.5,2.87,2.87,0,0,1,1.67.55,3.48,3.48,0,0,1,1.23,1.47,4.6,4.6,0,0,1,.44,2c-.07.42-.2,1-.36,1.79s-.38,1.56-.62,2.36L75.34,252.63c-.86,2.72-3.65,8.41-7.21,11.19-5.2,4.07-9.88,2.32-9.88-1.29C58.25,258,63.92,260,67,254.57Z" transform="translate(-4.79 -28.7)"/><path class="cls-1" d="M113,235.75H97.65c0,2.61,1.57,8.61,8.61,8.61,5.26,0,5.76-1.42,7.2-2.37a3.24,3.24,0,0,1,3.72.38c3.91,4.6-3.88,8.22-10,8.22-4.92,0-9.64-1-12.37-4.31s-4.3-7.1-4.3-12.79a26.78,26.78,0,0,1,.7-7.47,17.34,17.34,0,0,1,2.95-5.89,13,13,0,0,1,4.76-3.77,14.88,14.88,0,0,1,6.29-1.31,13.17,13.17,0,0,1,7.7,2.24,13.8,13.8,0,0,1,4.8,5.79,17.41,17.41,0,0,1,1.6,7.23c0,2.28-.55,3.75-1.65,4.43A9,9,0,0,1,113,235.75Zm-15-6.34h13.88c-.19-3.1-1.39-8.06-7-8.06S98.26,226.36,98,229.41Z" transform="translate(-4.79 -28.7)"/><path class="cls-1" d="M258.92,250.51c-5.44,0-9.26-1.31-11.37-3.9-2.81-3.43-3.66-7.16-3.66-12.15,0-2.76-.17-5.31.43-7.38a14.12,14.12,0,0,1,2.59-5.07,11.75,11.75,0,0,1,4.32-3.44,13.53,13.53,0,0,1,5.76-1.2,11.93,11.93,0,0,1,7,2,12.81,12.81,0,0,1,4.38,5.32,9.52,9.52,0,0,1,1.07,5.14,5.51,5.51,0,0,1-1,3.7,6.24,6.24,0,0,1-4.28,1.53h-16v2.09a9.28,9.28,0,0,0,9.56,9.43c4.52,0,6.14-1.35,7.27-2.29a6.79,6.79,0,0,1,.66-.51,2.08,2.08,0,0,1,1.06-.25A1.73,1.73,0,0,1,268,244c1.17,1.39.76,2.3.62,2.6C267.68,248.69,263.14,250.51,258.92,250.51ZM256.74,221a8.83,8.83,0,0,0-8.8,9.07v.68a1.12,1.12,0,0,0,1.13,1.13h14.78c.94,0,1.74-.49,1.74-1.43C265.59,230.45,266.22,221,256.74,221Z" transform="translate(-4.79 -28.7)"/><path class="cls-1" d="M143,250.28c-13.69,0-14.24-11.61-14.25-11.73V213.18c0-.13.17-12.89,14.25-12.89,4.6,0,8.13,1.3,10.52,3.86a12,12,0,0,1,3,8.38,2,2,0,0,1-4-.27,8,8,0,0,0-2-5.45c-1.6-1.7-4.16-2.57-7.59-2.57-9.92,0-10.28,8-10.29,8.95v25.29c0,.73.65,7.85,10.29,7.85,3.37,0,5.89-.86,7.51-2.54a8,8,0,0,0,2.06-5.23v-10.7H143a2,2,0,1,1,0-4h10.89a2.63,2.63,0,0,1,2.63,2.63v11.95a11.91,11.91,0,0,1-3.16,8.05C151,249,147.48,250.28,143,250.28Z" transform="translate(-4.79 -28.7)"/><path class="cls-1" d="M177.76,250.28c-4.07,0-7.29-1.2-9.57-3.57a13,13,0,0,1-3.32-8.8V220a2,2,0,1,1,3.95,0v18a9.16,9.16,0,0,0,2.24,6c1.51,1.54,3.76,2.33,6.7,2.33s5.15-.78,6.59-2.3a8.73,8.73,0,0,0,2-5.86V220.08a2,2,0,1,1,4,0V238a12.66,12.66,0,0,1-3,8.7C185.05,249.07,181.86,250.28,177.76,250.28Z" transform="translate(-4.79 -28.7)"/><path class="cls-1" d="M201.08,250.28a2,2,0,0,1-2-2V220a2,2,0,0,1,4,0v28.28A2,2,0,0,1,201.08,250.28Z" transform="translate(-4.79 -28.7)"/><circle class="cls-1" cx="196.29" cy="176.54" r="2.68"/><path class="cls-1" d="M234.32,198.11a2,2,0,0,0-2,2v21.74a11.24,11.24,0,0,0-9.23-4.47c-9.51,0-12.07,9.33-12.1,14.26V237a16.89,16.89,0,0,0,1.52,6.5c1.46,3.09,4.58,6.78,11.13,6.78a11.49,11.49,0,0,0,8.64-3.34l0-.05v1.42a2,2,0,0,0,4,0V200.08A2,2,0,0,0,234.32,198.11Zm-4.88,46.1a7.62,7.62,0,0,1-5.78,2.12c-8.39,0-8.69-8.38-8.7-9.33v-5.37c0-.49.23-10.32,8.15-10.32s8.77,9.5,8.84,10.38v5.38S232,241.53,229.44,244.21Z" transform="translate(-4.79 -28.7)"/></svg>