<svg xmlns="http://www.w3.org/2000/svg" xmlns:xlink="http://www.w3.org/1999/xlink" viewBox="0 0 300 300"><defs><style>.cls-1{fill:none;}.cls-2{fill:#fff;opacity:0;}.cls-3{clip-path:url(#clip-path);}.cls-4{fill:url(#linear-gradient);}</style><clipPath id="clip-path"><rect class="cls-1" x="22.3" y="22.3" width="255.39" height="255.39" rx="38.31"/></clipPath><linearGradient id="linear-gradient" x1="22.3" y1="22.3" x2="277.7" y2="277.7" gradientUnits="userSpaceOnUse"><stop offset="0" stop-color="#02ae4d"/><stop offset="0.11" stop-color="#0cae55"/><stop offset="0.28" stop-color="#00ae6e"/><stop offset="0.5" stop-color="#02af96"/><stop offset="0.75" stop-color="#02b0cd"/><stop offset="0.8" stop-color="#01b0da"/><stop offset="1" stop-color="#2b8fce"/></linearGradient></defs><g id="Layer_2" data-name="Layer 2"><g id="Layer_2-2" data-name="Layer 2"><rect class="cls-2" width="300" height="300"/></g><g id="Layer_1-2" data-name="Layer 1"><g class="cls-3"><g id="Layer_2-3" data-name="Layer 2"><g id="Layer_3" data-name="Layer 3"><path class="cls-4" d="M277.7,277.7H22.3V22.3H277.7ZM85.56,91.86a19.92,19.92,0,1,0,19.92,19.92h0A19.84,19.84,0,0,0,85.56,91.86Zm64.78,0a19.92,19.92,0,1,0,19.92,19.92h0a19.88,19.88,0,0,0-19.92-19.92Zm64.87,0a19.92,19.92,0,1,0,19.92,19.92h0A19.83,19.83,0,0,0,215.21,91.86ZM69.55,160.47V192H199v16.6h31.5v-48.1Z"/></g></g></g></g></g></svg>