<svg xmlns="http://www.w3.org/2000/svg" viewBox="0 0 300 300"><defs><style>.cls-1{fill:#fff;opacity:0;}.cls-2{fill:#d9df74;}.cls-3{fill:#4e489d;}</style></defs><g id="Layer_2" data-name="Layer 2"><g id="Layer_2-2" data-name="Layer 2"><rect class="cls-1" width="300" height="300"/></g><g id="Layer_1-2" data-name="Layer 1"><path class="cls-2" d="M47.17,135.08h5.31v22.57c0,4.82,3.1,7.43,7.13,7.43s7.13-2.61,7.13-7.43V135.08h5.31v23.16c0,7.28-5.51,12.15-12.44,12.15s-12.44-4.87-12.44-12.15Z"/><path class="cls-2" d="M82.71,135.08H95.39a11.5,11.5,0,0,1,7.87,2.47,10.42,10.42,0,0,1,3.8,8.35,10.58,10.58,0,0,1-11,10.54H88v13.67H82.69ZM88,151.41h7.86a5.54,5.54,0,0,0,5.85-5.65,5.15,5.15,0,0,0-2.26-4.67,6.15,6.15,0,0,0-3.79-1H88Z"/><path class="cls-2" d="M156.4,135.08h5.3v30h17.07v5H156.4Z"/><path class="cls-2" d="M188.23,135.08h5.3v35h-5.3Z"/><path class="cls-2" d="M204.84,135.08h22.35v5h-17v10.32H224.7v4.72H210.15v15h-5.31Z"/><path class="cls-2" d="M242.26,139.81h-9.61v-4.73h24.49v4.73h-9.57v30.28h-5.31Z"/><path class="cls-2" d="M175.52,98.14c-29.18,0-52.84,22.9-52.84,51.15h0c0,19-15.89,34.35-35.49,34.35H24.3v16.8H87.19c29.18,0,52.84-22.9,52.84-51.15h0c0-19,15.89-34.35,35.49-34.35h98V98.14Z"/><path class="cls-3" d="M42.67,186.83a19.31,19.31,0,1,0-12.45,24.3h0a19.3,19.3,0,0,0,12.45-24.29Z"/><path class="cls-3" d="M294.07,101.32a19.31,19.31,0,1,0-12.45,24.3,19.3,19.3,0,0,0,12.45-24.3Z"/></g></g></svg>