<?xml version="1.0" encoding="utf-8"?>
<!-- Generator: Adobe Illustrator 24.2.0, SVG Export Plug-In . SVG Version: 6.00 Build 0)  -->
<svg version="1.1" id="Layer_1" xmlns="http://www.w3.org/2000/svg" xmlns:xlink="http://www.w3.org/1999/xlink" x="0px" y="0px"
	 viewBox="0 0 47.2 47.2" style="enable-background:new 0 0 47.2 47.2;" xml:space="preserve">
<style type="text/css">
	.st0{fill:#FFFFFF;}
</style>
<path class="st0" d="M47.2,23.6C47.2,10.6,36.7,0,23.6,0S0,10.5,0,23.6C0,36.5,10.3,47,23.2,47.2V34.8c0-0.6-0.2-1.1-0.6-1.5
	l-4.2-4.1c-0.6-0.6-0.6-1.5,0-2.1c0,0,0,0,0,0c0.6-0.5,1.5-0.5,2.1,0.1l3.8,3.9c0.3,0.3,0.9,0.3,1.2,0c0,0,0,0,0,0l0.6-0.7l7.2-6.8
	c3.5-3.5,4.9-6.9,2-9.9c-2.9-3-5.9-1.4-9.3,2L17.7,24l-1.2,1.1c-0.5,0.5-1.3,0.5-1.8,0l-6.4-6.5C7,17.4,7,15.4,8.2,14.1l2-2.2
	c4.6-4.6,9.5-5.4,13.4-1.4c0.3,0.3,0.5,0.6,0.8,0.9c0.4,0.6,0.3,1.3-0.2,1.8l-0.3,0.3c-0.5,0.5-1.3,0.4-1.8-0.1c0,0,0,0,0-0.1
	c-0.1-0.2-0.3-0.3-0.5-0.5c-2.6-2.6-5.9-2.6-9.7,1.2L11,14.9c-0.7,0.7-0.7,1.8,0,2.5l4.1,4.1c0.5,0.5,1.3,0.5,1.8,0c0,0,0,0,0,0
	l7.4-7.6c5.1-5.1,9.3-6.2,13.4-2.1c3.8,3.9,2.8,8.4-2.2,13.5l-8.7,8.4c-0.5,0.5-0.8,1.2-0.8,2v11.6C38,46,47.2,35.8,47.2,23.6z"/>
</svg>
