<?xml version="1.0" encoding="utf-8"?>
<!-- Generator: Adobe Illustrator 24.2.1, SVG Export Plug-In . SVG Version: 6.00 Build 0)  -->
<svg version="1.1" xmlns="http://www.w3.org/2000/svg" xmlns:xlink="http://www.w3.org/1999/xlink" x="0px" y="0px"
	 viewBox="0 0 512 512" style="enable-background:new 0 0 512 512;" xml:space="preserve">
<style type="text/css">
	.st0{fill:#FFFFFF;}
	.st1{fill:#5C3724;}
	.st2{fill:#3D2115;}
	.st3{fill:#F5C4B0;}
	.st4{fill:#F288B7;}
	.st5{fill:#DDAE9E;}
	.st6{fill:#ED7BB2;}
</style>
<g id="Layer_2">
	<rect x="-52.6" y="-38.1" class="st0" width="616.1" height="587.1"/>
</g>
<g id="Capa_1">
	<path class="st1" d="M375.4,153.6l1.7-10.4c4.4-26.6,0.8-54-10.2-78.6l0,0c-10.5-23.6-33.9-38.9-59.7-39l0,0l-25.6-10.2
		c-16.8-8.4-36.3-9.2-53.8-2.2l0,0c-59.7,23.1-97.5,82.3-93.4,146.2l0,0c1.4,24.2-3.1,48.4-13.1,70.5l0,0
		c-17,37.3-12.7,80.8,11.1,114.1l4.2,5.9c0,0,34.1,42.7,128,42.7s120.6-65.3,120.6-65.3c10.2-23.8,10.9-50.7,1.8-75l0,0
		c-7.6-20.1-11.5-41.4-11.4-62.9v-1.6"/>
	<path class="st2" d="M240.3,74.8c-30.2,24.5-65.7,41.4-103.8,49.5c-2,11.6-2.7,23.4-2,35.2c1.4,24.2-3.1,48.4-13.1,70.5l0,0
		c-17,37.3-12.7,80.8,11.1,114.1l4,5.9c0,0,30.9,38.4,114.4,42.7C228.2,229.5,233.7,126.6,240.3,74.8z"/>
	<path class="st3" d="M401,366.9l2-2c-4.1-1.8-8.4-3-12.8-3.6l-76.8-9.6c-8.6-1.1-15-8.4-14.9-17.1v-53.1h-85.2v53.2
		c0.1,8.7-6.3,16-14.9,17.1l-76.8,9.6c-4.4,0.6-8.7,1.8-12.8,3.6l2.1,2c79.8,80.1,209.5,80.3,289.6,0.5
		C400.7,367.3,400.8,367.1,401,366.9z"/>
	<path class="st4" d="M403.1,364.9l-2,2c-79.8,80.1-209.5,80.3-289.6,0.5c-0.2-0.2-0.3-0.3-0.5-0.5l-2-2
		c-19.3,7.8-32,26.5-32.1,47.3V512h358.4v-99.8C435.1,391.3,422.4,372.6,403.1,364.9z"/>
	<path class="st5" d="M298.6,320.3v-38.7h-85.3v38.7C245.3,337,266.6,337,298.6,320.3z"/>
	<g>
		<path class="st3" d="M358.4,145.1h-8.5v51.2h8.5c14.1,0,25.6-11.5,25.6-25.6S372.5,145.1,358.4,145.1z"/>
		<path class="st3" d="M349.8,145.1c-34.1-17.1-42.7-76.8-42.7-76.8l-25.6,8.5c0,0-8.5-34.1-34.1-25.6
			c-33.4,11.1-8.5,51.2-42.7,76.8c-13.4,9.9-27.7,18.4-42.7,25.6l4.7,59.7c2.1,47.7,41.4,85.3,89.2,85.3l0,0
			c47.8,0,87.1-37.6,89.2-85.3L349.8,145.1z"/>
	</g>
	<path class="st5" d="M196.2,170.7v-34.1c-10.6,7.2-22,12.9-34.1,17.1l4.7,59.7c1.8,40.2,30.3,74.2,69.5,83L225,275.3
		C196.2,238.9,196.2,210.5,196.2,170.7z"/>
	<path class="st6" d="M76.8,408.9V512h34.1V358.4C85.3,366.9,76.8,384,76.8,408.9z"/>
	<circle cx="307.1" cy="162.1" r="17.1"/>
	<path d="M261.8,212.9l-25.6-8.5c-2.3-0.8-4.2-2.5-5.2-4.8c-0.9-2.3-0.9-4.9,0.2-7.1l17.1-34.1l15.3,7.6l-12.7,25.3l16.3,5.4
		L261.8,212.9z"/>
	<path d="M85.3,512H68.2V403.6c-0.2-30.2,22.3-55.9,52.4-59.7l76.8-9.6c4.3-0.5,7.5-4.2,7.5-8.5v-35.7H222v35.7
		c0.1,12.9-9.5,23.9-22.4,25.5l-76.8,9.6c-21.5,2.7-37.6,21-37.4,42.7L85.3,512L85.3,512z"/>
	<path d="M443.8,512h-17.1V404c0.2-21.7-15.9-40.1-37.4-42.7l-76.8-9.6c-12.9-1.6-22.5-12.6-22.4-25.6v-36h17.1v36.1
		c0,4.4,3.2,8.1,7.5,8.6l76.8,9.6c30.1,3.7,52.6,29.4,52.4,59.7L443.8,512L443.8,512z"/>
	<path d="M358.3,204.8h-8.5v-17.1h8.5c9.4,0,17.1-7.7,17.1-17.1s-7.7-17.1-17.1-17.1h-8.5v-17.1h8.5c18.8,0,34.1,15.3,34.1,34.1
		S377.2,204.8,358.3,204.8z"/>
	<path d="M245.4,247.5L245.4,247.5h-6.5v-17.1h6.5l0,0c11.2,0,22.3-2.6,32.3-7.6l7.6,15.3C273,244.2,259.2,247.5,245.4,247.5z"/>
	<circle cx="204.8" cy="162.1" r="17.1"/>
	<path d="M256,307.2c-52.5,0-95.4-41.1-97.7-93.5l-4.7-59.4c-0.2-2.4,0.6-4.7,2.2-6.5c1.4-1.5,3.3-2.5,5.4-2.7
		c1.2-0.3,10.6-3.1,38.4-23.9c14.1-10.6,16.1-23.8,18.2-37.8c2.4-15.5,5-33,26.9-40.3c8.6-2.9,17-2.3,24.3,1.7
		c9.2,5,14.7,14.3,17.7,21.2l17.7-5.9c2.4-0.8,5-0.5,7.2,0.8c2.1,1.3,3.6,3.5,4,6c0.1,0.6,8.3,55.5,38,70.4c3.1,1.5,4.9,4.8,4.7,8.2
		l-4.7,68.3C351.3,266.1,308.4,307.2,256,307.2z M171.1,159.6l4.2,53.1c1.9,43.6,37.3,77.5,80.7,77.5s78.7-33.9,80.6-77.2l4.3-63.1
		c-25.4-16.4-36.4-52.7-40.3-70.4L284.2,85c-2.3,0.8-4.7,0.5-6.8-0.6c-2.1-1.1-3.6-3.1-4.2-5.4c-1-4-5.3-15.2-12.5-19.1
		c-3.1-1.7-6.5-1.9-10.7-0.5c-11.4,3.8-13,11.3-15.4,26.7c-2.3,15.2-5.2,34.1-24.9,48.9C193.4,147.2,180.1,155.7,171.1,159.6z"/>
	<path d="M129.5,354.8l-4.2-5.9c-25.5-35.7-30.1-82.6-11.9-122.6c9.4-20.7,13.7-43.7,12.4-66.4c-4.2-68,35.7-130.2,99.3-154.6
		c19.5-7.8,41.7-6.9,60.6,2.6l23.1,9.3c28.5,0.8,54.2,17.9,65.8,44c11.7,26.2,15.4,55.1,10.6,83.5l-1.4,10.2l-16.9-2.3l1.5-10.4
		c4.2-25.3,1-50.8-9.3-73.9c-9.1-20.5-29.5-33.8-52-33.9c-1.1,0-2.1-0.2-3.2-0.6l-25.2-10.2c-15.2-7.6-32.3-8.3-47.4-2.2
		c-56.8,21.8-92.3,77.1-88.5,137.7c1.5,25.5-3.3,51.3-13.9,74.5c-15.7,34.4-11.7,74.9,10.3,105.6l4.2,5.9L129.5,354.8z"/>
	<path d="M383.3,353.2l-15.7-6.7l9.6-22.6c9.4-21.9,10-46.3,1.6-68.7c-8-21.1-12-43.3-12-65.9v-1.6h17.1v1.6
		c0,20.5,3.6,40.7,10.9,59.9c9.9,26.5,9.2,55.4-1.9,81.4L383.3,353.2z"/>
	<path d="M255.8,427c-54.7,0-109.4-20.9-150.9-62.6l12.1-12c76.4,76.7,200.9,76.9,277.5,0.5l12.6,11.6
		C365.2,406.2,310.4,427,255.8,427z"/>
	<path d="M248.5,89.4c-5.1-9.4-12.8-17.1-22.2-22.2l8.1-15c12.3,6.7,22.3,16.7,29,29L248.5,89.4z"/>
</g>
</svg>
