<?xml version="1.0" encoding="utf-8"?>
<!-- Generator: Adobe Illustrator 24.2.1, SVG Export Plug-In . SVG Version: 6.00 Build 0)  -->
<svg version="1.1" xmlns="http://www.w3.org/2000/svg" xmlns:xlink="http://www.w3.org/1999/xlink" x="0px" y="0px"
	 viewBox="0 0 512 512" style="enable-background:new 0 0 512 512;" xml:space="preserve">
<style type="text/css">
	.st0{fill:#FFFFFF;}
	.st1{fill:#A15D30;}
	.st2{fill:#8F4F24;}
	.st3{fill:#FEDAC6;}
	.st4{fill:#DE4C3C;}
	.st5{fill:#F5C4B0;}
	.st6{fill:#C94536;}
</style>
<g id="Layer_2">
	<rect x="-52.6" y="-38.1" class="st0" width="616.1" height="587.1"/>
</g>
<g id="Capa_1">
	<path class="st1" d="M358.4,170.7l17.1-59.7v-8.5c0-14.1-11.5-25.6-25.6-25.6l0,0c4.7-14.1-2.9-29.4-17-34.1
		c-5.6-1.9-11.6-1.9-17.1,0l0,0l-1.8-5.4c-4.1-12.1-15.4-20.2-28.1-20.2l0,0c-12.7,0-25.6,4.9-29.9,17.1c0,0,0-25.6-29.9-25.6l0,0
		c-16.5,0-29.9,13.4-29.9,29.9v4.3l0,0c-14.1-4.7-29.4,2.9-34.1,17c-1.9,5.6-1.9,11.6,0,17.1l0,0c-14.1,0-25.6,11.5-25.6,25.6v8.5
		l17.1,68.3h8.5l17.1-93.9c25.2,5.7,51,8.5,76.8,8.5s51.6-2.9,76.8-8.5l17.1,85.3L358.4,170.7L358.4,170.7z"/>
	<path class="st2" d="M162.1,76.8c-14.1,0-25.6,11.5-25.6,25.6v8.5l17.1,68.3h8.5l17.1-93.9c10.1,2.3,20.3,4.2,30.6,5.5
		c-6.9-15.3-11.5-31.5-13.6-48.1C182,38,166.7,45.8,162.1,60C160.3,65.4,160.3,71.3,162.1,76.8z"/>
	<path class="st3" d="M256,401.1c31,0,59.1-18.5,71.3-47l4.1-9.5l-9.4-1.3c-8.5-1.1-14.9-8.4-14.8-17.1v-44.6H204.8v44.8
		c0.1,8.6-6.3,15.9-14.8,17.1l-9.4,1.3l4.1,9.5C196.9,382.7,225,401.1,256,401.1z"/>
	<path class="st4" d="M376,350.5l-44.5-5.9l-4.1,9.5c-16.9,39.4-62.6,57.6-102,40.7c-18.3-7.9-32.8-22.4-40.7-40.7l-4.1-9.5
		l-44.5,5.9c-33.9,4.5-59.2,33.5-59.2,67.7V512h358.4v-93.9C435.2,383.9,409.9,355,376,350.5z"/>
	<path class="st5" d="M307.2,328.9v-47.3H204.8v47.3C243.2,345.5,268.8,345.5,307.2,328.9z"/>
	<path class="st6" d="M76.8,418.1V512h34.1V359.1C89.8,371.3,76.8,393.8,76.8,418.1z"/>
	<rect x="110.9" y="469.3" class="st3" width="34.1" height="42.7"/>
	<rect x="76.8" y="469.3" class="st5" width="34.1" height="42.7"/>
	<g>
		<rect x="366.9" y="469.3" class="st3" width="68.3" height="42.7"/>
		<path class="st3" d="M349.9,145.1h-8.5v51.2h8.5c14.1,0,25.6-11.5,25.6-25.6S364,145.1,349.9,145.1z"/>
	</g>
	<path class="st5" d="M136.5,179.2c0,14.1,11.5,25.6,25.6,25.6h8.5v-51.2h-8.5C148,153.6,136.5,165.1,136.5,179.2z"/>
	<path class="st3" d="M349.9,153.6l-7.4,80c-0.7,9-4.3,17.6-10.2,24.4l-42.9,49.2c-4.9,5.5-11.9,8.6-19.3,8.5h-28
		c-7.4,0.1-14.4-3-19.3-8.5L180,258.1c-5.9-6.8-9.5-15.4-10.2-24.4l-7.7-80.1l17.1-68.3l0,0c51,5.6,102.6,5.6,153.6,0l0,0
		L349.9,153.6z"/>
	<path class="st5" d="M199.2,87.3c-6.7-0.6-13.4-1.2-20.1-2L162,153.6l7.4,80c0.7,9,4.3,17.6,10.2,24.4l22.4,25.6
		C193.6,218.5,192.6,152.6,199.2,87.3z"/>
	<path d="M349.9,204.8h-8.5v-17.1h8.5c9.4,0,17.1-7.7,17.1-17.1c0-9.4-7.7-17.1-17.1-17.1h-8.5v-17.1h8.5
		c18.8,0,34.1,15.3,34.1,34.1S368.7,204.8,349.9,204.8z"/>
	<path d="M170.7,213.3h-8.5c-18.8,0-34.1-15.3-34.1-34.1s15.3-34.1,34.1-34.1h8.5v17.1h-8.5c-9.4,0-17.1,7.7-17.1,17.1
		s7.7,17.1,17.1,17.1h8.5L170.7,213.3L170.7,213.3z"/>
	<path d="M264.5,221.9h-25.6c-2.5,0-4.9-1.1-6.6-3.1c-1.6-1.9-2.3-4.5-1.8-7l11.3-61.9l16.8,3.1l-9.5,51.8h15.4L264.5,221.9
		L264.5,221.9z"/>
	<rect x="230.4" y="238.9" width="51.2" height="17.1"/>
	<path d="M241.7,324.3c-9.6,0-18.9-4.1-25.4-11.4l-42.7-49.2c-7.2-8.3-11.4-18.4-12.3-29.3l-7.7-80c-0.1-1,0-1.9,0.2-2.9l17.1-68.3
		c1-4.1,5-6.9,9.2-6.4c50.3,5.6,101.4,5.5,151.7,0c4.1-0.5,8.2,2.3,9.2,6.4l17.1,68.3c0.2,0.9,0.3,1.9,0.2,2.9l-7.4,80
		c-0.9,10.8-5.1,20.9-12.3,29.2l-42.9,49.3c-6.6,7.3-15.8,11.5-25.5,11.5c-0.1,0-0.2,0-0.3,0H242
		C241.9,324.3,241.8,324.3,241.7,324.3z M170.8,154.2l7.5,78.7c0.6,7.4,3.4,14.1,8.2,19.6l42.6,49.1c3.2,3.6,7.7,5.5,12.8,5.6H270
		h0.1c4.9,0,9.5-2.1,12.8-5.7l42.8-49.2c4.7-5.5,7.6-12.2,8.2-19.5l7.3-78.6l-14.9-59.7c-46.7,4.7-93.9,4.7-140.6,0L170.8,154.2z"/>
	<circle cx="204.8" cy="162.1" r="17.1"/>
	<circle cx="298.7" cy="162.1" r="17.1"/>
	<rect x="204.3" y="226.1" transform="matrix(0.9701 -0.2427 0.2427 0.9701 -50.3132 60.87)" width="35.2" height="17.1"/>
	<rect x="281.6" y="217.1" transform="matrix(0.2425 -0.9701 0.9701 0.2425 -7.8579 459.2375)" width="17.1" height="35.2"/>
	<path d="M136.6,163.5l-8.5-51.2c-0.1-0.5-0.1-0.9-0.1-1.4v-8.5c0-15.4,10.2-28.4,24.2-32.7c-0.2-4.3,0.4-8.7,1.8-12.8
		c3-9,9.3-16.3,17.8-20.5c5.1-2.6,10.7-3.8,16.3-3.7c2.8-18.5,18.7-32.7,38-32.7c17.7,0,27.7,7.8,33,16.3c6.9-5,16.1-7.8,26.8-7.8
		c15.8,0,29.9,9.7,35.5,24.3c4.8-0.4,9.6,0.2,14.2,1.7c9,3,16.3,9.3,20.5,17.8c2.7,5.5,4,11.4,3.7,17.3C373.8,74,384,87,384,102.4
		v8.5c0,0.6-0.1,1.1-0.2,1.7l-8.5,42.7l-16.7-3.4l8.4-41.8v-7.7c0-9.4-7.7-17.1-17.1-17.1c-2.7,0-5.3-1.3-6.9-3.6
		c-1.6-2.2-2-5.1-1.2-7.7c1.6-4.7,1.2-9.7-1-14.1s-6-7.7-10.6-9.3c-3.8-1.3-7.9-1.3-11.7,0c-2.1,0.7-4.5,0.6-6.5-0.5
		c-2-1-3.6-2.8-4.3-4.9l-1.8-5.4c-2.9-8.6-10.9-14.4-20-14.4c-4.2,0-18.1,0.8-21.8,11.4c-1.4,3.9-5.4,6.3-9.5,5.6s-7.1-4.3-7.1-8.4
		c-0.1-3.9-1.9-17.1-21.3-17.1c-11.8,0-21.3,9.6-21.3,21.3v4.3c0,2.7-1.3,5.3-3.6,6.9s-5.1,2-7.7,1.2c-9.7-3.2-20.1,2-23.3,11.6
		c-1.3,3.8-1.3,7.9,0,11.7c0.9,2.6,0.4,5.5-1.2,7.7s-4.2,3.6-6.9,3.6c-9.4,0-17.1,7.7-17.1,17.1v7.8l8.4,50.5L136.6,163.5z"/>
	<rect x="247.5" y="290.1" width="17.1" height="17.1"/>
	<rect x="212.6" y="285.9" transform="matrix(0.3164 -0.9486 0.9486 0.3164 -124.7367 415.8188)" width="27" height="17.1"/>
	<rect x="277.3" y="280.9" transform="matrix(0.9487 -0.3162 0.3162 0.9487 -78.4233 105.4895)" width="17.1" height="27"/>
	<path d="M85.3,512h-17v-93.9c0-38.3,28.6-71,66.6-76.1l53.9-7.2c4.3-0.6,7.5-4.2,7.4-8.5v-36.2h17.1v36.1
		c0.1,12.8-9.5,23.8-22.3,25.5l-53.9,7.2c-29.5,4-51.8,29.4-51.8,59.2C85.3,418.1,85.3,512,85.3,512z"/>
	<path d="M443.7,512h-17.1v-93.9c-0.1-29.7-22.3-55.1-51.8-59l-53.9-7.2c-12.8-1.7-22.4-12.7-22.3-25.6v-36.2h17.1v36.3
		c0,4.4,3.1,8,7.4,8.6l53.9,7.2c37.9,5.1,66.5,37.7,66.6,75.9L443.7,512L443.7,512z"/>
	<path d="M256,409.6L256,409.6c-34.6,0-65.6-20.5-79.2-52.2l-5.5-12.7L187,338l5.5,12.7c10.9,25.4,35.8,41.8,63.5,41.8h0.1
		c27.7,0,52.6-16.4,63.5-41.8L325,338l15.7,6.7l-5.5,12.7C321.6,389.1,290.5,409.6,256,409.6z"/>
	<rect x="136.5" y="443.7" width="17.1" height="68.3"/>
	<rect x="76.8" y="460.8" width="68.3" height="17.1"/>
	<rect x="358.4" y="443.7" width="17.1" height="68.3"/>
	<rect x="366.9" y="460.8" width="68.3" height="17.1"/>
</g>
</svg>
