<?xml version="1.0" encoding="utf-8"?>
<!-- Generator: Adobe Illustrator 24.2.1, SVG Export Plug-In . SVG Version: 6.00 Build 0)  -->
<svg version="1.1" xmlns="http://www.w3.org/2000/svg" xmlns:xlink="http://www.w3.org/1999/xlink" x="0px" y="0px"
	 viewBox="0 0 512 512" style="enable-background:new 0 0 512 512;" xml:space="preserve">
<style type="text/css">
	.st0{fill:#FFFFFF;}
	.st1{fill:#FEDAC6;}
	.st2{fill:#2E6AA3;}
	.st3{fill:#F5C4B0;}
	.st4{fill:#245E8F;}
	.st5{fill:#A15D30;}
	.st6{fill:#8F4F24;}
</style>
<g id="Layer_2">
	<rect x="-52.6" y="-38.1" class="st0" width="616.1" height="587.1"/>
</g>
<g id="Capa_1">
	<path class="st1" d="M256,401.1c31,0,59.1-18.5,71.3-47l4.1-9.5l-9.4-1.3c-8.5-1.1-14.9-8.4-14.8-17.1v-44.6H204.8v44.8
		c0.1,8.6-6.3,15.9-14.8,17.1l-9.4,1.3l4.1,9.5C197,382.8,225,401.2,256,401.1z"/>
	<path class="st2" d="M375.9,350.5l-44.5-5.9l-4.1,9.5c-16.9,39.4-62.6,57.6-102,40.6c-18.3-7.8-32.8-22.4-40.6-40.6l-4.1-9.5
		l-44.5,5.9c-33.9,4.5-59.2,33.4-59.2,67.6V512h358.2v-93.8C435.1,384,409.8,355.1,375.9,350.5z"/>
	<path class="st3" d="M307.2,329v-42.6H204.8V329C243.2,345.6,268.8,345.6,307.2,329z"/>
	<path class="st4" d="M76.9,418.2V512H111V359.2C89.9,371.3,76.9,393.8,76.9,418.2z"/>
	<rect x="111" y="469.3" class="st1" width="34.1" height="42.6"/>
	<rect x="76.9" y="469.3" class="st3" width="34.1" height="42.6"/>
	<g>
		<rect x="366.9" y="469.3" class="st1" width="68.2" height="42.6"/>
		<path class="st1" d="M349.8,228.7c0.1,12.5-4.4,24.7-12.6,34.1l-36.8,41.7c-6.5,7.4-15.8,11.6-25.6,11.6h-37.4
			c-9.8,0-19.1-4.2-25.6-11.6L175,262.4c-8.2-9.4-12.7-21.6-12.6-34.1v-74.5l153.3-85.3l34.1,68.2V228.7z"/>
		<path class="st1" d="M349.8,145.2h-8.5v51.2h8.5c14.1,0,25.6-11.5,25.6-25.6C375.4,156.7,363.9,145.2,349.8,145.2z"/>
	</g>
	<g>
		<path class="st3" d="M136.6,179.4c0,14.1,11.5,25.6,25.6,25.6h8.5v-51.2h-8.5C148,153.8,136.6,165.2,136.6,179.4z"/>
		<path class="st3" d="M199.6,213.5l-3.3-110.9h-30.8l-3.3,121.5c0,19.6,8.5,38.3,23.3,51.2c0,0,34.7,38,39.7,40.6l-18.8-53.5
			C200.8,246.7,198.5,230.1,199.6,213.5z"/>
	</g>
	<path class="st5" d="M366.9,153.8l3.8-50.7c2.6-29.1-17.6-55.4-46.5-60.2l0,0c-25.6-30.7-67.7-42.3-105.4-29l-12.5,4.4
		c-41,14.5-67.1,54.9-63.5,98.3l2.4,45.7h17.1l153.5-93.8l34.1,85.3H366.9z"/>
	<path class="st6" d="M222.8,13.1l-4,1.2l-12.5,4.4c-41,14.5-67.1,54.9-63.5,98.3l2.4,45.4h17.1l39.7-24.3
		C200,74.5,211.1,35.8,222.8,13.1z"/>
	<path d="M349.8,205h-8.5v-17.1h8.5c9.4,0,17.1-7.6,17.1-17.1c0-9.4-7.6-17.1-17.1-17.1h-8.5v-17.1h8.5c18.8,0,34.1,15.3,34.1,34.1
		S368.6,205,349.8,205z"/>
	<path d="M170.7,213.5h-8.5c-18.8,0-34.1-15.3-34.1-34.1s15.3-34.1,34.1-34.1h8.5v17.1h-8.5c-9.4,0-17.1,7.6-17.1,17.1
		s7.6,17.1,17.1,17.1h8.5V213.5z"/>
	<path d="M264.5,213.8h-25.6c-2.4,0-4.8-1-6.4-2.9c-1.6-1.8-2.4-4.3-2.1-6.7L239,136l16.9,2.1l-7.3,58.6h15.9L264.5,213.8
		L264.5,213.8z"/>
	<rect x="230.4" y="230.9" width="51.2" height="17.1"/>
	<path d="M274.8,324.7h-37.4c-12.3,0-23.9-5.3-32-14.5l-36.9-42.1c-9.6-11-14.9-25.2-14.7-39.8v-74.5c0-3.1,1.7-5.9,4.4-7.5
		L311.5,61c2-1.1,4.5-1.4,6.7-0.7c2.2,0.7,4.1,2.3,5.1,4.3l34.1,68.2c0.6,1.2,0.9,2.5,0.9,3.8v92c0.1,14.6-5.1,28.7-14.7,39.8
		l-36.9,41.7C298.7,319.4,287,324.7,274.8,324.7z M170.9,158.8v69.5c-0.1,10.5,3.6,20.6,10.5,28.5l36.8,42.1
		c4.8,5.5,11.8,8.7,19.2,8.7h37.3c7.3,0,14.3-3.2,19.2-8.7l36.9-41.7c6.8-7.8,10.6-17.9,10.5-28.4c0,0,0-0.1,0-0.1v-90L312,80.3
		L170.9,158.8z"/>
	<circle cx="204.9" cy="154.1" r="17.1"/>
	<circle cx="298.7" cy="154.1" r="17.1"/>
	<path d="M136.6,162.8l-2.4-45.7c-3.9-47,24.5-91,69.2-106.7L216,5.9c39.9-14.1,84.8-2.3,112.8,29.2c31.4,6.9,53.4,36.5,50.4,68.8
		l-3.8,50.5l-17-1.3l3.8-50.7c2.2-24.7-15.1-47.1-39.4-51.2c-2-0.3-3.8-1.4-5.2-3c-23.2-27.9-61.8-38.5-96-26.4l-12.5,4.4
		c-37.4,13.2-61.2,50-57.9,89.5l2.4,46L136.6,162.8z"/>
	<rect x="230.4" y="282" width="17.1" height="34.1"/>
	<rect x="264.6" y="282" width="17.1" height="25.6"/>
	<rect x="199.5" y="273.5" transform="matrix(0.4472 -0.8944 0.8944 0.4472 -136.7154 342.9027)" width="19.1" height="17.1"/>
	<rect x="294.4" y="272.9" transform="matrix(0.9487 -0.3162 0.3162 0.9487 -74.999 110.4645)" width="17" height="27"/>
	<path d="M85.4,512H68.4v-93.8c0-38.3,28.6-71,66.6-76.1l53.9-7.2c4.3-0.6,7.5-4.2,7.4-8.5v-27.6h17.1v27.5
		c0.1,12.8-9.5,23.8-22.3,25.5l-53.9,7.2c-29.5,3.9-51.8,29.4-51.8,59.2C85.4,418.2,85.4,512,85.4,512z"/>
	<path d="M443.6,512h-17.1v-93.8c-0.1-29.7-22.3-55.1-51.8-59l-53.9-7.2c-12.8-1.7-22.4-12.7-22.2-25.6v-27.6h17.1v27.7
		c0,4.4,3.2,8,7.4,8.6l53.9,7.2c37.9,5.1,66.5,37.7,66.6,75.9L443.6,512L443.6,512L443.6,512z"/>
	<path d="M256,409.6C256,409.6,256,409.6,256,409.6c-34.5,0-65.6-20.5-79.2-52.2l-5.5-12.7l15.7-6.7l5.5,12.7
		c10.9,25.4,35.8,41.8,63.4,41.8c0,0,0,0,0,0c27.6,0,52.6-16.4,63.4-41.8l5.5-12.7l15.7,6.7l-5.5,12.7
		C321.5,389.2,290.5,409.6,256,409.6z"/>
	<rect x="136.6" y="443.7" width="17.1" height="68.2"/>
	<rect x="76.9" y="460.8" width="68.2" height="17.1"/>
	<rect x="358.4" y="443.7" width="17.1" height="68.2"/>
	<rect x="366.9" y="460.8" width="68.2" height="17.1"/>
</g>
</svg>
