<?xml version="1.0" encoding="utf-8"?>
<!-- Generator: Adobe Illustrator 24.2.1, SVG Export Plug-In . SVG Version: 6.00 Build 0)  -->
<svg version="1.1" id="Capa_1" xmlns="http://www.w3.org/2000/svg" xmlns:xlink="http://www.w3.org/1999/xlink" x="0px" y="0px"
	 viewBox="0 0 512 512" style="enable-background:new 0 0 512 512;" xml:space="preserve">
<style type="text/css">
	.st0{fill:#E5B8A8;}
	.st1{fill:#DE4C3C;}
	.st2{fill:#C94536;}
	.st3{fill:#D1A89B;}
	.st4{fill:#5C5E6F;}
	.st5{fill:#525463;}
</style>
<path class="st0" d="M256,401.1c31,0,59.1-18.5,71.3-47l3.8-8.5l-17.5-2c-8.6-1-15.1-8.4-15-17.1v-44.8h-85.3v44.5
	c0.1,8.7-6.4,16-15,17.1l-17.1,2l3.8,8.5C197.2,382.3,225.1,400.9,256,401.1z"/>
<path class="st1" d="M376,350.5l-44.8-5.3l-3.8,8.5c-16.9,39.4-62.6,57.6-102,40.7c-18.3-7.9-32.8-22.4-40.7-40.7l-3.8-8.5
	l-44.8,5.3c-33.9,4.5-59.2,33.5-59.2,67.7V512h358.4v-93.9C435.2,383.9,409.9,355,376,350.5z"/>
<path class="st2" d="M76.8,418.1V512h34.1V359.1C89.8,371.3,76.8,393.8,76.8,418.1z"/>
<rect x="76.8" y="469.3" class="st0" width="68.3" height="42.7"/>
<g>
	<rect x="76.8" y="469.3" class="st3" width="34.1" height="42.7"/>
	<path class="st3" d="M298.7,315.7v-34.1h-85.3v34.1C245.3,332.8,266.7,332.8,298.7,315.7z"/>
</g>
<g>
	<rect x="366.9" y="469.3" class="st0" width="68.3" height="42.7"/>
	<path class="st0" d="M349.9,179.2c-0.1,33.1-12.2,65-34.1,89.9l-3.5,4c-14.2,16.2-34.7,25.5-56.2,25.6l0,0
		c-21.7,0-42.3-9.3-56.6-25.6l-3.2-4.1c-21.9-24.8-34-56.7-34.1-89.8V85.3h187.7L349.9,179.2L349.9,179.2z"/>
</g>
<path class="st3" d="M200.6,85.3h-38.5v93.9c0.1,33.1,12.2,65,34.1,89.9l3.5,4c3.3,3.8,6.9,7.2,10.9,10.2
	C188.3,208.6,195.1,126,200.6,85.3z"/>
<path class="st0" d="M358.4,145.1h-17.1v51.2h17.1c14.1,0,25.6-11.5,25.6-25.6C384,156.5,372.5,145.1,358.4,145.1z"/>
<path class="st3" d="M128,170.7c0,14.1,11.5,25.6,25.6,25.6h17.1v-51.2h-17.1C139.5,145.1,128,156.5,128,170.7z"/>
<path class="st4" d="M298.7,25.6h-95.4c-11.7,0-22.4-6.6-27.6-17.1l-19.5,9.8c-17.5,8.8-24.5,30.1-15.7,47.6
	c4.4,8.8,12.3,15.3,21.7,18.1v61.1c0,0,22.5-32.1,42.7-59.7h110.9l34.1,51.2V76.8C349.9,48.5,326.9,25.6,298.7,25.6z"/>
<path class="st5" d="M221.9,68.3C192,65.2,165,48.9,148.4,23.8c-14.6,12.9-15.9,35.2-3,49.7c4.5,5,10.2,8.7,16.7,10.5v61.1
	c0,0,22.5-32.1,42.7-59.7h110.9l34.1,51.2V82.7C319.4,79.5,266.9,73.9,221.9,68.3z"/>
<circle cx="204.8" cy="162.1" r="17.1"/>
<circle cx="307.2" cy="162.1" r="17.1"/>
<path d="M264.5,213.3h-25.6c-2.7,0-5.3-1.3-6.9-3.6c-1.6-2.2-2-5.1-1.2-7.7l17.1-51.2l16.2,5.4l-13.3,40h13.8L264.5,213.3
	L264.5,213.3z"/>
<path d="M240.4,247.5h-1.5v-17.1h1.5c13.3,0,25.8-5.2,35.2-14.6l12.1,12.1C275,240.5,258.2,247.5,240.4,247.5z"/>
<path d="M358.4,204.8h-8.5v-17.1h8.5c9.4,0,17.1-7.7,17.1-17.1s-7.7-17.1-17.1-17.1h-8.5v-17.1h8.5c18.8,0,34.1,15.3,34.1,34.1
	S377.2,204.8,358.4,204.8z"/>
<path d="M162.1,204.8h-8.5c-18.8,0-34.1-15.3-34.1-34.1s15.3-34.1,34.1-34.1h8.5v17.1h-8.5c-9.4,0-17.1,7.7-17.1,17.1
	s7.7,17.1,17.1,17.1h8.5V204.8z"/>
<path d="M349.9,145.1c-2.8,0-5.5-1.4-7.1-3.8l-31.6-47.4H171.9c-16.7,0-31.8-9.3-39.3-24.3c-10.8-21.9-2-48.2,19.6-58.9l19.5-9.8
	c2-1,4.4-1.2,6.5-0.5s3.9,2.3,4.9,4.3c3.8,7.6,11.5,12.4,20,12.4l0,0h95.4c32.9,0,59.7,26.8,59.7,59.7v59.7c0,3.8-2.5,7.1-6.1,8.2
	C351.5,145,350.7,145.1,349.9,145.1z M172.6,19.6L159.9,26c-13.2,6.6-18.6,22.6-12.1,35.8c4.7,9.3,13.9,15,24.1,15h143.8
	c2.9,0,5.5,1.4,7.1,3.8l18.5,27.8V76.8c0-23.5-19.1-42.7-42.7-42.7h-95.4l0,0C191.1,34.1,180,28.7,172.6,19.6z"/>
<rect x="146.8" y="106.6" transform="matrix(0.581 -0.8139 0.8139 0.581 -16.8256 197.5741)" width="73.4" height="17.1"/>
<path d="M256,307.2c-24.1,0-47.1-10.4-62.9-28.5l-3.5-4.5c-22.9-25.9-35.8-59.8-35.9-94.9v-94h17.1v93.9c0.1,31,11.5,60.9,32,84.1
	l3.5,4.5c12.3,14,30.6,22.3,49.8,22.3c0,0,0,0,0.1,0c19.1-0.1,37.2-8.3,49.8-22.7l3.5-4c20.6-23.3,31.9-53.2,32-84.3v-59.7h17.1
	v59.7c-0.1,35.2-13,69.1-36.3,95.5l-3.5,4C302.8,296.7,280,307.1,256,307.2L256,307.2z"/>
<path d="M85.3,512h-17v-93.9c0-38.3,28.6-71,66.6-76.1l62.4-7.4c4.3-0.5,7.5-4.2,7.5-8.5v-36h17.1V326c0.1,13-9.6,24-22.5,25.5
	l-62.3,7.3c-29.4,3.9-51.7,29.4-51.7,59.2C85.3,418.1,85.3,512,85.3,512z"/>
<path d="M443.7,512h-17.1v-93.9c0-29.8-22.3-55.2-51.8-59.1l-62.2-7.3c-13-1.6-22.6-12.6-22.6-25.6v-44.5h17.1v44.5
	c0,4.4,3.2,8.1,7.5,8.6l62.3,7.3c38.1,5.1,66.7,37.8,66.8,76V512L443.7,512z"/>
<path d="M256,409.6L256,409.6c-34.6,0-65.6-20.5-79.2-52.2l-5.5-12.7L187,338l5.5,12.7c10.9,25.4,35.8,41.8,63.5,41.8h0.1
	c27.7,0,52.6-16.4,63.5-41.8L325,338l15.7,6.7l-5.5,12.7C321.6,389.1,290.5,409.6,256,409.6z"/>
<rect x="136.5" y="443.7" width="17.1" height="68.3"/>
<rect x="76.8" y="460.8" width="68.3" height="17.1"/>
<rect x="358.4" y="443.7" width="17.1" height="68.3"/>
<rect x="366.9" y="460.8" width="68.3" height="17.1"/>
</svg>
