<?xml version="1.0" encoding="utf-8"?>
<!-- Generator: Adobe Illustrator 24.2.1, SVG Export Plug-In . SVG Version: 6.00 Build 0)  -->
<svg version="1.1" xmlns="http://www.w3.org/2000/svg" xmlns:xlink="http://www.w3.org/1999/xlink" x="0px" y="0px"
	 viewBox="0 0 512 512" style="enable-background:new 0 0 512 512;" xml:space="preserve">
<style type="text/css">
	.st0{fill:#FFFFFF;}
	.st1{fill:#FECB66;}
	.st2{fill:#F5AD76;}
	.st3{fill:#FEDAC6;}
	.st4{fill:#F5C4B0;}
	.st5{fill:#A15D30;}
	.st6{fill:#8F4F24;}
</style>
<g id="Layer_2">
	<rect x="-52.6" y="-38.1" class="st0" width="616.1" height="587.1"/>
</g>
<g id="Capa_1">
	<path class="st1" d="M85.4,380.4c-21.5-9.5-31.3-34.7-21.8-56.3c3.7-8.5,10.2-15.5,18.3-20c-17.1-16.3-17.7-43.3-1.5-60.3
		c7.1-7.5,16.8-12.1,27.1-13.1c-3.2-5.2-5-11.3-5-17.4c0-18.9,15.3-34.1,34.1-34.1V128C136.6,62,190,8.5,256,8.5l0,0
		C322,8.5,375.5,62,375.5,128v51.2c18.9,0,34.1,15.3,34.1,34.1c-0.1,6-1.8,11.9-4.9,17.1c23.5,2.1,40.8,22.9,38.7,46.3
		c-0.9,10.3-5.6,19.9-13.1,27.1c20.7,11.3,28.3,37.2,17,57.9c-4.6,8.4-11.8,15-20.6,18.7H85.4L85.4,380.4z"/>
	<path class="st2" d="M175.3,40.1c-24.6,22.6-38.7,54.5-38.7,87.9v51.2c-18.8,0-34.1,15.3-34.1,34.1c0.1,6,1.8,11.9,4.9,17.1
		c-23.5,2.1-40.8,22.9-38.7,46.3c0.9,10.3,5.6,19.9,13.1,27.1c-20.7,11.3-28.3,37.2-17,57.9c4.6,8.4,11.8,15,20.6,18.7h221.9
		c-5.7-4.3-11.4-8.5-17.1-13.5C176.7,276.2,171.1,114.9,175.3,40.1z"/>
	<path class="st3" d="M358.4,145.1h-17.1v51.2h17.1c14.1,0,25.6-11.5,25.6-25.6S372.6,145.1,358.4,145.1z"/>
	<path class="st4" d="M128,170.7c0,14.1,11.5,25.6,25.6,25.6h17.1v-51.2h-17.1C139.5,145.1,128,156.5,128,170.7z"/>
	<path class="st5" d="M390.3,352.8l-59.2-7.4l-3.8,8.5c-16.9,39.4-62.6,57.6-102,40.7c-18.3-7.9-32.8-22.4-40.7-40.7l-3.8-8.5
		l-59.2,7.4C95.9,356,76.6,378,76.8,404v108h358.4V403.6C435.2,377.8,416,356,390.3,352.8z"/>
	<path class="st3" d="M256,401.1c31,0,59.1-18.5,71.3-47l3.8-8.5l-17.1-2.1c-8.6-1.1-15-8.4-14.9-17.1v-44.7h-85.8v44.6
		c0.1,8.7-6.3,16-14.9,17.1l-17.5,2.1l3.8,8.5C196.9,382.5,224.9,401.1,256,401.1z"/>
	<path class="st4" d="M298.7,328.9v-47.3h-85.3v47.3C245.4,345.5,266.7,345.5,298.7,328.9z"/>
	<path class="st6" d="M76.8,408.9V512H111V358.4C85.4,366.9,76.8,384,76.8,408.9z"/>
	<path class="st3" d="M349.9,145.1l-4.7,68.3c-2.1,47.7-41.4,85.3-89.2,85.3l0,0c-47.8,0-87.1-37.6-89.2-85.3l-4.7-68.3L256,68.3
		L349.9,145.1z"/>
	<path class="st4" d="M196.3,116.9l-34.1,28.2l4.7,68.3c1.4,32,19.9,60.7,48.4,75.3c-4.1-10.7-7.6-21.6-10.4-32.7
		C199.2,233.5,197.3,162.1,196.3,116.9z"/>
	<g>
		
			<rect x="307.2" y="-3.4" transform="matrix(0.6178 -0.7863 0.7863 0.6178 63.6493 276.0136)" class="st2" width="17.1" height="151.9"/>
		
			<rect x="130.6" y="59.7" transform="matrix(0.7925 -0.6099 0.6099 0.7925 1.701698e-02 136.4912)" class="st2" width="140" height="17.1"/>
	</g>
	<circle cx="307.2" cy="162.1" r="17.1"/>
	<path d="M261.8,212.9l-25.6-8.5c-4.5-1.5-6.9-6.3-5.4-10.8l17.1-51.2l16.2,5.4l-14.4,43.1l17.5,5.8L261.8,212.9z"/>
	<path d="M85.4,512H68.3V403.6c-0.2-30.2,22.3-55.9,52.4-59.7l76.8-9.6c4.3-0.5,7.5-4.2,7.5-8.5v-35.7h17v35.7
		c0.1,12.9-9.5,23.9-22.4,25.5l-76.8,9.6c-21.5,2.7-37.6,21-37.4,42.7V512L85.4,512z"/>
	<path d="M443.8,512h-17.1V404.1c0.2-21.7-15.9-40.1-37.4-42.7l-76.8-9.5c-12.9-1.6-22.5-12.6-22.4-25.6v-36h17.1v36.1
		c0,4.4,3.2,8.1,7.5,8.6l76.8,9.5c30.1,3.7,52.6,29.4,52.4,59.7L443.8,512L443.8,512z"/>
	<path d="M358.4,204.8h-8.5v-17.1h8.5c9.4,0,17.1-7.7,17.1-17.1c0-9.4-7.7-17.1-17.1-17.1h-8.5v-17.1h8.5
		c18.8,0,34.1,15.3,34.1,34.1S377.2,204.8,358.4,204.8z"/>
	<path d="M256.1,409.6C256,409.6,256,409.6,256.1,409.6c-34.6,0-65.6-20.5-79.2-52.2l-5.5-12.7l15.7-6.7l5.5,12.7
		c10.9,25.4,35.8,41.8,63.5,41.8h0.1c27.7,0,52.6-16.4,63.5-41.8L325,338l15.7,6.7l-5.5,12.7C321.6,389.1,290.5,409.6,256.1,409.6z"
		/>
	<path d="M256,307.2c-52.5,0-95.4-41.1-97.7-93.5l-4.7-76.7l17-1l4.7,76.8c1.9,43.4,37.3,77.3,80.7,77.3s78.7-33.9,80.6-77.2
		l4.7-76.9l17,1l-4.7,76.8C351.4,266.1,308.5,307.2,256,307.2z"/>
	<path d="M245.5,247.5C245.4,247.5,245.4,247.5,245.5,247.5H239v-17.1h6.5l0,0c11.2,0,22.4-2.6,32.3-7.6l7.6,15.3
		C273.1,244.2,259.3,247.5,245.5,247.5z"/>
	<circle cx="204.8" cy="162.1" r="17.1"/>
	<path d="M344.5,151.7L256,79.3l-88.5,72.4l-10.8-13.2l93.9-76.8c3.1-2.6,7.7-2.6,10.8,0l93.9,76.8L344.5,151.7z"/>
	<path d="M162.2,204.8h-8.5c-18.8,0-34.1-15.3-34.1-34.1s15.3-34.1,34.1-34.1h8.5v17.1h-8.5c-9.4,0-17.1,7.7-17.1,17.1
		c0,9.4,7.7,17.1,17.1,17.1h8.5V204.8z"/>
	<path d="M384,153.6h-17V128c0-61.2-49.8-110.9-111-110.9S145.1,66.8,145.1,128v25.6H128V128C128,57.4,185.4,0,256,0
		s128,57.4,128,128V153.6z"/>
	<rect x="247.5" y="8.5" width="17.1" height="59.7"/>
	<path d="M82,388.3c-10.5-4.5-19.2-12.5-24.7-22.5c-6.6-12-8-25.8-4.2-39c2.9-9.8,8.4-18.3,16.1-24.7c-5-7.2-8.1-15.7-9-24.6
		c-2.2-24.2,13-46.1,35.2-53.3c-1-3.5-1.5-7.1-1.6-10.7c0-23.6,19.1-42.8,42.7-42.8v17.1c-14.1,0-25.6,11.5-25.6,25.6
		c0.1,4.4,1.3,8.8,3.7,12.6c1.5,2.5,1.7,5.7,0.3,8.3c-1.3,2.6-3.9,4.4-6.9,4.7c-18.7,1.7-32.6,18.3-30.9,37.1
		c0.7,8.3,4.5,15.9,10.5,21.6c2,1.9,2.9,4.6,2.6,7.3c-0.4,2.7-2,5.1-4.4,6.4c-8,4.4-13.8,11.6-16.4,20.3c-2.6,8.8-1.6,18,2.8,26
		c3.6,6.7,9.5,12,16.5,15L82,388.3z"/>
	<path d="M430.1,388.3l-6.8-15.7c7-3,12.8-8.3,16.5-15c9-16.5,2.9-37.3-13.6-46.3c-2.4-1.3-4-3.7-4.4-6.4c-0.4-2.7,0.6-5.4,2.6-7.3
		c6-5.7,9.7-13.4,10.5-21.6c1.7-18.7-12.2-35.4-30.9-37.1c-2.9-0.3-5.5-2-6.9-4.7s-1.2-5.8,0.4-8.3c2.3-3.8,3.6-8.2,3.7-12.7
		c0-14-11.5-25.5-25.6-25.5v-17.1c23.5,0,42.7,19.1,42.7,42.7c-0.1,3.7-0.6,7.3-1.6,10.8c22.2,7.2,37.4,29.1,35.2,53.3
		c-0.8,8.9-3.9,17.4-9,24.6c18.2,15.4,23.7,42,11.9,63.6C449.3,375.8,440.5,383.8,430.1,388.3z"/>
</g>
</svg>
