<svg id="Capa_1" enable-background="new 0 0 512 512" height="512" viewBox="0 0 512 512" width="512" xmlns="http://www.w3.org/2000/svg"><g><g><path d="m105.456 403.913-40.307-26.121c-9.209-5.966-21.515-3.341-27.483 5.869-5.969 9.21-3.341 21.514 5.869 27.483l40.307 26.121c9.188 5.953 21.5 3.364 27.483-5.869 5.968-9.21 3.34-21.514-5.869-27.483z" fill="#4f4c5f"/><path d="m250.877 7.5c-9.768 0-18.339 6.205-21.734 15.364-14.171 38.232-74.081 59.214-11.816 131.393l56.608-77.818v-45.881c0-12.735-10.323-23.058-23.058-23.058z" fill="#e8a882"/><path d="m416.22 7.5c9.768 0 18.339 6.205 21.734 15.364 14.171 38.232 74.081 59.214 11.816 131.393l-56.608-77.817v-45.882c0-12.735 10.324-23.058 23.058-23.058z" fill="#e8a882"/><path d="m227.063 267.883c-15.832 83.287-175.523 48.96-175.523 217.211 0 10.717 8.688 19.406 19.406 19.406h249.098v-148.212z" fill="#5c586f"/><path d="m199.938 308.456c2.955 7.394 6.522 14.555 10.698 21.396 12.604 20.686 30.368 37.992 51.373 50.049 17.779 10.206 37.617 16.458 58.035 18.38v-41.994l-92.981-88.405c-3.402 17.898-13.45 30.362-27.125 40.574z" fill="#4f4c5f"/><path d="m231.985 316.843c-10.989-18.004-17.308-39.157-17.308-61.781v-75.77c0-65.646 53.216-118.862 118.872-118.862 65.646 0 118.862 53.216 118.862 118.862v75.77c0 22.624-6.319 43.777-17.308 61.781z" fill="#6a647f"/><path d="m234.77 214.345c0-68.43 40.688-127.355 99.19-153.909-.137 0-.274-.005-.411-.005-65.656 0-118.872 53.216-118.872 118.862v75.77c0 22.624 6.319 43.777 17.308 61.781h37.436c-21.731-28.429-34.651-63.953-34.651-102.499z" fill="#5c586f"/><path d="m363.962 244.511c33.434 9.777 60.042 35.739 71.14 72.332-4.938 8.108-10.83 15.589-17.507 22.266-21.511 21.511-51.219 34.815-84.047 34.815-43.022 0-80.708-22.852-101.564-57.081 11.098-36.603 37.726-62.556 71.15-72.332z" fill="#e8a882"/><path d="m363.962 244.511c-1.182 15.768-14.347 28.178-30.413 28.178s-29.231-12.41-30.413-28.178c9.638-2.832 19.852-4.312 30.413-4.312 10.572 0 20.775 1.48 30.413 4.312z" fill="#423e4f"/><g fill="#e8a882"><path d="m284.883 152.501-13.976-4.078c-8.056-2.35-16.487 2.194-18.977 10.169-2.568 8.225 2.482 17.043 10.754 19.457l13.588 3.965c8.15 2.378 16.684-2.301 19.062-10.451 2.378-8.15-2.301-16.685-10.451-19.062z"/><path d="m382.214 152.501 13.976-4.078c8.056-2.35 16.487 2.194 18.977 10.169 2.568 8.225-2.482 17.043-10.754 19.457l-13.588 3.965c-8.15 2.378-16.684-2.301-19.062-10.451-2.378-8.15 2.301-16.685 10.451-19.062z"/><path d="m155.228 460.286h-28.866c-13.595 0-24.616 11.021-24.616 24.616v19.598h58.5c10.824 0 19.598-8.774 19.598-19.598 0-13.595-11.021-24.616-24.616-24.616z"/></g><path d="m324.541 460.286h-28.866c-13.595 0-24.616 11.021-24.616 24.616v19.598h58.5c10.824 0 19.598-8.774 19.598-19.598 0-13.595-11.021-24.616-24.616-24.616z" fill="#e3986d"/><path d="m268.159 460.286h-28.866c-13.595 0-24.616 11.021-24.616 24.616v19.598h58.5c10.824 0 19.598-8.774 19.598-19.598 0-13.595-11.021-24.616-24.616-24.616z" fill="#e8a882"/><path d="m249.07 282.442c-7.358 9.994-13.184 21.536-17.084 34.401 20.855 34.229 58.542 57.081 101.563 57.081 4.288 0 8.522-.232 12.693-.675-43.468-15.723-78.634-48.771-97.172-90.807z" fill="#e3986d"/></g><g><path d="m253.99 210.288v13.812c0 4.142 3.358 7.5 7.5 7.5s7.5-3.358 7.5-7.5v-13.812c0-4.142-3.358-7.5-7.5-7.5s-7.5 3.358-7.5 7.5z"/><path d="m397.742 210.288v13.812c0 4.142 3.358 7.5 7.5 7.5s7.5-3.358 7.5-7.5v-13.812c0-4.142-3.358-7.5-7.5-7.5s-7.5 3.358-7.5 7.5z"/><path d="m360.643 288.981c-4.142 0-7.5 3.358-7.5 7.5 0 3.327-2.707 6.034-6.034 6.034s-6.034-2.707-6.034-6.034c0-4.142-3.358-7.5-7.5-7.5s-7.5 3.358-7.5 7.5c0 3.327-2.707 6.034-6.034 6.034s-6.034-2.707-6.034-6.034c0-4.142-3.358-7.5-7.5-7.5-14.108 0-7.493 28.534 13.534 28.534 5.153 0 9.873-1.87 13.534-4.957 3.661 3.087 8.381 4.957 13.534 4.957 21.001.001 27.696-28.534 13.534-28.534z"/><path d="m302.532 173.664c3.541-12.135-3.414-24.821-15.55-28.363l-13.976-4.078c-11.882-3.466-24.55 3.323-28.236 15.134-3.848 12.324 3.605 25.33 15.812 28.892l13.588 3.965c12.131 3.538 24.837-3.468 28.362-15.55zm-43.444-12.837c1.267-4.057 5.621-6.398 9.717-5.205l13.976 4.078c4.176 1.219 6.571 5.585 5.352 9.762-1.216 4.167-5.595 6.567-9.762 5.352l-13.588-3.964c-4.253-1.242-7.007-5.821-5.695-10.023z"/><path d="m422.325 156.357c-3.688-11.811-16.353-18.601-28.237-15.134l-13.976 4.078c-12.135 3.541-19.092 16.227-15.55 28.363 3.527 12.088 16.237 19.087 28.362 15.55l13.588-3.965c12.168-3.551 19.671-16.53 15.813-28.892zm-20.014 14.492-13.588 3.964c-4.165 1.215-8.546-1.185-9.762-5.352-1.219-4.176 1.175-8.542 5.352-9.762l13.976-4.078c4.088-1.193 8.449 1.142 9.717 5.204 1.309 4.198-1.435 8.781-5.695 10.024z"/><path d="m39.454 417.438 12.697 8.228c-5.43 17.487-8.112 37.145-8.112 59.428 0 14.835 12.07 26.905 26.905 26.905h258.614c14.942 0 27.098-12.156 27.098-27.098 0-16.696-12.808-30.451-29.113-31.971v-71.666c1.998.095 4 .159 6.005.159 70.318 0 126.361-57.082 126.361-126.362v-15.928c0-4.142-3.358-7.5-7.5-7.5s-7.5 3.358-7.5 7.5c-.665 10.115 2.904 31.705-8.776 59.313-14.504-31.508-37.292-50.593-70.067-61.136-.001 0-.002 0-.003 0-21.229-6.24-44.455-6.049-65.034.001 0 0 0 0-.001 0-1.627.88-46.9 10.808-70.07 61.12-5.812-13.741-8.782-28.477-8.782-43.37v-75.77c0-61.295 49.855-111.362 111.372-111.362 61.419 0 111.361 49.977 111.361 111.362v30.526c0 4.142 3.358 7.5 7.5 7.5s7.5-3.358 7.5-7.5v-30.526c0-7.83-.722-15.493-2.091-22.933 20.189-24.193 28.999-45.474 26.906-64.972-1.954-18.204-12.602-31.761-22.899-44.872-6.92-8.812-13.458-17.134-16.839-26.258-4.492-12.115-16.052-20.256-28.768-20.256-16.85 0-30.558 13.708-30.558 30.558v33.626c-15.897-7.226-33.543-11.254-52.113-11.254s-36.216 4.028-52.114 11.252v-33.624c.001-16.85-13.708-30.558-30.558-30.558-12.715 0-24.275 8.141-28.767 20.258-3.382 9.124-9.919 17.446-16.839 26.258-10.297 13.111-20.945 26.668-22.899 44.872-2.092 19.495 6.714 40.773 26.898 64.961-3.486 18.922-1.517 25.883-2.094 98.713 0 10.751 1.379 21.384 4.034 31.666-11.564 16.541-32.411 26.783-56.372 38.546-6.028 2.959-12.262 6.02-18.491 9.264-3.673 1.914-5.101 6.443-3.187 10.117 1.913 3.673 6.442 5.101 10.116 3.187 6.07-3.162 12.223-6.182 18.172-9.103 21.135-10.375 41.322-20.286 55.366-35.21 16.179 38.935 51.342 68.559 95.729 76.135v73.121c-13.564.546-20.774-1.595-30.64 3.097-1.083-.515-2.201-.966-3.346-1.359v-49.57c0-4.143-3.358-7.5-7.5-7.5s-7.5 3.357-7.5 7.5v47.832c-22.748.222-25.427-.548-31.381.805v-48.637c0-4.143-3.358-7.5-7.5-7.5s-7.5 3.357-7.5 7.5v56.693c-13.653 12.991-9.153 28.857-10 35.353h-22.694c8.241-16.443-1.897-38.741-22.038-43.387-1.808-20.898-11.983-32.792-20.648-39.226-10.167-7.549-20.165-9.208-21.271-9.373-4.098-.609-7.912 2.22-8.52 6.317s2.22 7.912 6.317 8.521c.071.01 7.293 1.203 14.532 6.578 8.164 6.062 12.989 14.912 14.415 26.355h-20.907c-17.709 0-32.116 14.407-32.116 32.116v12.1h-23.301c-6.564 0-11.905-5.341-11.905-11.905 0-53.126 15.495-93.589 60.067-123.208 3.45-2.292 4.388-6.948 2.096-10.397s-6.948-4.388-10.397-2.096c-12.781 8.493-23.486 17.792-32.336 28.093l-9.242-5.99c-12.666-8.206-29.648-4.58-37.855 8.084-8.209 12.666-4.583 29.648 8.083 37.857zm361.207-386.88c0-8.579 6.979-15.558 15.558-15.558 6.573 0 12.344 4.11 14.702 10.471 4.198 11.328 11.777 20.978 19.107 30.31 17.579 22.382 32.952 41.962 3.031 82.413-8.811-25.598-26.711-49.848-52.398-65.979zm-67.114 335.866c-38.461 0-73.366-19.996-93.355-50.628 9.408-28.007 29.342-50.668 57.347-61.469 11.561 34.042 60.25 34.705 72.017-.001 26.986 10.375 47.58 32.412 57.338 61.475-20.007 30.705-54.35 50.623-93.347 50.623zm21.619-116.42c-7.462 20.406-35.885 19.984-43.239 0 4.085-.926 29.032-3.147 43.239 0zm-141.137-111.82c-29.914-40.445-14.541-60.022 3.037-82.403 7.33-9.333 14.909-18.982 19.107-30.31 2.358-6.361 8.129-10.471 14.702-10.471 8.579 0 15.558 6.979 15.558 15.558v41.651c-25.462 15.987-43.511 40.137-52.404 65.975zm110.51 329.602c9.438 0 17.116 7.678 17.116 17.116 0 6.671-5.427 12.098-12.098 12.098h-32.137c1.869-3.737 2.854-7.916 2.854-12.098 0-6.213-1.802-12.148-4.935-17.113 2.45-.054-8.418-.002 29.2-.003zm-102.364 17.116c0-9.438 7.678-17.116 17.116-17.116h28.866c7.035 0 13.087 4.269 15.716 10.35 4.251 9.91-1.89 18.865-10.698 18.865h-51zm-112.931 0c0-9.438 7.678-17.116 17.116-17.116h28.866c9.438 0 17.116 7.678 17.116 17.116 0 6.67-5.425 12.096-12.094 12.098h-51.004zm-65.287-97.162c3.691-5.696 11.358-7.38 17.11-3.654l8.261 5.354c-4.722 7.012-8.705 14.467-11.863 21.797l-9.854-6.386c-5.724-3.711-7.363-11.387-3.654-17.111z"/></g></g></svg>