<?xml version="1.0" encoding="utf-8"?>
<!-- Generator: Adobe Illustrator 24.2.1, SVG Export Plug-In . SVG Version: 6.00 Build 0)  -->
<svg version="1.1" xmlns="http://www.w3.org/2000/svg" xmlns:xlink="http://www.w3.org/1999/xlink" x="0px" y="0px"
	 viewBox="0 0 512 512" style="enable-background:new 0 0 512 512;" xml:space="preserve">
<style type="text/css">
	.st0{fill:#E56B2E;}
	.st1{fill:#EBEBEB;}
	.st2{fill:#F5C4B0;}
	.st3{fill:#DBDBDB;}
	.st4{fill:#D65B25;}
	.st5{fill:#DDAE9E;}
	.st6{fill:#F5AD76;}
	.st7{fill:#FECB66;}
	.st8{fill:#5C3724;}
	.st9{fill:#3D2115;}
</style>
<g id="Capa_1">
	<path class="st0" d="M376,350.5l-9-0.6v-17.1c0-14.1-11.5-25.6-25.6-25.6H170.7c-14.1,0-25.6,11.5-25.6,25.6v17.1l-9,1
		c-33.7,4.5-59,33.2-59.2,67.2V512h358.4v-93.9C435.2,383.9,409.9,355,376,350.5z"/>
	<path class="st1" d="M256,401.1c-23.1,0-45-10.3-59.7-28.1v139h119.5V373C301,390.8,279.1,401.1,256,401.1z"/>
	<path class="st2" d="M313.7,343.1c-8.6-1-15.1-8.4-15-17.1v-61.5h-85.3v61.6c0.1,8.7-6.4,16-15,17.1h-2v29.6
		c27.3,33,76.2,37.6,109.2,10.2c3.7-3.1,7.2-6.5,10.2-10.2v-29.4L313.7,343.1z"/>
	<path class="st3" d="M230.4,396.7c-13.3-4.6-25.2-12.8-34.1-23.7v139h34.1V396.7z"/>
	<path class="st4" d="M76.8,418.1V512h34.1V359.2C89.9,371.3,76.9,393.8,76.8,418.1z"/>
	<path class="st2" d="M341.3,196.3h17.1c14.1,0,25.6-11.5,25.6-25.6l0,0c0-14.1-11.5-25.6-25.6-25.6h-8.5"/>
	<path class="st5" d="M170.7,196.3h-17.1c-14.1,0-25.6-11.5-25.6-25.6l0,0c0-14.1,11.5-25.6,25.6-25.6h8.5"/>
	<path class="st2" d="M162.1,93.9v85.3l2,26.6c4.4,50.8,49,88.4,99.8,84c2.8-0.2,5.5-0.6,8.2-1.1c42-8.1,73.2-43.7,75.9-86.4
		l1.8-23.1V93.9H162.1z"/>
	<path class="st5" d="M196.3,190.7V85.3h-34.1v93.9l2,26.6c3,36.4,27.3,67.5,61.9,79.2l-15.9-35.2
		C201,231.4,196.3,211.2,196.3,190.7z"/>
	<path class="st6" d="M196.3,85.3c0.3,24.6-12.7,47.5-34.1,59.7V85.3H196.3z"/>
	<path class="st7" d="M349.9,145.1c0,0-34.1-17.1-34.1-51.2h34.1V145.1z"/>
	<path class="st5" d="M298.7,307.2v-25.6h-85.3v25.6C245.3,324.3,266.7,324.3,298.7,307.2z"/>
	<path class="st4" d="M198.7,344.5c1.5-2.6,3.6-4.8,6.1-6.4c5.3-3.3,8.5-9.1,8.5-15.4v-15.5h-35.5c-18.1,0-32.9,14.7-32.9,32.8
		c0,6.6,1.9,13,5.6,18.4l10.4,15.5C169.1,359.5,182.7,348.9,198.7,344.5z"/>
	<circle cx="204.8" cy="162.1" r="17.1"/>
	<circle cx="307.2" cy="162.1" r="17.1"/>
	<path d="M264.5,204.8h-25.6c-2.8,0-5.5-1.4-7.1-3.7s-1.9-5.3-0.9-8l17.1-42.7l15.8,6.3l-12.4,31h13L264.5,204.8L264.5,204.8z"/>
	<path d="M240.4,238.9h-1.5v-17.1h1.5c13.3,0,25.8-5.2,35.2-14.6l12.1,12.1C275,232,258.2,238.9,240.4,238.9z"/>
	<path d="M358.4,204.8h-8.5v-17.1h8.5c9.4,0,17.1-7.7,17.1-17.1c0-9.4-7.7-17.1-17.1-17.1h-8.5v-17.1h8.5
		c18.8,0,34.1,15.3,34.1,34.1S377.2,204.8,358.4,204.8z"/>
	<path d="M162.1,204.8h-8.5c-18.8,0-34.1-15.3-34.1-34.1s15.3-34.1,34.1-34.1h8.5v17.1h-8.5c-9.4,0-17.1,7.7-17.1,17.1
		c0,9.4,7.7,17.1,17.1,17.1h8.5L162.1,204.8L162.1,204.8z"/>
	<path d="M256.1,298.7c-48,0-90.6-34.4-99.2-83.2c-0.5-3-0.9-6-1.2-9l-2.1-26.7l0-59.6l8.5-26.4h8.5v85.3l2,26
		c0.2,2.4,0.5,4.9,1,7.4c8.1,45.4,51.6,75.8,97.1,67.8c38.1-7.4,66.5-39.7,68.8-78.6l1.8-23.3l0-84.7h8.5l8.5,28.7v56.6l-1.8,23.8
		c-2.8,46.5-36.9,85.3-82.7,94.2C267.9,298.2,261.9,298.7,256.1,298.7z"/>
	<path d="M204.8,512h-17.1V343.2c0-4.7,3.8-8.5,8.5-8.5h1.5c4.1-0.7,7.1-4.3,7.1-8.5v-44.6h17.1v44.5c0.1,11.1-7,20.7-17.1,24.3
		L204.8,512L204.8,512z"/>
	<path d="M85.3,512H68.3v-93.9c0-38.3,28.6-71,66.6-76.1l9.6-0.7l1.1,17l-9,0.6c-29,3.9-51.3,29.3-51.3,59.2L85.3,512L85.3,512z"/>
	<path d="M256,409.6c-25.7,0-49.9-11.4-66.3-31.2l13.1-10.9c13.2,15.9,32.5,25,53.2,25s40-9.1,53.2-25l13.1,10.9
		C305.9,398.2,281.7,409.6,256,409.6z"/>
	<path d="M189.2,431.4l-45.7-68.3c-4.6-6.9-7-15-6.9-23.3c0-22.7,18.5-41.2,41.3-41.2h35.5v17.1h-35.5c-13.4,0-24.2,10.9-24.2,24.2
		c-0.1,4.9,1.3,9.7,4,13.7l45.7,68.2L189.2,431.4z"/>
	<path d="M170.7,494.9c-4.7,0-8.5-3.8-8.5-8.5v-51.2c0-4.7,3.8-8.5,8.5-8.5s8.5,3.8,8.5,8.5v51.2
		C179.2,491.1,175.4,494.9,170.7,494.9z"/>
	<path d="M324.3,512h-17.1V350.4c-10.1-3.6-17.2-13.2-17.1-24.3v-44.5h17.1v44.5c0,4.3,3,7.8,7.1,8.5h1.5c4.7,0,8.5,3.8,8.5,8.5V512
		z"/>
	<path d="M443.7,512h-17.1v-93.9c0-29.8-22.3-55.3-51.8-59.2l-8.5-0.5l1.1-17l9,0.6c38.5,5.1,67.2,37.9,67.2,76.2L443.7,512
		L443.7,512z"/>
	<path d="M322.8,431.4l-14.2-9.5l45.7-68.3c2.7-4,4.1-8.7,4-13.6c0-13.4-10.9-24.3-24.2-24.3h-35.5v-17.1h35.5
		c22.8,0,41.3,18.5,41.3,41.3c0.1,8.2-2.3,16.2-6.9,23.2L322.8,431.4z"/>
	<path d="M341.3,494.9c-4.7,0-8.5-3.8-8.5-8.5v-51.2c0-4.7,3.8-8.5,8.5-8.5s8.5,3.8,8.5,8.5v51.2
		C349.9,491.1,346.1,494.9,341.3,494.9z"/>
</g>
<g id="Layer_2">
	<path class="st8" d="M198.6,106.1l6.1-14.4c33.9,5.6,68.5,5.6,102.4,0c5.6,16.7,16.1,31.3,30.1,41.8l12.5,10.7v-1.3
		c11.2-48.8-19.2-97.4-68-108.6c-6.6-1.5-13.4-2.3-20.2-2.3h-11.3c-50,0-90.6,40.7-90.5,90.7c0,6.8,0.8,13.6,2.3,20.2v8.5l17.1-17.1
		C187.4,126.3,194.1,116.7,198.6,106.1z"/>
	<path class="st9" d="M196.2,111.3v-8c0-18.9,4-37.6,11.9-54.8l3.6-8C173,58.6,152.4,101.3,162,142.9v8.5l17.1-17.1
		C186,127.7,191.8,119.9,196.2,111.3z"/>
	<path d="M341.1,142.9c0-0.6,0.1-1.3,0.2-1.9c10.1-44.1-17.5-88.3-61.6-98.4c-6-1.4-12.1-2.1-18.2-2.1h-11.2v0
		c-45.3,0-82,36.9-82,82.2c0,6.2,0.7,12.3,2.1,18.3c0.1,0.6,0.2,1.3,0.2,1.9l-17.1,0.9c-1.5-6.9-2.3-14.1-2.3-21.2
		c0-54.7,44.4-99.2,99.1-99.2h11.3c7.4,0,14.8,0.9,22,2.5c53,12.2,86.3,64.9,74.6,117.9L341.1,142.9z"/>
	<path d="M168.1,157.4L156,145.4l17.1-17.1c7.6-7.4,13.4-16,17.4-25.7l6.4-14.4c1.6-3.5,5.3-5.6,9.2-5c33.1,5.5,66.6,5.5,99.6,0
		c4.2-0.7,8.2,1.7,9.5,5.7c5,15.1,14.4,28.1,27.2,37.7l12.5,9.4l-10.2,13.7l-12.5-9.4c-13.6-10.2-24-23.6-30.5-39.2
		c-30.5,4.4-61.3,4.4-91.7-0.1l-3.7,8.3c-4.8,11.6-12,22.1-21.1,31.1L168.1,157.4z"/>
	<g>
		<path class="st1" d="M161.6,133.2h76.8l0,0v34.1c0,14.1-11.5,25.6-25.6,25.6h-25.6c-14.1,0-25.6-11.5-25.6-25.6V133.2L161.6,133.2
			z"/>
		<path class="st1" d="M323.8,193h-25.6c-14.1,0-25.6-11.5-25.6-25.6v-34.1h76.8v34.1C349.4,181.5,337.9,193,323.8,193z"/>
	</g>
	<path d="M212.8,201.5h-25.6c-18.8,0-34.1-15.3-34.1-34.1v-34.1c0-4.7,3.8-8.5,8.5-8.5h76.8c4.7,0,8.5,3.8,8.5,8.5v34.1
		C247,186.2,231.7,201.5,212.8,201.5z M170.2,141.8v25.6c0,9.4,7.7,17.1,17.1,17.1h25.6c9.4,0,17.1-7.7,17.1-17.1v-25.6H170.2z"/>
	<path d="M323.8,201.5h-25.6c-18.8,0-34.1-15.3-34.1-34.1v-34.1c0-4.7,3.8-8.5,8.5-8.5h76.8c4.7,0,8.5,3.8,8.5,8.5v34.1
		C357.9,186.2,342.6,201.5,323.8,201.5z M281.1,141.8v25.6c0,9.4,7.7,17.1,17.1,17.1h25.6c9.4,0,17.1-7.7,17.1-17.1v-25.6H281.1z"/>
	<rect x="229.9" y="124.7" width="42.7" height="17.1"/>
</g>
</svg>
