<?xml version="1.0" encoding="utf-8"?>
<!-- Generator: Adobe Illustrator 24.2.1, SVG Export Plug-In . SVG Version: 6.00 Build 0)  -->
<svg version="1.1" xmlns="http://www.w3.org/2000/svg" xmlns:xlink="http://www.w3.org/1999/xlink" x="0px" y="0px"
	 viewBox="0 0 512 512" style="enable-background:new 0 0 512 512;" xml:space="preserve">
<style type="text/css">
	.st0{fill:#FFFFFF;}
	.st1{fill:#5C3724;}
	.st2{fill:#3D2115;}
	.st3{fill:#F5C4B0;}
	.st4{fill:#E56B2E;}
	.st5{fill:#DDAE9E;}
	.st6{fill:#D65B25;}
</style>
<g id="Layer_2">
	<rect x="-52.6" y="-38.1" class="st0" width="616.1" height="587.1"/>
</g>
<g id="Capa_1">
	<path class="st1" d="M136.5,187.7v51.2c0,25.6-34.1,68.3-25.6,119.5l0,0c94.7,27.8,195.4,27.8,290.1,0l0,0
		c8.5-51.2-12.9-93.9-17.1-119.5c-5.6-42.4-8.5-85.2-8.5-128c0-56.6-37.3-102.4-93.9-102.4h-51.2c-51.8,0-93.9,42-93.9,93.9
		C136.5,102.4,136.5,187.7,136.5,187.7z"/>
	<path class="st2" d="M227,8.5c-50.5,1.8-90.6,43.3-90.5,93.9v136.5c0,25.6-34.1,68.3-25.6,119.5c43.7,12.8,88.9,19.8,134.4,20.7
		C179.2,162.1,187.7,68.3,227,8.5z"/>
	<g>
		<path class="st3" d="M256,452.3c38.7,0,70.8-29.7,73.9-68.3l2.9-38.4l-18.9-2.4c-8.6-1.1-15-8.4-14.9-17.1v-44.5h-85.6v44.6
			c0.1,8.7-6.3,16-14.9,17.1l-19.2,2.3l2.9,38.4C185.1,422.5,217.3,452.3,256,452.3z"/>
		<path class="st3" d="M145,443.7l-7.8-92.9l-15.6,2C95.9,356,76.6,378,76.8,404v108h42.7c0-22.2,7.2-43.7,20.5-61.4L145,443.7z"/>
		<path class="st3" d="M390.3,352.8l-15.6-2l-7.8,92.9l5.1,6.8c13.3,17.7,20.5,39.3,20.5,61.4h42.7V403.6
			C435.2,377.8,415.9,356,390.3,352.8z"/>
	</g>
	<path class="st4" d="M366.9,443.7l7.8-92.9l-41.9-5.2l-2.9,38.4c-3.4,40.8-39.2,71.1-80.1,67.7c-36.1-3-64.7-31.6-67.7-67.7
		l-2.9-38.4l-42.2,5.2l8,92.9l-5.1,6.8c-13.3,17.7-20.5,39.3-20.5,61.4h273.1c0-22.2-7.2-43.7-20.5-61.4L366.9,443.7z"/>
	<g>
		<path class="st5" d="M76.8,402.5v108.4h25.6V358.4C86.6,367.5,76.8,384.3,76.8,402.5z"/>
		<path class="st5" d="M298.6,320.3v-38.7h-85.3v38.7C245.3,337,266.6,337,298.6,320.3z"/>
		<path class="st5" d="M153.6,145.1c-14.1,0-25.6,11.5-25.6,25.6s11.5,25.6,25.6,25.6h17.1v-51.2L153.6,145.1L153.6,145.1z"/>
	</g>
	<path class="st3" d="M324.7,264.5c-8.3,9.6-18.4,17.5-29.8,23.1l-16.1,8.1c-14.4,7.2-31.3,7.2-45.7,0l-17.1-8.5
		c-28.4-14.2-48-41.5-52.2-73l-1.7-69.1v-42.7l8.5-8.5c10.7-10.9,25.4-17,40.6-17.1h64.9c39.6,0,39.6,0,48.1,25.6l0,0
		c0,0-8.5,110.9-8.5,128C316.3,242.3,319.4,253.9,324.7,264.5z"/>
	<path class="st5" d="M196.2,119.5c0-14.1,2-28.2,5.8-41.8c-11.9,2-22.9,7.6-31.4,16.2l-8.5,8.5v42.7l1.8,69.1
		c3.6,26.1,17.7,49.6,39.1,65C191.6,223.2,196.2,157.4,196.2,119.5z"/>
	<path class="st6" d="M130.6,465.6c-7.3,14.4-11.1,30.3-11.2,46.4h57C146.7,499.5,135,480.4,130.6,465.6z"/>
	<circle cx="307.2" cy="162.1" r="17.1"/>
	<path d="M253.3,221.4l-25.6-8.5c-2.3-0.8-4.2-2.5-5.2-4.8c-0.9-2.3-0.9-4.9,0.2-7.1l25.6-51.2l15.3,7.6l-21.2,42.4l16.3,5.4
		L253.3,221.4z"/>
	<path d="M85.3,512H68.2V403.6c-0.2-30.3,22.3-55.9,52.4-59.7l76.8-9.6c4.3-0.5,7.5-4.2,7.5-8.5v-35.7H222v35.7
		c0.1,12.9-9.5,23.9-22.4,25.5l-76.8,9.6c-21.5,2.7-37.6,21-37.4,42.7L85.3,512L85.3,512z"/>
	<path d="M443.8,512h-17.1V404.1c0.2-21.7-15.9-40.1-37.4-42.7l-76.8-9.5c-12.9-1.6-22.5-12.6-22.4-25.6v-36h17.1v36.1
		c0,4.4,3.2,8.1,7.5,8.6l76.8,9.5c30.1,3.7,52.6,29.4,52.4,59.7V512H443.8z"/>
	<path d="M245.4,247.5L245.4,247.5h-6.5v-17.1h6.5l0,0c11.2,0,22.3-2.6,32.3-7.6l7.6,15.3C273,244.2,259.2,247.5,245.4,247.5z"/>
	<path d="M240.2,81.3c-6.7-10.7-17.1-18.5-29.2-21.9l4.6-16.4c16.2,4.6,30.1,15,39.1,29.3L240.2,81.3z"/>
	<path d="M198.7,91.4c-4.1-4.1-17.1-14.6-28.1-14.6V59.7c20,0,38.2,17.6,40.2,19.6L198.7,91.4z"/>
	<circle cx="196.2" cy="162.1" r="17.1"/>
	<path d="M325.4,302.9c-23.4-41-16.9-101.7-11.7-150.5c2.5-23.6,4.9-45.9,2.3-56.5c-1.5-6.1-4.4-10.2-8.9-12.5
		c-9.8-5.1-25.6-0.8-30.9,1.3l-6.3-15.9c2.7-1.1,26.5-10.1,45-0.6c8.9,4.5,15,12.7,17.7,23.6c3.4,13.6,1.1,35.1-1.9,62.5
		c-5,46.3-11.2,104,9.5,140.2L325.4,302.9z"/>
	<polygon points="324.7,273.1 324.2,273.1 324.2,256 	"/>
	<path d="M256,309.6c-9.2,0-18.3-2.1-26.7-6.2l-17.1-8.5c-31-15.5-52.3-45.2-56.9-79.5c0-0.3-0.1-0.6-0.1-0.9l-1.7-69.1v-42.9h17.1
		v42.7l1.7,68.4c4,28.5,21.7,53.2,47.5,66.1l17.1,8.5c11.9,5.9,26.2,5.9,38.1,0l16.1-8.1c10.4-5.2,19.5-12.3,27.2-21.1l12.9,11.2
		c-9.1,10.5-20,19-32.4,25.2l-16.1,8.1C274.3,307.6,265.1,309.6,256,309.6z"/>
	<path d="M102.5,359.8c-5.7-34.5,6.2-64.6,15.8-88.7c5.2-13,9.6-24.2,9.6-32.1v-51.2H145V239c0,11.2-5,23.8-10.8,38.4
		c-8.8,22.2-19.8,49.9-14.9,79.6L102.5,359.8z"/>
	<path d="M409.4,359.8l-16.8-2.8c5.9-35.3-3.2-66.2-10.5-91c-2.9-9.8-5.3-18.2-6.6-25.7c-5.7-42.9-8.6-86.3-8.6-129.4
		c0-54.4-35.9-93.9-85.3-93.9h-51.2c-49.4,0-85.3,39.5-85.3,93.9v42.7H128v-42.7C128,46.7,171,0,230.4,0h51.2
		C340.9,0,384,46.7,384,110.9c0,42.3,2.9,85,8.5,126.9c1,6.2,3.4,14.2,6.1,23.4C405.9,286.3,416,320.7,409.4,359.8z"/>
	<path d="M162.1,204.8h-8.5c-18.8,0-34.1-15.3-34.1-34.1s15.3-34.1,34.1-34.1h8.5v17.1h-8.5c-9.4,0-17.1,7.7-17.1,17.1
		c0,9.4,7.7,17.1,17.1,17.1h8.5V204.8z"/>
	<path d="M256,460.8c-42.8,0-79-33.5-82.4-76.1l-2.9-34.1l17-1.5l2.9,34.1c2.7,33.9,31.4,60.5,65.4,60.5s62.7-26.5,65.4-60.4
		l2.9-34.2l17,1.5l-2.9,34.1C335,427.3,298.8,460.8,256,460.8z"/>
	<path d="M128,512h-17.1c0-23.9,7.9-47.5,22.2-66.6l3.1-4.2l-8.2-82l17-1.7l8.5,85.3c0.2,2.1-0.4,4.3-1.7,6l-5.1,6.8
		C134.6,471.8,128,491.8,128,512z"/>
	<path d="M401,512h-17c0-20.2-6.7-40.2-18.8-56.3l-5.1-6.8c-1.3-1.7-1.9-3.8-1.7-6l8.5-85.3l17,1.7l-8.2,82l3.1,4.2
		C393.1,464.5,401,488.1,401,512z"/>
</g>
</svg>
