<?xml version="1.0" encoding="utf-8"?>
<!-- Generator: Adobe Illustrator 24.0.3, SVG Export Plug-In . SVG Version: 6.00 Build 0)  -->
<svg version="1.1" id="Layer_1" xmlns="http://www.w3.org/2000/svg" xmlns:xlink="http://www.w3.org/1999/xlink" x="0px" y="0px"
	 viewBox="0 0 128 128" style="enable-background:new 0 0 128 128;" xml:space="preserve">
<style type="text/css">
	.st0{fill:#243970;}
	.st1{fill:#FAFBFD;}
	.st2{fill:#E8E8F1;}
	.st3{fill:#E1E2ED;}
	.st4{fill:#DFE1EC;}
	.st5{fill:#E2E3EE;}
	.st6{fill:#E5E6EF;}
	.st7{fill:#EEEEF5;}
	.st8{fill:#0062A2;}
	.st9{fill:#0060A1;}
	.st10{fill:#2F447A;}
	.st11{fill:#263D76;}
	.st12{fill:#263B72;}
	.st13{fill:#135394;}
</style>
<g id="pJUmQo.tif">
	<g>
		<path class="st0" d="M57.7,126.4c-6.5-0.7-12.8-2.4-18.8-4.9C8.1,108.5-7.1,72.9,4.6,41.7C15.4,13.2,45-3.8,75.1,1.4
			c25.4,4.3,45.6,23.5,51.4,48.6c1.5,7.2,1.5,18.2,0.9,22.5c-0.8,6.2-2.5,12.2-5.3,17.8c-10.5,21.1-27.5,33.2-51,36.2
			C68,126.9,60.8,126.8,57.7,126.4z M109.5,63.7C109.8,39.6,89.7,18,63,18.7c-24.3,0.6-44,20.5-43.9,44.9c0,24.8,20.1,44.8,45.2,45
			C89.1,108.8,109.5,88.5,109.5,63.7z M47.6,15c0.7-0.3,1.3-0.5,1.8-0.8c0.5-0.2,1.1-0.3,0.7-1.1c-0.3-0.7-0.7-0.5-1.3-0.3
			c-0.9,0.4-1.8,0.6-2.6,1c-0.4,0.2-0.7,0.2-1-0.3c-0.3-0.6,0.1-0.7,0.5-0.8c0.6-0.2,1.1-0.5,1.7-0.6c0.6-0.2,1.2-0.4,0.8-1.2
			c-0.3-0.7-0.9-0.4-1.4-0.2c-1.4,0.5-2.7,1.1-4.1,1.6c-0.6,0.2-1.4,1.1-1.8,0.1c-0.5-1.2,0.9-1,1.5-1.3c1.3-0.6,2.7-1.1,4.1-1.6
			c0.6-0.2,0.9-0.5,0.6-1.2c-0.3-0.7-0.7-0.4-1.1-0.3c-2.2,0.9-4.4,1.7-6.6,2.5c-0.5,0.2-0.9,0.3-0.7,1c0.4,1.1,0.6,2.3,1.4,3.1
			c0.6,0.6,1.5-0.4,2.4-0.5c0.1,0,0.3-0.1,0.4-0.2c0.4-0.2,0.8-0.2,1,0.3c0.2,0.5-0.1,0.7-0.5,0.9c-0.9,0.3-1.7,0.7-2.6,1
			c-0.6,0.2-1.2,0.3-0.8,1.2c0.3,0.8,0.8,0.4,1.3,0.3c0.6-0.1,1.1-0.7,1.9-0.4c-0.2,1.9,0.4,3.2,2.3,3.7c1.3,0.3,2.4-0.2,3.1-1.3
			C49.6,17.8,49,16.4,47.6,15z M69.6,10.8c0-1-0.1-2,0-3c0.2-1.8-0.4-2.2-2.2-2.2c-1.8,0-2.4,0.5-2.1,2.2c0.1,0.7,0,1.5,0,2.2
			c0,0.7-0.2,1.2-1,1.1c-1-0.1-2.4,0.6-2.9-0.5c-0.4-0.8-0.2-2,0-3c0.2-0.9,1.1-0.4,1.7-0.4c0.6-0.1,0.8-0.3,0.8-0.9
			c0-0.5-0.2-0.6-0.7-0.8c-2.7-0.6-3.5,0-3.5,2.6c0,0.2,0,0.4,0,0.6c0,3.7,0,3.8,3.8,3.7c1.2,0,2.1,0.1,1.9,1.7
			c-0.1,0.5-0.2,1.3,0.7,1.3c0.9,0,0.8-0.7,0.8-1.3c0-1.9,0-3.9,0-5.8c0-0.5-0.3-1.2,0.6-1.2C68.3,7.3,68,8,68,8.5
			c0,1.8,0,3.6,0,5.4c0,0.6-0.5,1.7,0.8,1.6c1.2-0.1,0.7-1.1,0.7-1.7C69.7,12.8,69.6,11.8,69.6,10.8z M118.5,66.3c0,0.1,0,0.1,0,0.2
			c1.3,0,2.6,0,3.8,0c0.5,0,1,0,1-0.7c0-0.7-0.6-0.6-1-0.6c-1.8-0.1-3.6-0.2-5.4-0.2c-2,0.1-3.1-0.3-2.8-2.7
			c0.1-0.8,0.3-1.1,0.8-1.5c2.1-1.6,4.3-2.7,6.9-2.7c0.4,0,1.2,0.3,1.2-0.6c0-1-0.8-0.8-1.4-0.6c-2.3,0.5-4.5,0.2-6.6-0.8
			c-0.9-0.4-2.5-1.3-2.7-0.7c-0.5,1.7,1.6,1.3,2.4,1.9c0.5,0.4,1.6,0.2,1.7,0.9c0.1,0.6-1,0.7-1.4,1.2c-0.7,0.7-2.2,0.8-2.3,2
			c-0.2,2.3-0.1,4.7-0.1,7c0,0.5,0,1,0.7,0.9c0.6,0,0.8-0.6,0.7-1c-0.3-1.9,0.9-2,2.3-1.9C117,66.3,117.8,66.3,118.5,66.3z M101,23
			c-0.3-0.2-0.6-0.4-0.9-0.6c-0.5-0.3-0.7,0.1-0.9,0.4c-0.6,0.8-1.2,1.2-2,0.2c-0.3-0.4-0.7-0.6-1.2-0.1c-0.5,0.5-0.3,0.9,0.2,1.3
			c1.9,1.8,3.9,3.7,5.8,5.6c0.6,0.6,1,0.6,1.6,0c1.4-1.5,2.8-2.9,4.2-4.3c0.5-0.5,0.7-0.8,0.1-1.4c-1.6-1.4-3.1-3-4.6-4.5
			c-0.4-0.4-0.7-0.6-1.1-0.1c-0.5,0.5-0.4,0.9,0.1,1.3c0.6,0.5,1.1,1,1.6,1.5c2.6,2.6,2.6,2.6-0.1,5.1c-0.1,0.1-0.2,0.2-0.3,0.3
			c-0.6,0.7-0.9,0.3-1.4-0.1c-0.5-0.5-0.8-0.8-0.1-1.4c0.4-0.4,1.4-0.7,0.6-1.5c-0.9-1-1.2,0.1-1.7,0.5c-0.3,0.2-0.6,0.6-1,0.2
			c-0.4-0.4,0-0.7,0.2-1C100.2,23.9,100.5,23.6,101,23z M63.1,117c0.1,0,0.1,0,0.2,0c0,1.3,0,2.7,0,4c0,0.4-0.1,0.9,0.4,1.2
			c1,0.5,4.1-0.2,4.9-1.1c1-1.3,0.9-3-0.4-4.3c-0.4-0.5-0.7-0.6-0.2-1.2c0.8-1,0.7-2.2-0.1-3.1c-1.3-1.3-3-1-4.4-0.6
			c-1,0.3-0.4,1.6-0.4,2.5C63.1,115.3,63.1,116.1,63.1,117z M20.2,87.4c-3.2,0.1-6.7,3-6.7,5.6c0,2,1.6,3.5,3.6,3.5
			c3,0,6.8-3,6.8-5.5C23.9,88.8,22.3,87.3,20.2,87.4z M7.2,79.8c0.2,0.2,0.4,0.5,0.6,0.7c3.1-0.7,6.2-1.5,9.4-2.2
			c0.5-0.1,1-0.2,0.7-0.9c-0.2-0.6-0.6-0.5-1.1-0.4c-1.7,0.3-3.4,1.1-5.5,1c1.9-2.1,3.7-4,5.4-5.8c-3.4,0.4-6.6,1.1-9.8,1.8
			c-0.5,0.1-0.7,0.4-0.5,0.9c0.2,0.5,0.5,0.5,0.9,0.4c1.9-0.4,3.8-0.9,5.7-1.3c0.2,0.2,0.3,0.4,0.5,0.6C11.4,76.4,9.3,78.1,7.2,79.8
			z M120.5,81.8c-1.4-0.4-2.6,0.3-4,0.3c-0.6,0-1.2,0.4-1.5-0.5c-0.5-1.6-1.8-2.3-3.4-2.2c-1.7,0.1-2.2,1.5-2.7,2.9
			c-0.5,1.2-0.4,1.9,1,2.3c2.5,0.8,4.9,1.9,7.3,2.8c0.5,0.2,1,0.6,1.3-0.2c0.3-0.8-0.3-0.8-0.8-1.1c-1-0.6-3-0.5-2.9-1.6
			c0.2-1.6,2.2-0.9,3.4-1.2C119.2,83,120.4,83.3,120.5,81.8z M61.6,115.9c0-2.7-1.3-4.4-3.4-4.7c-2-0.3-3.5,0.9-4.3,3.4
			c-0.5,1.7-0.6,3.4,0,5.1c0.5,1.3,1.4,2.1,2.8,2.2c1.5,0.1,2.6-0.3,3.5-1.5C61.3,119,61.4,117.4,61.6,115.9z M92.9,102.5
			c-0.1,0.1-0.2,0.3-0.3,0.4c2,2.4,4,4.8,6,7.2c0.3,0.4,0.6,1,1.3,0.4c0.6-0.6,0-1-0.3-1.3c-1.1-1.4-2.2-2.7-3.4-4.1
			c0.1-0.1,0.2-0.2,0.2-0.3c2.6,0.8,5.1,1.6,7.7,2.4c-1.9-2.9-3.9-5.4-6-7.9c-0.3-0.3-0.5-0.6-1-0.3c-0.5,0.4-0.3,0.8,0,1.2
			c1.2,1.4,2.3,2.8,3.4,4.1c-0.1,0.1-0.1,0.2-0.2,0.3C97.9,104,95.4,103.2,92.9,102.5z M26.2,93.4c-0.2-0.1-0.3-0.2-0.5-0.3
			c-2.4,2.1-4.8,4.2-7.2,6.3c-0.4,0.3-0.7,0.6-0.2,1.1c0.5,0.6,0.8,0.1,1.1-0.2c1.5-1.3,2.9-2.5,4.7-4.1c-0.7,3.2-1.9,5.7-2.3,8.9
			c2.6-2.3,4.9-4.2,7.1-6.2c0.4-0.4,1.4-0.7,0.7-1.5c-0.7-0.8-1.1,0.3-1.6,0.5c-1.3,0.8-2,2.5-3.9,2.6
			C24.9,98.1,25.5,95.7,26.2,93.4z M13.3,88c5,0,7.7-3.9,5.5-7.7c-0.4-0.7-0.8-0.9-1.6-0.6c-2.6,1.1-5.2,2.1-7.8,3.2
			c-0.4,0.2-0.9,0.3-0.8,1C9.1,86,11.2,88,13.3,88z M25.7,106.4c0,2,1.8,4,3.8,4.2c0.7,0.1,3.3-2.4,3.5-3.2c0.1-0.9-0.7-1-1.2-1.4
			c-0.3-0.3-0.6-0.6-1-0.1c-0.2,0.3-0.4,0.5-0.1,0.9c1.1,1.3-0.3,1.9-0.9,2.2c-1.1,0.5-1.9-0.4-2.3-1.3c-0.8-1.6,0.5-4.2,2.5-5.4
			c1.6-0.9,2.8-0.6,4.2,1.2c0.3,0.4,0.4,0.6,0.9,0.4c0.6-0.3,0.5-0.7,0.4-1.2c-0.5-1.5-2.7-2.7-4.5-2.4
			C28.4,100.7,25.8,103.7,25.7,106.4z M12.5,63.2C12.5,63.2,12.5,63.1,12.5,63.2c0.7,0,1.5,0.1,2.2,0.2c0.5,0,1,0.1,1.1-0.5
			c0.1-0.8-0.4-0.8-1-0.9c-0.7,0-1.5-0.1-2.2-0.1c-0.5,0-0.8-0.2-0.9-0.8c-0.3-2.4,0.3-3.2,2.8-3.1c0.2,0,0.4,0,0.6,0
			c0.5,0,1.2,0.2,1.2-0.6c0-0.8-0.7-0.6-1.2-0.7c-2.3-0.2-4.5-0.4-6.8-0.5c-0.9,0-2.4-1-2.5,0.5C5.6,58,7.1,57.4,8,57.4
			c2.7,0.2,2.7,0.2,2.5,2.8c-0.1,1.1-0.5,1.5-1.6,1.3c-0.8-0.1-1.6-0.1-2.4-0.2c-0.5,0-1.2-0.2-1.3,0.6c-0.1,0.8,0.6,0.7,1.1,0.8
			C8.4,62.9,10.4,63,12.5,63.2z M37.8,113.6c0,2.4,1.6,4.1,4.2,4.3c1.3,0.1,3-2,3.3-3.8c0.1-0.8-0.6-0.8-1-1
			c-0.4-0.2-0.9-0.7-1.4-0.2c-0.3,0.3-0.3,0.6,0,0.9c1.3,1.1,0.2,2.1-0.5,2.5c-1,0.6-1.9-0.1-2.6-1c-1-1.4-0.4-4.1,1.2-5.7
			c1.4-1.4,2.5-1.3,4.4,0.2c0.3,0.3,0.6,0.6,1,0.2c0.3-0.3,0.4-0.6,0.2-1.1c-0.5-0.7-1.1-1.1-1.9-1.4
			C41.4,106.3,37.9,109.5,37.8,113.6z M95.8,111.3c-0.8-2.4-2.6-4.8-4.1-7.3c-0.2-0.3-0.6-0.2-0.9,0c-0.5,0.3-0.2,0.7,0,1
			c0.9,1.6,1.9,3.2,2.8,4.8c0.7,1.2,1.4,2.5-0.3,3.4c-1.6,0.8-2.4-0.3-3.1-1.6c-0.9-1.6-1.8-3.1-2.7-4.7c-0.2-0.4-0.3-0.9-1-0.6
			c-0.6,0.3-0.6,0.6-0.3,1.1c1.2,2.1,2.4,4.2,3.7,6.2c0.8,1.3,2.2,1.6,3.6,1C94.9,114.3,95.8,113.3,95.8,111.3z M108.2,84.9
			c-0.4,0-0.6,0.4-0.8,0.7c-0.5,0.9-1,1.9-1.6,2.8c-0.6,0.9-0.5,1.3,0.5,1.8c1.7,0.9,3.4,1.9,5.1,2.8c3.1,1.7,3.1,1.8,4.7-1.2
			c0.3-0.6,1.6-1.5,0.5-2.1c-1.3-0.7-1.2,1-1.7,1.5c-0.6,0.6-0.6,2.1-2.1,1.1c-1.1-0.7-2.6-1.1-1.2-2.9c0.3-0.4,0.7-0.9,0-1.3
			c-0.6-0.3-0.8,0.1-1.1,0.6c-0.1,0.2-0.2,0.3-0.3,0.5c-0.4,1.2-1.1,0.9-2,0.5c-1-0.5-1-1-0.5-1.9c0.4-0.5,0.7-1.2,1-1.7
			C109.2,85.5,108.8,85.2,108.2,84.9z M85.8,19.4c-0.3,0.5-0.3,0.8,0.3,1.1c0.8,0.3,0.9-0.1,1.2-0.7c0.8-1.7,1.5-3.4,2.3-5.1
			c0.3-0.7,0.4-1.7,1.6-1.1c0.5,0.2,0.7-0.2,0.8-0.6c0.2-0.6-0.2-0.7-0.5-0.9c-1.2-0.7-2.4-1.3-2.9,0.9c-0.3,1.1-1,2-1.4,3.1
			c-0.4,1.1-0.9,1-1.8,0.6c-1.7-0.8-3.4-1.6-5.1-2.3c-0.5-0.2-1.1-0.7-1.5,0.1c-0.5,0.9,0.3,1,0.8,1.2c1.8,0.8,3.6,1.6,5.3,2.4
			C85.5,18.4,86.3,18.6,85.8,19.4z M16.1,68c0-0.1,0-0.3,0-0.4c-3.4-0.9-6.7-1.8-10.1-2.7c-0.3-0.1-0.7-0.2-0.9,0.2
			c-0.2,0.5,0,0.9,0.5,1.2c2.6,1.5,2.7,2.7,0.5,4.4c-0.5,0.4-0.6,0.7-0.4,1.2c0.3,0.5,0.7,0.2,1,0.1C9.9,70.6,13,69.3,16.1,68z
			 M73.2,111c-0.2,0-0.3,0.1-0.5,0.1c-0.6,3.2-1.1,6.4-1.7,9.6c-0.1,0.4-0.4,1,0.3,1.2c0.7,0.2,1.1-0.3,1.1-0.9c0-1.5,0.9-1.6,2-1.9
			c1.2-0.3,1.9,0,2.3,1.2c0.2,0.6,0.7,0.6,1.2,0.4c0.6-0.2,0.4-0.6,0.2-0.9C76.4,116.9,74.8,113.9,73.2,111z M108.2,96.8
			c-0.8,0.3-1.4,0.1-2-0.2c-1.3-0.5-2.7-0.9-4-1.5c-0.7-0.3-1.2-0.2-1.5,0.5c-0.3,0.7,0.5,0.7,0.8,0.8c2.8,1,5.7,2,8.5,3
			c0.4,0.1,0.8,0.5,1.1,0.1c0.5-0.5-0.1-0.9-0.3-1.2c-1.6-2.4-3.3-4.7-5-7.1c-0.3-0.4-0.3-1.5-1.2-0.8c-0.7,0.6-0.2,1.1,0.2,1.7
			C106,93.7,107,95.2,108.2,96.8z M22.8,23.1c-0.2,0.2-0.7,0.4-1,0.8c-0.7,0.8,0.1,1.5,0.5,1.3c1.2-0.6,1.1,0.4,1.5,0.8
			c0.9,1.1,2,1.4,3.2,0.8c1.1-0.6,1.6-1.6,1.3-2.8c-0.3-1.3-2.3-1.8-1.8-3.5c0,0-0.1-0.1-0.1-0.1c-1.4,0.3-2.9,0.5-4.2,1.1
			C21.7,21.7,22.8,22.2,22.8,23.1z M81.2,12.3c0.1,1.3,0.7,2.2,2.1,2.5c1.2,0.3,2.2-0.3,2.8-1.5c0.3-0.6-0.1-1.9,1.5-1.6
			c0.3,0.1,0.8-0.9-0.1-1.3c-0.7-0.4-1.9-0.4-1.2-1.9c0.2-0.4-0.6-1-1.3-0.5c-0.2,0.2-0.3,0.7-0.6,0.8c-0.8,0.3-1.4-1-2.4-0.4
			c-1.1,0.7,1,1.4,0,2.1C81.5,10.9,81.3,11.5,81.2,12.3z M121.9,77.4c-0.2-1.8-0.9-2.8-2.6-3.1c-1.6-0.3-2.7,0.5-3.6,1.7
			c-0.7,0.9-1.6,1.4-2.6,0.7c-1-0.6-0.6-1.5-0.1-2.3c0.4-0.5,0.3-0.8-0.2-1.1c-0.6-0.3-0.9,0.1-1.1,0.5c-0.7,1.3-1,2.7,0.3,3.8
			c1.3,1,2.7,1.1,4.1,0.1c0.5-0.4,0.9-1,1.4-1.4c0.7-0.7,1.5-0.9,2.4-0.3c0.9,0.6,0.7,1.5,0.3,2.3c-0.3,0.6-1.1,1.1,0,1.5
			c1,0.4,1.1-0.5,1.3-1.1C121.8,78.3,121.8,77.7,121.9,77.4z M49.3,109.4c-0.7,0-0.6,0.6-0.8,1c-0.5,1.7-1,3.5-1.5,5.2
			c-1.1,3.9-1.1,3.9,2.8,4.9c0.5,0.1,1.4,0.8,1.7-0.2c0.3-1.1-0.8-0.8-1.3-1.1c-0.3-0.2-0.6-0.2-1-0.2c-1.3-0.2-1.6-0.8-1.2-2
			c0.7-2,1.2-4.1,1.8-6.1C50,110.2,50.2,109.6,49.3,109.4z M85.5,117.9c-0.2-0.4-0.4-0.8-1-0.6c-0.5,0.2-1,0.3-1.5,0.5
			c-1.3,0.6-2,0.4-2.3-1.1c-0.5-2.1-1.3-4.1-2-6.1c-0.1-0.5-0.2-0.9-0.9-0.8c-0.8,0.2-0.6,0.6-0.4,1.2c0.9,2.5,1.7,5.1,2.5,7.6
			c0.2,0.6,0.1,1.6,1.1,1.2c1.5-0.5,3.2-0.6,4.5-1.8C85.5,118.1,85.5,118,85.5,117.9z M35.2,23.7c-0.3-0.3-0.4-0.6-0.7-0.7
			c-0.4-0.3-0.7,0.1-1,0.4c-1.3,1.2-2.4,2.5-3.8,3.6c-0.8,0.7-1.4,2.6-3.1,1.1c-0.3-0.2-0.8,0.3-0.9,0.6c-0.1,1,0.9,1.3,1.4,2
			c0.5,0.7,0.9,0.1,1.3-0.3c2-1.9,4.1-3.9,6.1-5.8C34.8,24.3,34.9,24,35.2,23.7z M113.3,70c-0.3,0-0.9-0.2-1,0.5
			c-0.2,0.8,0.5,0.8,1,0.9c2.9,0.4,5.7,0.8,8.6,1.2c0.5,0.1,0.8,0,0.9-0.5c0.1-0.6-0.2-0.8-0.8-0.9C119.1,70.8,116.3,70.4,113.3,70z
			 M99.7,96.6c-0.3,0.2-0.5,0.4-0.6,0.6c-0.4,0.6,0.2,0.8,0.5,1.1c2,1.9,3.9,3.8,5.9,5.7c0.4,0.4,0.8,1,1.5,0.3
			c0.6-0.7-0.1-0.9-0.4-1.3c-2-1.9-3.9-3.8-5.9-5.7C100.4,97.1,100,96.9,99.7,96.6z M16.9,41.3c-0.1-1.2-0.8-2-2-2
			c-1.2,0-2,0.7-2.1,2c0,1.4,0.8,2.1,2.1,2.1C16.1,43.3,16.8,42.5,16.9,41.3z M115.5,41.3c-0.1-1.2-0.8-2-2.1-2c-1.3,0-2,0.7-2.1,2
			c0,1.4,0.8,2.1,2.1,2.1C114.8,43.3,115.5,42.6,115.5,41.3z M32,21.8c-0.6-0.6-1.2-1.2-1.7-1.8c-0.3-0.4-1.3-0.7-0.7-1.4
			c0.4-0.5,0.7-1,0-1.5c-0.9-0.6-1.2,0.5-1.7,0.9c-0.4,0.3-1.1,0.7-0.4,1.4c1,1,2,2,2.9,3c0.3,0.3,0.5,0.4,0.8,0.1
			C31.6,22.4,31.8,22.1,32,21.8z"/>
		<path class="st1" d="M61.3,78.7c2.2,0.7,4.2,0.9,6.3,0.2c1-0.4,1,0.3,1,0.9c0.1,1.5,0.2,3.1,0.4,4.6c0.9,5.5,4.7,9,10.1,9.2
			c5.5,0.2,9.3-2.8,10.7-8.4c0.7-2.8,0.8-5.7,0.8-8.6c0.1-6.1,0.1-12.3,0.1-18.4c0-2.8,0.8-3.8,3.3-4.5c0.3-0.1,0.7-0.1,0.6-0.6
			c-0.1-0.4-0.4-0.5-0.7-0.5c-3,0-6.1,0-9.1,0c-0.3,0-0.7,0.1-0.8,0.5c-0.1,0.6,0.3,0.6,0.8,0.7c2.2,0.2,2.9,1.7,3.1,3.6
			c0.1,0.7,0.2,1.5,0.2,2.2c0,5.9,0,11.7,0,17.6c0,3.4-0.2,6.7-1.7,9.9c-1.1,2.4-3.1,3.6-5.4,3.4c-2.2-0.2-4.1-1.9-4.7-4.3
			c-0.2-0.9-0.4-1.9-0.4-2.8c-0.1-5.9-0.1-11.7-0.2-17.6c0-3.1,0-6.2,0.2-9.3c0.1-1.6,0.9-2.6,2.7-2.7c0.5,0,1.3,0.3,1.2-0.5
			c0-0.7-0.8-0.6-1.3-0.6c-4.1,0-8.2,0-12.3,0c-0.2,0-0.4,0-0.6,0c-0.4,0.1-0.6,0.2-0.6,0.6c0,0.3,0.3,0.4,0.6,0.4
			c2.6,0,3,1.8,3,3.9c0,4.4,0.1,8.9,0.1,13.3c0,1.1-0.1,2.3-0.5,3.4c-0.6,2.3-2.5,2.8-4.3,1.2c-1.4-1.2-2-2.8-2.5-4.5
			c-2.1-8.7-1.9-17.6-1.1-26.5c0.2-2.6,0.8-5.1,2-7.3c1.8-3.3,4.8-3.5,7.1-0.5c1.4,1.9,2.3,4.1,3,6.3c0.5,1.4,0.5,3,1.7,4.7
			c0-5.4,0-10.4,0-15.4c-0.6,0.2-0.7,0.5-0.8,0.8c-0.9,2.2-1.2,2.3-3.2,0.8c-1.4-1-2.8-1.7-4.6-1.7c-5,0.1-8,3.1-9.8,7.2
			c-4.9,10.9-4.7,21.9,0,32.8c0.3,0.6,0.7,1.2,0.7,1.8c0,5,0.3,10.1-0.2,15.1c-0.1,1-0.4,2-1.7,2.2c-0.4,0.1-0.9,0.1-0.8,0.6
			c0.1,0.5,0.6,0.5,1,0.5c2.8,0,5.7,0,8.5,0c0.4,0,0.9,0,0.9-0.5c0-0.4-0.3-0.5-0.7-0.6c-1.5-0.1-1.9-1.3-2-2.4
			C61.2,85.7,61.3,82.3,61.3,78.7z M42.8,92.6c2.2,0,4.3,0,6.5,0c0.4,0,0.8,0.1,1-0.5c0.1-0.3-0.1-0.6-0.4-0.6
			c-3.9-0.1-3.5-2.9-3.6-5.5c0-9,0-18,0-27.1c0-0.9,0.1-1.9,0.2-2.8c0.2-1.5,1.1-2.4,2.7-2.5c0.4,0,1.1,0.3,1.1-0.5
			c0-0.6-0.6-0.6-1.1-0.6c-4.2,0-8.5,0-12.7,0c-0.5,0-1,0-1,0.6c0,0.6,0.6,0.4,0.9,0.4c2.3,0.3,3,1.1,3,3.4c0,10.3,0,20.6,0,30.9
			c0,2.3-0.8,3.1-3,3.4c-0.4,0.1-0.9-0.1-0.9,0.5c0,0.7,0.6,0.6,1,0.6C38.7,92.6,40.7,92.6,42.8,92.6z M53.8,71.6
			c-0.1-1.7-1-2.6-2.6-2.7c-1.4-0.1-2.7,1.2-2.6,2.7c0.1,1.6,1,2.4,2.6,2.4C52.8,74,53.6,73,53.8,71.6z"/>
		<path class="st2" d="M47.6,15.1c1.4,1.4,2,2.8,0.9,4.4c-0.7,1.1-1.8,1.6-3.1,1.3c-1.9-0.5-2.6-1.8-2.3-3.7
			c-0.8-0.3-1.3,0.3-1.9,0.4c-0.5,0.1-1,0.6-1.3-0.3c-0.3-0.9,0.3-1,0.8-1.2c0.9-0.3,1.7-0.7,2.6-1c0.4-0.2,0.7-0.4,0.5-0.9
			c-0.2-0.5-0.6-0.5-1-0.3c-0.1,0.1-0.2,0.1-0.4,0.2c-0.8,0.1-1.8,1.1-2.4,0.5c-0.7-0.8-1-2-1.4-3.1c-0.3-0.6,0.2-0.8,0.7-1
			C41.7,9.7,43.8,8.8,46,8c0.5-0.2,0.8-0.4,1.1,0.3c0.3,0.7,0,1-0.6,1.2c-1.4,0.5-2.8,1-4.1,1.6c-0.6,0.3-2,0.1-1.5,1.3
			c0.4,1,1.3,0.1,1.8-0.1c1.4-0.5,2.8-1,4.1-1.6c0.5-0.2,1-0.5,1.4,0.2c0.4,0.8-0.2,1-0.8,1.2c-0.6,0.2-1.1,0.4-1.7,0.7
			c-0.4,0.2-0.8,0.3-0.5,0.8c0.2,0.5,0.5,0.5,1,0.3c0.9-0.4,1.8-0.7,2.6-1c0.5-0.2,1-0.4,1.3,0.3c0.4,0.8-0.3,0.9-0.7,1.1
			C48.9,14.6,48.3,14.8,47.6,15.1z M47.4,17.8c-0.2-0.8-0.6-1.3-1.5-1.3c-0.9,0.1-1.3,0.6-1.3,1.5c0,0.8,0.6,1.2,1.3,1.2
			C46.8,19.2,47.3,18.7,47.4,17.8z"/>
		<path class="st3" d="M69.6,10.8c0,1,0,2,0,3c0,0.6,0.4,1.7-0.7,1.7c-1.2,0.1-0.7-1-0.8-1.6c-0.1-1.8,0-3.6,0-5.4
			c0-0.5,0.3-1.2-0.6-1.3c-0.9,0-0.6,0.7-0.6,1.2c0,1.9,0,3.9,0,5.8c0,0.6,0.1,1.3-0.8,1.3c-1,0-0.8-0.8-0.7-1.3
			c0.2-1.6-0.6-1.7-1.9-1.7c-3.8,0-3.8,0-3.8-3.8c0-0.2,0-0.4,0-0.6c0-2.7,0.8-3.2,3.5-2.7c0.5,0.1,0.7,0.3,0.7,0.8
			c0,0.6-0.2,0.8-0.8,0.9c-0.6,0.1-1.5-0.5-1.7,0.4c-0.2,1-0.4,2.2,0,3c0.6,1.1,1.9,0.3,2.9,0.5c0.8,0.1,1.1-0.3,1-1.1
			c0-0.7,0.1-1.5,0-2.2c-0.3-1.7,0.3-2.3,2.1-2.3c1.8,0,2.4,0.5,2.2,2.3C69.5,8.8,69.6,9.8,69.6,10.8z"/>
		<path class="st4" d="M118.5,66.6c-0.7,0-1.5,0.1-2.2,0c-1.4-0.1-2.6-0.1-2.3,1.9c0.1,0.4-0.1,1-0.7,1c-0.7,0.1-0.7-0.5-0.7-0.9
			c0-2.3,0-4.7,0.1-7c0.1-1.2,1.5-1.3,2.3-2c0.5-0.4,1.5-0.6,1.4-1.2c-0.1-0.7-1.1-0.5-1.7-0.9c-0.9-0.6-2.9-0.2-2.4-1.9
			c0.2-0.6,1.8,0.3,2.7,0.7c2.1,1,4.3,1.3,6.6,0.8c0.5-0.1,1.3-0.3,1.4,0.7c0,0.9-0.8,0.6-1.2,0.6c-2.7,0-4.9,1.2-6.9,2.8
			c-0.5,0.4-0.7,0.7-0.8,1.5c-0.3,2.4,0.8,2.8,2.8,2.7c1.8-0.1,3.6,0.1,5.4,0.2c0.5,0,1,0,1,0.7c0,0.7-0.5,0.7-1,0.7
			c-1.3,0-2.6,0-3.8,0C118.5,66.7,118.5,66.6,118.5,66.6z"/>
		<path class="st5" d="M101,23.1c-0.5,0.5-0.8,0.9-1.1,1.2c-0.3,0.3-0.6,0.6-0.2,1c0.4,0.4,0.7,0,1-0.2c0.5-0.4,0.8-1.5,1.7-0.5
			c0.8,0.9-0.2,1.2-0.6,1.5c-0.6,0.6-0.4,0.9,0.1,1.4c0.5,0.4,0.9,0.9,1.4,0.1c0.1-0.1,0.2-0.2,0.3-0.3c2.7-2.5,2.7-2.5,0.1-5.1
			c-0.5-0.5-1-1.1-1.6-1.5c-0.5-0.4-0.6-0.8-0.1-1.3c0.5-0.5,0.8-0.3,1.1,0.1c1.5,1.5,3,3,4.6,4.5c0.7,0.6,0.4,0.9-0.1,1.4
			c-1.4,1.4-2.8,2.9-4.2,4.3c-0.6,0.6-1,0.6-1.6,0c-1.9-1.9-3.8-3.8-5.8-5.6c-0.5-0.4-0.7-0.8-0.2-1.3c0.5-0.5,0.8-0.3,1.2,0.1
			c0.8,1,1.4,0.7,2-0.2c0.2-0.3,0.4-0.7,0.9-0.4C100.4,22.7,100.7,22.9,101,23.1z"/>
		<path class="st6" d="M63.1,117.5c0-0.9,0-1.7,0-2.6c0-0.9-0.6-2.2,0.4-2.5c1.4-0.4,3.1-0.7,4.4,0.6c0.9,0.9,1,2.1,0.1,3.1
			c-0.5,0.6-0.2,0.8,0.2,1.2c1.3,1.4,1.4,3.1,0.4,4.3c-0.8,1-3.9,1.7-4.9,1.1c-0.5-0.3-0.4-0.8-0.4-1.2c0-1.3,0-2.7,0-4
			C63.2,117.5,63.1,117.5,63.1,117.5z M64.5,119.5c0.4,0.7-0.6,2.2,1.3,2.1c1.3-0.1,2.1-0.7,2-2.2c-0.1-1.4-0.8-1.8-2.1-1.9
			C64,117.5,64.7,118.7,64.5,119.5z M64.5,114.8c0.2,0.5-0.5,1.7,1,1.6c1-0.1,1.7-0.5,1.6-1.6c0-1-0.7-1.3-1.6-1.3
			C64.5,113.5,64.3,113.9,64.5,114.8z"/>
		<path class="st5" d="M20.2,87.7c2.2,0,3.8,1.5,3.8,3.6c0,2.5-3.8,5.5-6.8,5.5c-2,0-3.6-1.5-3.6-3.5C13.5,90.8,17,87.8,20.2,87.7z
			 M17.2,95.4c2-0.3,3.8-1.2,5-3c0.6-0.8,0.4-1.7-0.1-2.4c-0.5-0.7-1.2-1-2.1-0.8c-1.9,0.4-3.5,1.4-4.6,3c-0.4,0.6-0.7,1.3-0.3,2.1
			C15.5,95,16.2,95.5,17.2,95.4z"/>
		<path class="st4" d="M7.2,80.2c2.1-1.7,4.2-3.5,6.3-5.2c-0.2-0.2-0.3-0.4-0.5-0.6c-1.9,0.4-3.8,0.9-5.7,1.3
			c-0.4,0.1-0.8,0.1-0.9-0.4c-0.1-0.5,0.1-0.8,0.5-0.9c3.2-0.7,6.3-1.5,9.8-1.8c-1.7,1.9-3.5,3.8-5.4,5.9c2.1,0.1,3.8-0.7,5.5-1
			c0.5-0.1,0.9-0.2,1.1,0.4c0.2,0.7-0.3,0.8-0.7,0.9c-3.1,0.7-6.2,1.5-9.4,2.2C7.6,80.6,7.4,80.4,7.2,80.2z"/>
		<path class="st3" d="M120.5,82.1c-0.1,1.5-1.3,1.2-2.2,1.5c-1.2,0.3-3.2-0.4-3.4,1.2c-0.1,1.1,1.9,1,2.9,1.6
			c0.5,0.3,1.1,0.3,0.8,1.1c-0.3,0.8-0.8,0.4-1.3,0.2c-2.4-1-4.8-2-7.3-2.8c-1.4-0.5-1.5-1.1-1-2.3c0.6-1.3,1.1-2.7,2.7-2.9
			c1.6-0.1,2.9,0.6,3.4,2.2c0.3,0.9,0.9,0.5,1.5,0.5C117.9,82.5,119.1,81.7,120.5,82.1z M112.2,81.2c-1.2,0.1-1.9,1-1.8,1.9
			c0.1,1.1,1.5,1.1,2.4,1.4c1.1,0.3,1-0.8,1.1-1.4C114,81.7,113.1,81.4,112.2,81.2z"/>
		<path class="st6" d="M61.6,116.4c-0.2,1.5-0.4,3.2-1.4,4.6c-0.8,1.2-2,1.7-3.5,1.5c-1.4-0.1-2.3-1-2.8-2.2c-0.6-1.7-0.6-3.4,0-5.1
			c0.8-2.5,2.3-3.7,4.3-3.4C60.3,112,61.6,113.7,61.6,116.4z M60.1,116.5c0-1.6-0.1-3.1-2.1-3.4c-1.4-0.3-2.5,0.9-2.9,2.9
			c-0.2,1.2-0.3,2.4,0.1,3.6c0.3,0.8,0.7,1.4,1.6,1.6c0.9,0.1,1.6-0.2,2.1-0.9C59.9,119.1,60.1,117.8,60.1,116.5z"/>
		<path class="st5" d="M92.9,103c2.5,0.7,5,1.5,7.5,2.2c0.1-0.1,0.1-0.2,0.2-0.3c-1.1-1.4-2.3-2.8-3.4-4.2c-0.3-0.4-0.5-0.8,0-1.2
			c0.4-0.3,0.7-0.1,1,0.3c2.1,2.5,4.1,5,6,7.9c-2.6-0.8-5.1-1.6-7.7-2.4c-0.1,0.1-0.2,0.2-0.2,0.3c1.1,1.4,2.3,2.7,3.4,4.1
			c0.3,0.4,0.9,0.7,0.3,1.3c-0.7,0.6-1,0-1.3-0.4c-2-2.4-4-4.8-6-7.2C92.7,103.2,92.8,103.1,92.9,103z"/>
		<path class="st3" d="M26.2,93.8c-0.7,2.3-1.3,4.7-2,7.2c1.9-0.2,2.6-1.9,3.9-2.6c0.5-0.3,0.8-1.4,1.6-0.5c0.7,0.8-0.3,1.1-0.7,1.5
			c-2.2,2-4.5,4-7.1,6.3c0.4-3.2,1.6-5.7,2.3-8.9c-1.8,1.6-3.2,2.8-4.7,4.1c-0.3,0.3-0.6,0.8-1.1,0.2c-0.5-0.5-0.2-0.8,0.2-1.2
			c2.4-2.1,4.8-4.2,7.2-6.3C25.9,93.6,26,93.7,26.2,93.8z"/>
		<path class="st6" d="M13.3,88.4c-2.1,0-4.3-2-4.5-4.1c-0.1-0.7,0.4-0.8,0.8-1c2.6-1.1,5.2-2.1,7.8-3.2c0.8-0.3,1.1-0.2,1.6,0.6
			C21,84.5,18.3,88.4,13.3,88.4z M13.3,86.9c1.8-0.1,3.4-0.7,4.6-2.1c0.7-0.9,0.5-2-0.1-2.8c-0.6-0.8-1.2,0-1.8,0.2
			c-1.5,0.5-2.8,1.3-4.3,1.7c-1.7,0.5-1.3,1.3-0.5,2.3C11.9,86.7,12.6,87,13.3,86.9z"/>
		<path class="st3" d="M25.7,106.8c0-2.7,2.7-5.7,5.3-6.1c1.8-0.3,4,0.9,4.5,2.4c0.2,0.5,0.2,0.9-0.4,1.2c-0.5,0.2-0.6,0-0.9-0.4
			c-1.4-1.8-2.6-2.2-4.2-1.2c-2,1.2-3.3,3.8-2.5,5.4c0.5,0.9,1.3,1.9,2.3,1.3c0.6-0.3,2-0.9,0.9-2.2c-0.3-0.3-0.1-0.6,0.1-0.9
			c0.4-0.5,0.8-0.2,1,0.1c0.4,0.4,1.3,0.6,1.2,1.5c-0.1,0.9-2.8,3.3-3.5,3.3C27.5,110.9,25.7,108.9,25.7,106.8z"/>
		<path class="st5" d="M12.5,63.5c-2.1-0.2-4.1-0.3-6.2-0.5c-0.5,0-1.2,0.1-1.1-0.8c0.1-0.8,0.8-0.6,1.3-0.6c0.8,0,1.6,0,2.4,0.2
			c1.1,0.2,1.5-0.2,1.6-1.3c0.2-2.6,0.3-2.6-2.5-2.8c-0.8-0.1-2.4,0.5-2.3-0.8c0.1-1.5,1.6-0.5,2.5-0.5c2.3,0.1,4.5,0.3,6.8,0.5
			c0.5,0,1.2-0.2,1.2,0.7c0,0.8-0.7,0.6-1.2,0.6c-0.2,0-0.4,0-0.6,0c-2.4-0.1-3.1,0.7-2.8,3.1c0.1,0.6,0.4,0.8,0.9,0.8
			c0.7,0,1.5,0.1,2.2,0.1c0.6,0,1.1,0.1,1,0.9c-0.1,0.7-0.6,0.6-1.1,0.5C14,63.5,13.2,63.5,12.5,63.5C12.5,63.4,12.5,63.4,12.5,63.5
			z"/>
		<path class="st5" d="M37.8,114.1c0-4.1,3.6-7.3,6.8-6.2c0.8,0.3,1.5,0.7,1.9,1.4c0.3,0.4,0.1,0.7-0.2,1.1c-0.4,0.4-0.6,0.1-1-0.2
			c-1.9-1.5-3-1.5-4.4-0.2c-1.6,1.6-2.2,4.3-1.2,5.7c0.6,0.9,1.6,1.6,2.6,1c0.7-0.5,1.8-1.4,0.5-2.5c-0.3-0.3-0.3-0.6,0-0.9
			c0.5-0.6,1,0,1.4,0.2c0.4,0.2,1.1,0.2,1,1c-0.3,1.9-2,4-3.3,3.9C39.5,118.2,37.8,116.5,37.8,114.1z"/>
		<path class="st5" d="M95.8,111.7c0,2.1-0.9,3.1-2.3,3.6c-1.4,0.5-2.7,0.3-3.6-1c-1.3-2-2.5-4.1-3.7-6.2c-0.3-0.5-0.3-0.8,0.3-1.1
			c0.7-0.4,0.8,0.2,1,0.6c0.9,1.6,1.9,3.1,2.7,4.7c0.7,1.3,1.6,2.4,3.1,1.6c1.7-0.9,1-2.2,0.3-3.4c-1-1.6-1.9-3.2-2.8-4.9
			c-0.2-0.3-0.5-0.7,0-1c0.3-0.2,0.7-0.4,0.9,0C93.2,106.9,95,109.3,95.8,111.7z"/>
		<path class="st3" d="M108.2,85.3c0.6,0.3,1,0.6,0.6,1.3c-0.4,0.6-0.6,1.2-1,1.7c-0.6,0.8-0.5,1.3,0.5,1.9c0.9,0.5,1.6,0.7,2-0.5
			c0.1-0.2,0.2-0.3,0.3-0.5c0.2-0.4,0.5-0.9,1.1-0.6c0.8,0.4,0.4,0.9,0,1.3c-1.5,1.7,0.1,2.1,1.2,2.9c1.5,1.1,1.5-0.5,2.1-1.1
			c0.6-0.6,0.5-2.3,1.7-1.5c1.1,0.6-0.2,1.5-0.5,2.1c-1.6,3-1.7,3-4.7,1.3c-1.7-1-3.4-2-5.1-2.9c-1-0.5-1.1-1-0.5-1.8
			c0.6-0.9,1.1-1.9,1.6-2.8C107.6,85.7,107.8,85.3,108.2,85.3z"/>
		<path class="st6" d="M85.8,19.5c0.5-0.9-0.3-1-0.8-1.3c-1.8-0.8-3.6-1.6-5.3-2.4c-0.5-0.2-1.3-0.3-0.8-1.2c0.4-0.9,1-0.4,1.5-0.1
			c1.7,0.8,3.4,1.5,5.1,2.3c0.9,0.4,1.4,0.5,1.8-0.6c0.4-1.1,1.1-2,1.4-3.1c0.5-2.1,1.7-1.5,2.9-0.9c0.3,0.2,0.8,0.3,0.5,0.9
			c-0.2,0.4-0.4,0.8-0.8,0.6c-1.2-0.6-1.3,0.4-1.6,1.1c-0.8,1.7-1.6,3.4-2.3,5.1c-0.2,0.5-0.4,1-1.2,0.7
			C85.5,20.3,85.5,20,85.8,19.5z"/>
		<path class="st3" d="M16.1,68.3c-3.1,1.3-6.1,2.6-9.2,3.9c-0.3,0.1-0.8,0.5-1-0.1c-0.2-0.5-0.1-0.8,0.4-1.2
			c2.2-1.7,2.1-2.8-0.5-4.4c-0.5-0.3-0.7-0.7-0.5-1.2C5.3,64.9,5.7,65,6,65.1c3.4,0.9,6.7,1.8,10.1,2.7C16.1,68,16.1,68.1,16.1,68.3
			z M12.7,68.1c-1.1-0.2-2-0.5-2.8-0.6c-0.4-0.1-0.9-0.4-1.1,0.1c-0.2,0.5-0.1,1.2,0.1,1.8c0.2,0.6,0.8,0.2,1.2,0
			C10.9,69,11.9,68.9,12.7,68.1z"/>
		<path class="st5" d="M73.2,111.5c1.6,3,3.2,6,4.9,8.9c0.2,0.4,0.4,0.7-0.2,0.9c-0.5,0.2-1,0.2-1.2-0.4c-0.4-1.2-1.1-1.5-2.3-1.2
			c-1.1,0.3-2.1,0.4-2,1.9c0,0.6-0.4,1-1.1,0.9c-0.7-0.2-0.4-0.8-0.3-1.2c0.5-3.2,1.1-6.5,1.7-9.7C72.8,111.5,73,111.5,73.2,111.5z
			 M73.6,114.7c-0.5,1-0.6,1.9-0.6,2.7c0,0.4-0.4,1.1,0.2,1.2c0.5,0.1,1.2,0,1.7-0.3c0.5-0.3,0-0.8-0.2-1.2
			C74.4,116.4,74,115.6,73.6,114.7z"/>
		<path class="st5" d="M108.2,97.2c-1.1-1.6-2.2-3.1-3.3-4.6c-0.4-0.6-0.9-1.1-0.2-1.7c0.9-0.7,0.9,0.4,1.2,0.8
			c1.7,2.3,3.3,4.7,5,7.1c0.2,0.3,0.8,0.7,0.3,1.2c-0.3,0.4-0.7,0-1.1-0.1c-2.8-1-5.7-2-8.5-3c-0.3-0.1-1.1-0.1-0.8-0.8
			c0.3-0.7,0.7-0.8,1.5-0.5c1.3,0.6,2.7,0.9,4,1.5C106.7,97.3,107.3,97.5,108.2,97.2z"/>
		<path class="st2" d="M22.8,23.3c0-0.9-1.1-1.4-0.6-1.6c1.3-0.6,2.8-0.8,4.2-1.1c0,0,0.1,0.1,0.1,0.1c-0.5,1.8,1.5,2.2,1.8,3.5
			c0.3,1.3-0.2,2.3-1.3,2.9c-1.3,0.7-2.3,0.3-3.2-0.8c-0.4-0.5-0.3-1.5-1.5-0.8c-0.4,0.2-1.3-0.5-0.5-1.3
			C22.1,23.7,22.6,23.4,22.8,23.3z M25.9,25.8c0.6-0.1,1-0.4,1-1c0-0.7-0.4-1.1-1.2-1c-0.6,0.1-0.9,0.5-0.9,1.1
			C24.9,25.5,25.3,25.8,25.9,25.8z"/>
		<path class="st2" d="M81.2,12.3c0.1-0.8,0.3-1.4,0.8-1.8c1-0.7-1.1-1.4,0-2.1c0.9-0.6,1.5,0.7,2.4,0.4C84.7,8.7,84.7,8.2,85,8
			c0.7-0.5,1.4,0.1,1.3,0.5c-0.6,1.5,0.5,1.5,1.2,1.9c0.8,0.5,0.4,1.4,0.1,1.3c-1.5-0.3-1.1,1-1.5,1.6c-0.6,1.1-1.5,1.7-2.8,1.5
			C82,14.6,81.3,13.6,81.2,12.3z M84.8,12.5c0-0.6-0.2-1.1-0.8-1.2c-0.6-0.1-1,0.3-1.2,0.8c-0.2,0.6,0.2,1,0.8,1.2
			C84.2,13.4,84.6,13.1,84.8,12.5z"/>
		<path class="st3" d="M121.9,77.7c-0.1,0.3-0.2,0.9-0.4,1.3c-0.3,0.5-0.4,1.4-1.3,1.1c-1.1-0.5-0.3-1,0-1.5
			c0.4-0.8,0.6-1.7-0.3-2.3c-0.9-0.6-1.7-0.4-2.4,0.3c-0.5,0.5-0.9,1-1.4,1.4c-1.3,1.1-2.8,1-4.1-0.1c-1.3-1.1-1-2.5-0.3-3.8
			c0.2-0.4,0.5-0.8,1.1-0.5c0.5,0.3,0.6,0.6,0.2,1.1c-0.5,0.8-0.9,1.7,0.1,2.3c1,0.7,1.9,0.2,2.6-0.7c0.9-1.2,2-1.9,3.6-1.7
			C121,74.9,121.8,75.9,121.9,77.7z"/>
		<path class="st4" d="M49.3,109.9c0.9,0.1,0.8,0.8,0.6,1.4c-0.6,2.1-1.1,4.1-1.8,6.2c-0.4,1.3-0.1,1.9,1.2,2c0.3,0,0.7,0.1,1,0.2
			c0.5,0.3,1.6,0,1.3,1.1c-0.3,1-1.1,0.4-1.7,0.2c-3.9-1-3.9-1-2.8-4.9c0.5-1.7,1-3.5,1.5-5.2C48.6,110.5,48.6,109.9,49.3,109.9z"/>
		<path class="st4" d="M85.5,118.5c0,0.1,0.1,0.2,0,0.2c-1.3,1.1-3,1.3-4.5,1.8c-1,0.4-0.9-0.6-1.1-1.2c-0.8-2.5-1.6-5.1-2.5-7.6
			c-0.2-0.6-0.4-1,0.4-1.2c0.7-0.2,0.8,0.3,0.9,0.8c0.7,2,1.4,4,2,6.1c0.4,1.5,1,1.8,2.3,1.1c0.5-0.2,1-0.3,1.5-0.5
			C85.1,117.6,85.3,118,85.5,118.5z"/>
		<path class="st6" d="M35.2,23.8c-0.3,0.3-0.5,0.6-0.7,0.8c-2,1.9-4,3.9-6.1,5.8c-0.4,0.3-0.7,1-1.3,0.3c-0.5-0.6-1.5-1-1.4-2
			c0-0.3,0.6-0.9,0.9-0.6c1.7,1.6,2.3-0.4,3.1-1.1c1.4-1.1,2.5-2.4,3.8-3.6c0.3-0.3,0.6-0.6,1-0.4C34.8,23.2,35,23.5,35.2,23.8z"/>
		<path class="st4" d="M113.3,70.3c3,0.4,5.8,0.8,8.7,1.2c0.5,0.1,0.9,0.3,0.8,0.9c-0.1,0.5-0.4,0.6-0.9,0.5
			c-2.9-0.4-5.7-0.8-8.6-1.2c-0.5-0.1-1.2-0.1-1-0.9C112.4,70.1,113,70.3,113.3,70.3z"/>
		<path class="st4" d="M99.7,97c0.3,0.3,0.7,0.5,0.9,0.8c2,1.9,4,3.8,5.9,5.7c0.3,0.3,1.1,0.6,0.4,1.3c-0.7,0.7-1.1,0.1-1.5-0.3
			c-2-1.9-4-3.8-5.9-5.7c-0.3-0.3-0.9-0.5-0.5-1.1C99.2,97.4,99.4,97.3,99.7,97z"/>
		<path class="st7" d="M16.9,41.5c-0.1,1.3-0.8,2.1-2,2.1c-1.3,0-2.1-0.7-2.1-2.1c0-1.3,0.8-2,2.1-2C16.1,39.5,16.8,40.2,16.9,41.5z
			"/>
		<path class="st7" d="M115.5,41.4c-0.1,1.3-0.7,2.1-2,2.1c-1.3,0-2.2-0.7-2.1-2.1c0-1.3,0.8-2,2.1-2
			C114.8,39.5,115.4,40.2,115.5,41.4z"/>
		<path class="st2" d="M32,21.9c-0.2,0.3-0.4,0.6-0.7,0.8c-0.3,0.3-0.6,0.2-0.8-0.1c-1-1-1.9-2.1-2.9-3.1c-0.7-0.7,0-1.1,0.4-1.4
			c0.5-0.4,0.8-1.5,1.7-0.9c0.7,0.4,0.4,0.9,0,1.5c-0.6,0.7,0.4,1,0.7,1.4C30.8,20.7,31.4,21.3,32,21.9z"/>
		<path class="st8" d="M61.3,78.7c0,3.6-0.1,7,0,10.4c0,1.1,0.5,2.3,2,2.4c0.4,0,0.7,0.1,0.7,0.6c0,0.6-0.5,0.5-0.9,0.5
			c-2.8,0-5.7,0-8.5,0c-0.4,0-0.9,0.1-1-0.5c-0.1-0.6,0.3-0.6,0.8-0.6c1.3-0.2,1.6-1.2,1.7-2.2c0.6-5,0.2-10.1,0.2-15.1
			c0-0.6-0.5-1.2-0.7-1.8c-4.7-10.9-4.9-21.9,0-32.8c1.8-4.1,4.8-7.2,9.8-7.2c1.8,0,3.2,0.7,4.6,1.7c1.9,1.5,2.2,1.4,3.2-0.8
			c0.1-0.3,0.2-0.7,0.8-0.8c0,5,0,10,0,15.4c-1.2-1.7-1.3-3.2-1.7-4.7c-0.7-2.3-1.6-4.4-3-6.3c-2.3-3-5.2-2.9-7.1,0.5
			c-1.2,2.3-1.8,4.8-2,7.3c-0.8,8.9-1,17.7,1.1,26.5c0.4,1.7,1.1,3.4,2.5,4.5c1.8,1.5,3.7,1,4.3-1.2c0.3-1.1,0.4-2.3,0.5-3.4
			c0-4.4,0-8.9-0.1-13.3c0-2-0.4-3.8-3-3.9c-0.3,0-0.5-0.1-0.6-0.4c0-0.4,0.3-0.6,0.6-0.6c0.2,0,0.4,0,0.6,0c4.1,0,8.2,0,12.3,0
			c0.5,0,1.3-0.1,1.3,0.6c0,0.8-0.8,0.5-1.2,0.5c-1.7,0.1-2.6,1-2.7,2.7c-0.1,3.1-0.2,6.2-0.2,9.3c0,5.9,0.1,11.7,0.2,17.6
			c0,0.9,0.2,1.9,0.4,2.8c0.6,2.4,2.6,4.2,4.7,4.3c2.3,0.2,4.3-1,5.4-3.4c1.5-3.1,1.7-6.5,1.7-9.9c0.1-5.9,0-11.7,0-17.6
			c0-0.7-0.1-1.5-0.2-2.2c-0.3-1.9-0.9-3.4-3.1-3.6c-0.4,0-0.9-0.1-0.8-0.7c0.1-0.4,0.5-0.5,0.8-0.5c3,0,6.1,0,9.1,0
			c0.4,0,0.7,0.2,0.7,0.5c0.1,0.5-0.3,0.5-0.6,0.6c-2.5,0.7-3.2,1.7-3.3,4.5c0,6.1,0,12.3-0.1,18.4c0,2.9-0.1,5.8-0.8,8.6
			c-1.4,5.6-5.3,8.6-10.7,8.4c-5.4-0.2-9.2-3.6-10.1-9.2c-0.3-1.5-0.3-3.1-0.4-4.6c0-0.7,0-1.3-1-0.9C65.5,79.6,63.5,79.5,61.3,78.7
			z M88.5,79.4c0.1,0,0.1,0,0.2,0c0-7.1,0-14.3,0-21.4c-0.1,0-0.1,0-0.2,0C88.5,65.1,88.5,72.2,88.5,79.4z"/>
		<path class="st9" d="M42.8,92.6c-2.1,0-4.2,0-6.3,0c-0.4,0-1.1,0.1-1-0.6c0-0.6,0.6-0.4,0.9-0.5c2.2-0.3,3-1.2,3-3.4
			c0-10.3,0-20.6,0-30.9c0-2.3-0.8-3.1-3-3.4c-0.4-0.1-0.9,0.2-0.9-0.4c0-0.7,0.6-0.6,1-0.6c4.2,0,8.5,0,12.7,0c0.5,0,1.1,0,1.1,0.6
			c0,0.7-0.7,0.5-1.1,0.5c-1.6,0.1-2.5,0.9-2.7,2.5c-0.1,0.9-0.2,1.9-0.2,2.8c0,9,0,18,0,27.1c0,2.5-0.3,5.4,3.6,5.5
			c0.3,0,0.5,0.3,0.4,0.6c-0.1,0.5-0.6,0.5-1,0.5C47.1,92.6,45,92.6,42.8,92.6z"/>
		<path class="st8" d="M53.8,71.6c-0.2,1.4-1,2.4-2.6,2.4c-1.6,0-2.5-0.8-2.6-2.4c-0.1-1.5,1.2-2.8,2.6-2.7
			C52.7,69.1,53.7,69.9,53.8,71.6z"/>
		<path class="st10" d="M47.4,17.8c-0.1,0.9-0.6,1.4-1.4,1.4c-0.7,0-1.3-0.4-1.3-1.2c0-0.9,0.4-1.4,1.3-1.5
			C46.8,16.4,47.2,17,47.4,17.8z"/>
		<path class="st11" d="M64.5,119.5c0.2-0.8-0.5-2.1,1.2-2c1.3,0.1,2,0.5,2.1,1.9c0.1,1.4-0.7,2.1-2,2.2
			C63.9,121.7,64.9,120.2,64.5,119.5z"/>
		<path class="st0" d="M64.5,114.8c-0.2-0.9,0-1.4,1-1.4c0.9,0,1.6,0.3,1.6,1.3c0,1.1-0.6,1.5-1.6,1.6
			C64,116.5,64.7,115.3,64.5,114.8z"/>
		<path class="st12" d="M17.2,95.4c-1,0.1-1.7-0.5-2.1-1.3c-0.5-0.8-0.1-1.4,0.3-2.1c1.1-1.6,2.7-2.6,4.6-3c0.9-0.2,1.6,0.1,2.1,0.8
			c0.6,0.8,0.7,1.6,0.1,2.4C21,94.2,19.2,95.1,17.2,95.4z"/>
		<path class="st12" d="M112.2,81.2c1,0.2,1.8,0.6,1.7,1.8c-0.1,0.7,0,1.7-1.1,1.4c-0.9-0.2-2.2-0.3-2.4-1.4
			C110.3,82.2,110.9,81.2,112.2,81.2z"/>
		<path class="st12" d="M60.1,116.5c-0.1,1.3-0.3,2.6-1.1,3.7c-0.5,0.7-1.2,1.1-2.1,0.9c-0.9-0.1-1.4-0.8-1.6-1.6
			c-0.4-1.2-0.3-2.4-0.1-3.6c0.4-2,1.4-3.2,2.9-2.9C60,113.5,60.1,114.9,60.1,116.5z"/>
		<path class="st12" d="M13.3,86.9c-0.8,0-1.5-0.2-2-0.8c-0.9-0.9-1.2-1.7,0.5-2.3c1.5-0.5,2.8-1.2,4.3-1.7c0.5-0.2,1.2-1,1.8-0.2
			c0.6,0.9,0.8,1.9,0.1,2.8C16.8,86.3,15.1,86.8,13.3,86.9z"/>
		<path class="st10" d="M12.7,68.1c-0.8,0.8-1.8,0.9-2.6,1.3c-0.4,0.2-1,0.6-1.2,0c-0.2-0.5-0.2-1.2-0.1-1.8
			c0.1-0.5,0.7-0.2,1.1-0.1C10.8,67.6,11.7,67.9,12.7,68.1z"/>
		<path class="st10" d="M73.6,114.7c0.4,0.9,0.9,1.6,1.2,2.4c0.2,0.4,0.7,0.9,0.2,1.2c-0.5,0.3-1.2,0.4-1.7,0.3
			c-0.6-0.1-0.2-0.8-0.2-1.2C73,116.6,73,115.7,73.6,114.7z"/>
		<path class="st11" d="M25.9,25.8c-0.6,0-1-0.3-1.1-0.9c-0.1-0.6,0.3-1,0.9-1.1c0.7-0.1,1.1,0.3,1.2,1
			C26.9,25.4,26.5,25.7,25.9,25.8z"/>
		<path class="st11" d="M84.8,12.5c-0.2,0.6-0.6,0.9-1.2,0.8c-0.6-0.1-1-0.5-0.8-1.2c0.1-0.6,0.6-1,1.2-0.8
			C84.6,11.4,84.8,11.9,84.8,12.5z"/>
		<ellipse class="st13" cx="88.6" cy="68.7" rx="0.1" ry="15.1"/>
	</g>
</g>
</svg>
