<?xml version="1.0" encoding="utf-8"?>
<!-- Generator: Adobe Illustrator 24.0.3, SVG Export Plug-In . SVG Version: 6.00 Build 0)  -->
<svg version="1.1" id="Layer_1" xmlns="http://www.w3.org/2000/svg" xmlns:xlink="http://www.w3.org/1999/xlink" x="0px" y="0px"
	 viewBox="0 0 652 652" style="enable-background:new 0 0 652 652;" xml:space="preserve">
<style type="text/css">
	.st0{fill:#003399;}
</style>
<g id="Layer_2_1_">
	<g>
		<g>
			<polygon class="st0" points="267.3,271.1 295.8,271.1 318.5,328 342.3,271.1 370.8,271.1 388,377.5 359.1,377.5 350.9,316.3 
				350.5,316.3 323.9,377.5 312.2,377.5 286.9,316.3 286.5,316.3 277.5,377.5 248.6,377.5 			"/>
			<polygon class="st0" points="482.9,377.5 513.7,377.5 471.5,271.1 439.9,271.1 397.4,377.5 428.2,377.5 455.5,303.8 455.9,303.8 
							"/>
			<polygon class="st0" points="84.2,271.1 84.2,311.6 42.8,311.6 42.8,271.1 13.9,271.1 13.9,377.5 42.8,377.5 42.8,333.8 
				84.2,333.8 84.2,377.5 113.5,377.5 113.5,271.1 			"/>
			<path class="st0" d="M233,342.8c0.4-2,0-71.8,0-71.8l0,0c-28.5,0-28.5,0-28.5,0c0,60.8,0,60.8,0,60.8c0,0.4,0,0.4,0,0.4
				c0,13.6-1.2,25.7-19.5,25.7c-18.7,0-19.9-12.1-19.9-25.7c0-61.2,0-61.2,0-61.2l0,0c-28.9,0-28.9,0-28.9,0c0,72.5,0,72.5,0,72.5
				l0,0c0.4,10.1,3.1,18.7,11.7,26.9c9.4,8.6,24.2,11.7,37.1,11.7s27.3-3.1,36.7-11.7c9-8.2,10.9-16.8,11.3-26.9l0,0V342.8z"/>
			<path class="st0" d="M637.5,270.3c-37.5,0-37.5,0-37.5,0c-21.5,28.5-21.5,28.5-21.5,28.5c0-0.4,0-0.4,0-0.4
				c-0.4,0.4-0.8,0.8-1.2,1.2c-21.1-29.2-21.1-29.2-21.1-29.2c-35.1,0-35.1,0-35.1,0c38.3,49.9,38.3,49.9,38.3,49.9l0,0
				c0.8,0.8,0.8,0.8,0.8,0.8c-0.4,0.8-1.2,1.6-1.6,2.3C543,344,530.1,363.9,520,380.6l0,0l-0.4,0.4c0,0.4,0.4,0.8,1.2,0.8
				c0,0,0.4-0.4,0.8-0.4l0,0c14.1-16,29.3-33.1,44.5-52.6c1.2,1.6,1.2,1.6,1.2,1.6c-13.3,17.9-24.6,35.5-33.6,50.3l0,0v0.4
				c0,0.4,0,0.8,0.8,0.8c0.4,0,0.8-0.4,0.8-0.4l0,0c11.7-13.6,24.6-28.1,37.5-43.7c1.2,1.6,1.2,1.6,1.2,1.6
				c-10.1,14.4-19.1,28.5-26.5,40.6l0,0v0.4c0,0.4,0.4,0.8,0.8,0.8c0.4,0,0.8-0.4,0.8-0.4l0,0c9.8-10.9,19.5-22.2,29.7-34.3
				c21.9,31.6,21.9,31.6,21.9,31.6c35.9,0,35.9,0,35.9,0C596,324.7,596,324.7,596,324.7L637.5,270.3z"/>
		</g>
	</g>
</g>
</svg>
