<?xml version="1.0" encoding="utf-8"?>
<!-- Generator: Adobe Illustrator 24.0.3, SVG Export Plug-In . SVG Version: 6.00 Build 0)  -->
<svg version="1.1" id="Layer_1" xmlns="http://www.w3.org/2000/svg" xmlns:xlink="http://www.w3.org/1999/xlink" x="0px" y="0px"
	 viewBox="0 0 800 800" style="enable-background:new 0 0 800 800;" xml:space="preserve">
<style type="text/css">
	.st0{fill:#5D87A1;}
</style>
<path class="st0" d="M702.5,592.8c-39.1-1-69.4,2.9-94.8,13.7c-7.3,2.9-19,2.9-20,12.2c4,3.9,4.4,10.3,7.9,15.7
	c5.9,9.8,16.1,22.9,25.4,29.8c10.2,7.8,20.5,15.6,31.3,22.5c19,11.8,40.5,18.6,59.1,30.3c10.8,6.8,21.5,15.6,32.3,23
	c5.3,3.9,8.7,10.3,15.6,12.7v-1.5c-3.5-4.4-4.4-10.8-7.8-15.6l-14.7-14.2c-14.2-19-31.8-35.7-50.8-49.3
	c-15.6-10.8-49.9-25.4-56.2-43.4l-1-1c10.8-1,23.5-4.9,33.7-7.9c16.6-4.4,31.8-3.4,48.8-7.8c7.8-2,15.6-4.4,23.5-6.8v-4.4
	c-8.8-8.8-15.1-20.5-24.4-28.8c-24.9-21.5-52.3-42.5-80.6-60.1c-15.2-9.8-34.7-16.1-50.8-24.4c-5.8-2.9-15.6-4.4-19.1-9.3
	c-8.8-10.8-13.7-24.9-20-37.6c-14.1-26.9-27.8-56.6-40-85c-8.8-19-14.2-38.1-24.9-55.7c-50.4-83-105-133.4-189.1-182.7
	c-18.1-10.3-39.5-14.7-62.5-20L186.6,95c-7.8-3.4-15.7-12.7-22.5-17.1c-27.9-17.6-99.7-55.7-120.2-5.4
	c-13.2,31.8,19.5,63.1,30.8,79.2c8.3,11.2,19.1,23.9,24.9,36.6c3.4,8.3,4.4,17.1,7.8,25.9c7.8,21.5,15.1,45.4,25.4,65.5
	c5.4,10.2,11.2,21,18.1,30.2c3.9,5.4,10.8,7.8,12.2,16.6c-6.8,9.7-7.4,24.4-11.3,36.6c-17.6,55.2-10.7,123.6,14.2,164.2
	c7.8,12.2,26.4,39.1,51.3,28.8c22-8.8,17.1-36.6,23.5-61.1c1.5-5.9,0.5-9.8,3.4-13.6v1c6.8,13.7,13.7,26.8,20,40.5
	c15.2,23.9,41.6,48.8,63.5,65.4c11.7,8.8,21,24,35.6,29.4v-1.5h-1c-3-4.4-7.3-6.3-11.2-9.7c-8.8-8.8-18.6-19.6-25.4-29.3
	c-20.5-27.4-38.6-57.7-54.7-88.9c-7.9-15.2-14.7-31.8-21-46.9c-3-5.8-3-14.7-7.9-17.6c-7.4,10.7-18.1,20-23.4,33.2
	c-9.3,21-10.3,46.9-13.7,73.8l-1.9,0.9c-15.6-3.9-21-20-26.9-33.7c-14.6-34.7-17.1-90.4-4.4-130.5c3.4-10.2,18.1-42.5,12.2-52.2
	c-2.9-9.4-12.7-14.7-18.1-22c-6.3-9.3-13.2-21-17.6-31.3c-11.7-27.3-17.6-57.7-30.2-85c-5.9-12.7-16.1-25.9-24.4-37.7
	c-9.3-13.2-19.6-22.5-26.9-38.1c-2.4-5.4-5.8-14.2-1.9-20c1-3.9,2.9-5.4,6.8-6.4c6.3-5.3,24.4,1.5,30.8,4.4
	c18.1,7.3,33.3,14.2,48.4,24.4c6.8,4.9,14.2,14.2,23,16.6h10.3c15.6,3.4,33.2,0.9,47.9,5.4c25.9,8.3,49.3,20.5,70.4,33.7
	c64,40.6,116.8,98.2,152.4,167.1c5.8,11.2,8.3,21.5,13.7,33.2c10.3,24,23,48.4,33.2,71.8c10.3,23,20,46.4,34.7,65.5
	c7.3,10.3,36.7,15.6,49.9,21c9.7,4.4,24.9,8.3,33.7,13.7c16.6,10.2,33.2,22,48.8,33.3C676.6,570.8,701,583,702.5,592.8 M204.1,168.2
	c-6.7-0.1-13.5,0.8-20,2.5v1h0.9c3.9,7.8,10.8,13.2,15.7,20c3.9,7.8,7.4,15.6,11.2,23.4l0.9-1c6.9-4.9,10.3-12.7,10.3-24.4
	c-3-3.5-3.4-6.8-5.9-10.3C214.4,174.6,208,172.2,204.1,168.2"/>
</svg>
