<?xml version="1.0" encoding="utf-8"?>
<!-- Generator: Adobe Illustrator 24.0.3, SVG Export Plug-In . SVG Version: 6.00 Build 0)  -->
<svg version="1.1" id="Capa_1" xmlns="http://www.w3.org/2000/svg" xmlns:xlink="http://www.w3.org/1999/xlink" x="0px" y="0px"
	 viewBox="0 0 512 512" style="enable-background:new 0 0 512 512;" xml:space="preserve">
<path d="M460.9,268.5c4.5-6.7,7.2-14.8,7.2-23.5v-8c0-23.2-18.9-42.1-42.1-42.1c-11.6,0-22.1,4.7-29.7,12.3
	c-19.7-58.6-75.2-100.9-140.3-100.9s-120.6,42.3-140.3,100.9c-7.6-7.6-18.1-12.3-29.7-12.3c-23.2,0-42.1,18.9-42.1,42.1v8
	c0,8.7,2.6,16.8,7.2,23.5C22,274.6,0,300.5,0,331.5v20.1c0,5.5,4.5,10,10,10h52c5.5,0,10-4.5,10-10s-4.5-10-10-10H20v-10.1
	c0-24.5,19.9-44.3,44.3-44.3h47.3c3.8,16.9,10.6,32.7,19.6,46.8l-114,114c-14.6,14.6-14.6,38.4,0,53c7.3,7.3,16.9,11,26.5,11
	s19.2-3.7,26.5-11l62.9-62.9c3.9-3.9,3.9-10.2,0-14.1s-10.2-3.9-14.1,0l-62.9,62.9c-6.8,6.8-17.9,6.8-24.7,0s-6.8-17.9,0-24.7
	l112-112c27.2,31.9,67.6,52.1,112.6,52.1c70.3,0,129.4-49.3,144.3-115.2h47.3c24.5,0,44.3,19.9,44.3,44.3v10.1h-94
	c-5.5,0-10,4.5-10,10s4.5,10,10,10h104c5.5,0,10-4.5,10-10v-20.1C512,300.5,490.1,274.6,460.9,268.5z M403.9,237
	c0-12.2,9.9-22.1,22.1-22.1s22.1,9.9,22.1,22.1v8c0,12.2-9.9,22.1-22.1,22.1s-22.1-9.9-22.1-22.1V237z M63.9,237
	c0-12.2,9.9-22.1,22.1-22.1s22.1,9.9,22.1,22.1v8c0,12.2-9.9,22.1-22.1,22.1s-22.1-9.9-22.1-22.1V237z M256,382.3
	c-70.6,0-128-57.4-128-128s57.4-128,128-128s128,57.4,128,128S326.6,382.3,256,382.3z"/>
<path d="M256,146.3c-59.6,0-108,48.4-108,108c0,30.9,13.1,58.8,33.9,78.5c0.4,0.4,0.7,0.8,1.2,1.1c19.2,17.6,44.8,28.4,72.9,28.4
	s53.7-10.8,72.9-28.4c0.4-0.3,0.8-0.7,1.2-1.1c20.9-19.7,33.9-47.6,33.9-78.5C364,194.7,315.6,146.3,256,146.3z M201.5,323.3
	c10.6-20.1,31.3-32.8,54.5-32.8s43.9,12.6,54.5,32.8c-15,11.9-33.9,19-54.5,19S216.5,335.2,201.5,323.3z M234.9,249.5v-7.8
	c0-11.6,9.5-21.1,21.1-21.1s21.1,9.5,21.1,21.1v7.8c0,11.6-9.5,21.1-21.1,21.1S234.9,261.1,234.9,249.5z M325.1,308.7
	c-9.2-14.6-22.6-25.8-38.3-32.1c6.3-7.2,10.2-16.7,10.2-27.1v-7.8c0-22.6-18.4-41.1-41.1-41.1s-41.1,18.4-41.1,41.1v7.8
	c0,10.4,3.9,19.8,10.2,27.1c-15.7,6.4-29.1,17.5-38.3,32.1c-11.8-15-18.9-33.9-18.9-54.4c0-48.5,39.5-88,88-88s88,39.5,88,88
	C344,274.8,336.9,293.7,325.1,308.7z"/>
<path d="M152.8,394.3c-2.6,0-5.2,1.1-7.1,2.9c-1.9,1.9-2.9,4.4-2.9,7.1s1.1,5.2,2.9,7.1c1.9,1.9,4.4,2.9,7.1,2.9s5.2-1.1,7.1-2.9
	c1.9-1.9,2.9-4.4,2.9-7.1s-1.1-5.2-2.9-7.1C158,395.4,155.4,394.3,152.8,394.3z"/>
<path d="M256.2,54c5.5,0,10-4.5,10-10V10c0-5.5-4.5-10-10-10s-10,4.5-10,10v34C246.2,49.6,250.7,54,256.2,54z"/>
<path d="M256.2,87c2.6,0,5.2-1.1,7.1-2.9c1.9-1.9,2.9-4.4,2.9-7.1s-1.1-5.2-2.9-7.1c-1.9-1.9-4.4-2.9-7.1-2.9
	c-2.6,0-5.2,1.1-7.1,2.9s-2.9,4.4-2.9,7.1s1.1,5.2,2.9,7.1C251,85.9,253.6,87,256.2,87z"/>
<path d="M316.3,73.9c2.6,0,5.1-1,7.1-2.9L341,53.4c3.9-3.9,3.9-10.2,0-14.1s-10.2-3.9-14.1,0l-17.6,17.6c-3.9,3.9-3.9,10.2,0,14.1
	C311.2,72.9,313.8,73.9,316.3,73.9z"/>
<path d="M188.8,71.1c2,2,4.5,2.9,7.1,2.9s5.1-1,7.1-2.9c3.9-3.9,3.9-10.2,0-14.1l-17.7-17.7c-3.9-3.9-10.2-3.9-14.1,0
	c-3.9,3.9-3.9,10.2,0,14.1L188.8,71.1z"/>
</svg>
