<?xml version="1.0" encoding="utf-8"?>
<!-- Generator: Adobe Illustrator 24.0.3, SVG Export Plug-In . SVG Version: 6.00 Build 0)  -->
<svg version="1.1" id="Layer_1" xmlns="http://www.w3.org/2000/svg" xmlns:xlink="http://www.w3.org/1999/xlink" x="0px" y="0px"
	 viewBox="0 0 120 120" style="enable-background:new 0 0 120 120;" xml:space="preserve">
<style type="text/css">
	.st0{fill:#C2004D;}
</style>
<g>
	<path class="st0" d="M100.2,11.5C87.8-0.9,75.9,6.1,69.5,10.4c0,0-0.5,0-0.5,0.5L54,24.8l-0.5,0.5L38.7,40c-1.6,1.6-3.8,1.6-5.4,0
		L20.9,28.1c-2.2-2.2-2.2-5.4,0-7l2.2-2.2c11.3-11.3,21-11.3,28.6-3.8c0.5,0.5,1.1,1.1,1.6,1.6c1.6,1.6,3.8,1.6,5.4,0.5l1.1-1.1
		c1.6-1.6,1.6-3.8,0.5-5.4c-0.5-1.1-1.6-1.6-2.2-2.7C46.3-3.6,32.4-0.9,18.2,12.6l-5.9,6.5c-3.8,3.8-3.2,9.7,0,13.5l18.9,18.7
		c1.6,1.6,3.8,1.6,5.4,0l3.2-3.2l24.8-24.8C75.4,13.7,84,8.3,93.2,17.5c8.6,8.6,4.9,18.9-5.9,29.1L66.2,66.4l-1.6,2.2
		c-1.1,1.1-2.7,1.1-3.8,0L49.5,57.3c-1.6-1.6-4.3-1.6-5.9,0c-1.6,1.6-1.6,4.3,0,5.9L56,75.6c1.1,1.1,2.2,2.7,2.2,4.3v2.7v32.9
		c0,2.2,1.6,3.8,3.2,3.8c2.2,0.5,4.3-1.6,4.3-3.8v-34c0-2.2,1.1-4.3,2.7-5.9l25.9-24.8C108.3,36.9,111.4,23.4,100.2,11.5z"/>
</g>
</svg>
