<svg xmlns="http://www.w3.org/2000/svg" viewBox="0 0 48 46.92"><g id="Layer_2" data-name="Layer 2"><g id="Layer_1-2" data-name="Layer 1"><path d="M5.59,35.5a5.71,5.71,0,0,0,0,11.42,5.71,5.71,0,0,0,0-11.42Zm0,9.35a3.64,3.64,0,0,1,0-7.27,3.64,3.64,0,0,1,0,7.27Z"/><path d="M15.25,16.61A4.36,4.36,0,1,0,19.53,21,4.35,4.35,0,0,0,15.25,16.61Zm0,6.64A2.28,2.28,0,1,1,17.49,21,2.27,2.27,0,0,1,15.25,23.25Z"/><path d="M26.44,33.22a4.36,4.36,0,1,0,4.27,4.36A4.34,4.34,0,0,0,26.44,33.22Zm0,6.64a2.28,2.28,0,1,1,2.24-2.28A2.28,2.28,0,0,1,26.44,39.86Z"/><path d="M31.53,13.5a4.36,4.36,0,1,0,4.27,4.36A4.35,4.35,0,0,0,31.53,13.5Zm0,6.64a2.29,2.29,0,1,1,2.23-2.28A2.28,2.28,0,0,1,31.53,20.14Z"/><path d="M43.73,0A4.36,4.36,0,1,0,48,4.36,4.34,4.34,0,0,0,43.73,0Zm0,6.64A2.28,2.28,0,1,1,46,4.36,2.28,2.28,0,0,1,43.73,6.64Z"/><path d="M12.67,23.32l-6.5,13L8,37.31l6.5-13Z"/><path d="M18.28,23.1l-1.61,1.27,8,10.51,1.61-1.27Z"/><path d="M29.55,21l-3,12.71,2,.49,3-12.7Z"/><path d="M41,6.2l-7.56,7.85L34.9,15.5l7.56-7.84Z"/></g></g></svg>