<svg xmlns="http://www.w3.org/2000/svg" viewBox="0 0 48 49"><g id="Layer_2" data-name="Layer 2"><g id="Layer_1-2" data-name="Layer 1"><path d="M29.62,33.11a1,1,0,1,0,.94,1A.95.95,0,0,0,29.62,33.11Z"/><path d="M43.31,0H4.69A4.74,4.74,0,0,0,0,4.79V34.07a4.74,4.74,0,0,0,4.69,4.79H19.31v4.4h-.93a4.63,4.63,0,0,0-3.32,1.4A4.82,4.82,0,0,0,13.69,48a1,1,0,0,0,.93,1H33.38a1,1,0,0,0,.93-1,4.74,4.74,0,0,0-4.69-4.78h-.93v-4.4H43.31A4.74,4.74,0,0,0,48,34.07V4.79A4.74,4.74,0,0,0,43.31,0ZM4.69,1.91H43.31a2.85,2.85,0,0,1,2.81,2.88v24.5H41.81v-22a.94.94,0,0,0-.93-.95h-7.5a.94.94,0,0,0-.94.95v22h-4.7c0-1,0-2-.07-2.92a62.87,62.87,0,0,0-.73-7.65,4.87,4.87,0,0,0,1.28-6.25L25,6.73a.93.93,0,0,0-1.63,0l-3.25,5.74a4.86,4.86,0,0,0,1,6,63.11,63.11,0,0,0-.79,7.86c0,1-.06,1.93-.07,2.92h-4.7V14.93a.91.91,0,0,0-.09-.41v0L11.71,6.85a.92.92,0,0,0-1.67,0L6.29,14.5v0a.91.91,0,0,0-.09.41V29.29H1.88V4.79A2.85,2.85,0,0,1,4.69,1.91ZM34.31,29.29V8.23h5.63v1.91H39a1,1,0,0,0,0,1.92h.94v2.87H39a1,1,0,0,0,0,1.91h.94v2.87H39a1,1,0,0,0,0,1.92h.94v3.83H39a1,1,0,0,0,0,1.91h.94v1.92ZM24.16,19.65a4.29,4.29,0,0,0,1-.12c.17,1.14.43,3.16.58,5.93H22.26c.16-2.77.42-4.82.61-6A4.62,4.62,0,0,0,24.16,19.65Zm0-1.92a2.87,2.87,0,0,1-2.44-4.3l2.44-4.31,2.43,4.31A2.87,2.87,0,0,1,24.16,17.73Zm-2,9.64h3.66c0,.63,0,1.27,0,1.92H22.13C22.14,28.64,22.15,28,22.17,27.37ZM11.81,29.29V15.89h1.88v13.4Zm-3.75,0V15.89H9.94v13.4ZM8.64,14l2.24-4.56L13.11,14ZM32.28,47.09H15.72A2.84,2.84,0,0,1,16.39,46a2.76,2.76,0,0,1,2-.84H29.62A2.83,2.83,0,0,1,32.28,47.09Zm-5.47-3.83H21.19v-4.4h5.62Zm16.5-6.32H4.69a2.84,2.84,0,0,1-2.81-2.87V31.2H46.12v2.87A2.84,2.84,0,0,1,43.31,36.94Z"/><path d="M25.88,33.11H20.25a1,1,0,0,0,0,1.92h5.63a1,1,0,0,0,0-1.92Z"/></g></g></svg>