<svg xmlns="http://www.w3.org/2000/svg" viewBox="0 0 17.97 22.14"><defs><style>.cls-1{fill:#d1045f;}</style></defs><title>Asset 1</title><g id="Layer_2" data-name="Layer 2"><g id="Layer_1-2" data-name="Layer 1"><path class="cls-1" d="M16.7,2.05C14.44-.2,12.16,1,11,1.84l-.09.07L8.1,4.53,8,4.65,5.27,7.38a.73.73,0,0,1-1,0L2,5.14A.94.94,0,0,1,2,3.79l.43-.43c2.11-2.11,3.88-2.13,5.33-.69A2.49,2.49,0,0,1,8,3a.71.71,0,0,0,1,.07l.18-.16a.73.73,0,0,0,.13-1A6.28,6.28,0,0,0,9,1.4C6.78-.77,4.12-.35,1.59,2.18L.48,3.37a1.8,1.8,0,0,0,0,2.49L4.06,9.4a.71.71,0,0,0,1,0l.65-.61,4.58-4.58c1.84-1.85,3.41-2.79,5.1-1.1s.87,3.47-1.07,5.41L10.4,12.28l-.33.35a.47.47,0,0,1-.67,0L7.29,10.53a.85.85,0,0,0-1.15,0,.8.8,0,0,0,0,1.15l2.29,2.27a1.16,1.16,0,0,1,.36.84V21.4a.74.74,0,0,0,.62.74.72.72,0,0,0,.8-.71l0-6.29a1.47,1.47,0,0,1,.46-1.08l4.78-4.63C18.22,6.68,18.81,4.16,16.7,2.05Z"/></g></g></svg>