<svg id="Layer_1" data-name="Layer 1" xmlns="http://www.w3.org/2000/svg" viewBox="0 0 127.33 69.69"><title>logo_default</title><path d="M65.29,33.85h8.07a0,0,0,0,1,0,0V69.76A3.38,3.38,0,0,1,70,73.14H68.67a3.38,3.38,0,0,1-3.38-3.38V33.85A0,0,0,0,1,65.29,33.85Z" transform="translate(-17.42 39.09) rotate(-47.25)"/><path d="M94.24,29q-.67,0-1.35,0a34.69,34.69,0,0,0-22.47,8.22l-.1.08h0l-.09.07h0l-.09.09a1.28,1.28,0,0,0,0,1.81l3.92,3.93a1.28,1.28,0,0,0,1.81,0l.09-.09a26.63,26.63,0,0,1,16.92-6c.52,0,1,0,1.54,0a26.62,26.62,0,0,1,17.78,8.21l6.21-5.22A34.74,34.74,0,0,0,94.24,29Z" transform="translate(-0.41 -29)"/><path d="M118.42,40.13h0l-.54-.6a1.28,1.28,0,0,0-1.81-.11l-4.14,3.68a1.27,1.27,0,0,0-.11,1.8l.39.45h0l.71.79.14.13a26.75,26.75,0,0,1-36.71,38.6L42.19,53.28l-.47-.43h0l0-.05h0a1.27,1.27,0,0,0-1.75.11L36.14,57a1.27,1.27,0,0,0,0,1.75h0l.52.48.5.46h0L70.87,90.85a34.84,34.84,0,0,0,47.55-50.72Z" transform="translate(-0.41 -29)"/><path d="M58.21,88.17l-3.89-3.9a1.28,1.28,0,0,0-1.81,0l-.15.14A26.75,26.75,0,0,1,8.8,67.88h22A1.28,1.28,0,0,0,32.1,66.6V61.09a1.28,1.28,0,0,0-1.28-1.28H8.8A26.76,26.76,0,0,1,52.11,43.07l.53.49a1.29,1.29,0,0,0,1.81-.07l3.76-4.07a1.28,1.28,0,0,0-.07-1.81l-.48-.44-.14-.12A34.84,34.84,0,1,0,57,91.11a1.51,1.51,0,0,0,.38-.26l.35-.35.46-.38,0,0,.1-.11A1.27,1.27,0,0,0,58.21,88.17Z" transform="translate(-0.41 -29)"/></svg>