<svg id="Layer_1" data-name="Layer 1" xmlns="http://www.w3.org/2000/svg" viewBox="0 0 127.33 69.69"><defs><style>.cls-1{fill:#f1f0f0}.cls-2{fill:#a0ccd1}</style></defs><path class="cls-1" d="M65.22 34h8.07v35.92a3.38 3.38 0 01-3.38 3.38H68.6a3.38 3.38 0 01-3.38-3.38V34z" transform="rotate(-47.25 35.756 39.458)"/><path class="cls-1" d="M94.17 29.18h-1.35a34.74 34.74 0 00-22.47 8.22l-.1.08-.08.07-.1.09a1.28 1.28 0 000 1.81L74 43.37a1.3 1.3 0 001.81 0l.09-.1a26.69 26.69 0 0116.92-6h1.54a26.68 26.68 0 0117.78 8.21l6.21-5.21a34.79 34.79 0 00-24.18-11.09z" transform="translate(-.33 -29.15)"/><path class="cls-2" d="M118.35 40.29l-.53-.61a1.3 1.3 0 00-1.81-.11l-4.14 3.68a1.28 1.28 0 00-.11 1.81l.39.44.71.8a.81.81 0 00.14.12A26.75 26.75 0 0176.28 85L42.12 53.44l-.47-.44h-.06a1.29 1.29 0 00-1.75.12l-3.77 4.07a1.28 1.28 0 000 1.75l.52.48.5.46L70.8 91a34.84 34.84 0 0047.55-50.71z" transform="translate(-.33 -29.15)"/><path class="cls-2" d="M58.14 88.32l-3.9-3.9a1.28 1.28 0 00-1.81 0l-.14.15A26.75 26.75 0 018.73 68h22A1.28 1.28 0 0032 66.76v-5.52A1.28 1.28 0 0030.75 60h-22A26.75 26.75 0 0152 43.22l.53.49a1.28 1.28 0 001.81-.07l3.77-4.07a1.29 1.29 0 00-.07-1.81l-.48-.44-.14-.11a34.85 34.85 0 10-.57 54.05 1.19 1.19 0 00.38-.25l.36-.36.45-.38.11-.11a1.28 1.28 0 00-.01-1.84z" transform="translate(-.33 -29.15)"/></svg>