<svg id="Layer_1" data-name="Layer 1" xmlns="http://www.w3.org/2000/svg" viewBox="0 0 127.33 69.69"><defs><style>.cls-1{fill:#242c2d;}.cls-2{fill:#a0ccd1;}</style></defs><title>logo_dark</title><path class="cls-1" d="M65.39,34h8.07a0,0,0,0,1,0,0V69.92a3.38,3.38,0,0,1-3.38,3.38H68.77a3.38,3.38,0,0,1-3.38-3.38V34A0,0,0,0,1,65.39,34Z" transform="translate(-17.6 39.05) rotate(-47.25)"/><path class="cls-1" d="M94.34,29.18q-.68,0-1.35,0a34.7,34.7,0,0,0-22.47,8.22l-.11.08h0a.27.27,0,0,0-.08.07h0l-.09.09a1.28,1.28,0,0,0,0,1.81l3.93,3.93a1.3,1.3,0,0,0,1.81,0l.09-.1a26.69,26.69,0,0,1,16.92-6c.51,0,1,0,1.54,0a26.68,26.68,0,0,1,17.78,8.21l6.21-5.21A34.79,34.79,0,0,0,94.34,29.18Z" transform="translate(-0.5 -29.15)"/><path class="cls-2" d="M118.52,40.29h0l-.54-.61a1.29,1.29,0,0,0-1.8-.11L112,43.25a1.29,1.29,0,0,0-.1,1.81l.39.44h0l.71.8a1.42,1.42,0,0,0,.13.12A26.75,26.75,0,0,1,76.45,85L42.28,53.44,41.82,53h0L41.76,53h0a1.29,1.29,0,0,0-1.75.12l-3.77,4.07a1.28,1.28,0,0,0,0,1.75h0l.52.48.49.46h0L71,91a34.84,34.84,0,0,0,47.56-50.71Z" transform="translate(-0.5 -29.15)"/><path class="cls-2" d="M58.31,88.32l-3.9-3.9a1.28,1.28,0,0,0-1.81,0l-.15.15A26.74,26.74,0,0,1,8.9,68h22a1.29,1.29,0,0,0,1.28-1.28V61.24A1.29,1.29,0,0,0,30.92,60H8.9A26.75,26.75,0,0,1,52.2,43.22l.53.49a1.28,1.28,0,0,0,1.81-.07l3.76-4.07a1.28,1.28,0,0,0-.07-1.81l-.47-.44-.14-.11a34.85,34.85,0,1,0-.57,54.05,1.19,1.19,0,0,0,.38-.25l.35-.36.46-.38,0,0,.11-.11A1.28,1.28,0,0,0,58.31,88.32Z" transform="translate(-0.5 -29.15)"/></svg>