<svg xmlns="http://www.w3.org/2000/svg" viewBox="0 0 48 48.81"><g id="Layer_2" data-name="Layer 2"><g id="Layer_1-2" data-name="Layer 1"><path d="M43.78,0H4.22A4.27,4.27,0,0,0,0,4.31V44.5a4.27,4.27,0,0,0,4.22,4.31H43.78A4.27,4.27,0,0,0,48,44.5V4.31A4.27,4.27,0,0,0,43.78,0ZM4.22,2.87H43.78a1.43,1.43,0,0,1,1.41,1.44v7.17H2.81V4.31A1.43,1.43,0,0,1,4.22,2.87ZM43.78,45.94H4.22A1.43,1.43,0,0,1,2.81,44.5V14.36H45.19V44.5A1.43,1.43,0,0,1,43.78,45.94Z"/><path d="M28.77,18.78a1.39,1.39,0,0,0-1.84.75l-8.44,20.1a1.43,1.43,0,0,0,.74,1.88,1.38,1.38,0,0,0,1.84-.75l8.44-20.1A1.43,1.43,0,0,0,28.77,18.78Z"/><path d="M16.66,23.51a1.39,1.39,0,0,0-2-.23L7.65,29a1.46,1.46,0,0,0,0,2.24l7,5.74a1.39,1.39,0,0,0,2-.22,1.45,1.45,0,0,0-.22-2l-5.66-4.62,5.66-4.62A1.45,1.45,0,0,0,16.66,23.51Z"/><path d="M40.35,29l-7-5.75a1.39,1.39,0,0,0-2,.23,1.45,1.45,0,0,0,.22,2l5.66,4.62-5.66,4.62a1.45,1.45,0,0,0-.22,2,1.39,1.39,0,0,0,2,.22l7-5.74A1.46,1.46,0,0,0,40.35,29Z"/><path d="M7.12,8.61a1.44,1.44,0,1,0-1.4-1.43A1.42,1.42,0,0,0,7.12,8.61Z"/><path d="M12.75,8.61a1.44,1.44,0,1,0-1.41-1.43A1.42,1.42,0,0,0,12.75,8.61Z"/><path d="M18.38,8.61A1.44,1.44,0,1,0,17,7.18,1.42,1.42,0,0,0,18.38,8.61Z"/><path d="M32.44,8.61h8.44a1.44,1.44,0,0,0,0-2.87H32.44a1.44,1.44,0,0,0,0,2.87Z"/></g></g></svg>