<?xml version="1.0" encoding="utf-8"?>
<!-- Generator: Adobe Illustrator 24.2.1, SVG Export Plug-In . SVG Version: 6.00 Build 0)  -->
<svg version="1.1" xmlns="http://www.w3.org/2000/svg" xmlns:xlink="http://www.w3.org/1999/xlink" x="0px" y="0px"
	 viewBox="0 0 512 512" style="enable-background:new 0 0 512 512;" xml:space="preserve">
<style type="text/css">
	.st0{fill:#FFFFFF;}
	.st1{fill:#DDAE9E;}
	.st2{fill:#87CED9;}
	.st3{fill:#4398D1;}
	.st4{fill:#F5C4B0;}
	.st5{fill:#EBEBEB;}
	.st6{fill:#75462E;}
	.st7{fill:#F0B184;}
	.st8{fill:#3A3525;}
	.st9{fill:#E0E0E0;}
</style>
<g id="Layer_2">
	<rect x="-52.6" y="-38.1" class="st0" width="616.1" height="587.1"/>
</g>
<g id="Capa_1">
	<g>
		<path class="st1" d="M127.9,153.3c0,14.2,11.5,25.6,25.6,25.6h8.5v-51.2h-8.5C139.4,127.7,127.9,139.1,127.9,153.3z"/>
		<path class="st1" d="M358.5,127.7H350v51.2h8.5c14.2,0,25.6-11.5,25.6-25.6S372.6,127.7,358.5,127.7z"/>
	</g>
	<path class="st2" d="M358.5,315.6h-205c-37.7,0-68.3,30.6-68.3,68.3V512h341.6V383.9C426.8,346.2,396.2,315.6,358.5,315.6z"/>
	<polygon class="st3" points="281.6,315.6 230.4,315.6 247.5,349.7 230.4,460.8 281.6,460.8 264.5,349.7 	"/>
	<rect x="213.3" y="255.8" class="st4" width="85.4" height="59.8"/>
	<path class="st5" d="M358.5,315.6h-25.6L256,418.1l-76.9-102.5h-25.6c-37.7,0-68.3,30.6-68.3,68.3V512h341.6V383.9
		C426.8,346.2,396.2,315.6,358.5,315.6z"/>
	<path class="st1" d="M213.3,255.8v32.4c26.8,13.8,58.6,13.8,85.4,0v-32.4L213.3,255.8L213.3,255.8z"/>
	<path class="st4" d="M256,25.2L256,25.2c51.9,0,93.9,42.1,93.9,93.9v68.3c0,51.9-42.1,93.9-93.9,93.9l0,0
		c-51.9,0-93.9-42.1-93.9-93.9v-68.3C162.1,67.3,204.1,25.2,256,25.2z"/>
	<path class="st6" d="M307.2,170.4c-9.4,0-17.1-7.6-17.1-17.1s7.6-17.1,17.1-17.1s17.1,7.6,17.1,17.1S316.7,170.4,307.2,170.4z"/>
	<g>
		<path class="st7" d="M264.5,204.5h-25.6c-2.7,0-5.2-1.3-6.8-3.4c-1.6-2.1-2.1-4.9-1.4-7.4l17.1-59.8l16.4,4.6l-13.9,48.9h14.3
			L264.5,204.5L264.5,204.5z"/>
		<path class="st7" d="M248.9,238.7h-10v-17.1h10c13.2,0,25.9-5.2,35.2-14.6l12.1,12.1C283.7,231.7,266.7,238.8,248.9,238.7z"/>
	</g>
	<g>
		<path class="st8" d="M307.2,59.4L307.2,59.4l-7.9,4.5c-34,19.4-72.5,29.6-111.7,29.6l0,0L162,127.7h-8.5V76.4
			c0-37.7,30.6-68.3,68.3-68.3h69.3c14.7,0,27.7,9.4,32.4,23.4l0.8,2.2l0,0c18.9,0,34.2,15.3,34.2,34.2v59.8H350
			C349.9,127.7,315.8,93.5,307.2,59.4z"/>
	</g>
	<path class="st9" d="M85.2,512h341.6V383.9c0.1-2.2,0.1-4.5,0-6.7c-87.7,83.6-256.7,107.9-341.6,115L85.2,512L85.2,512z"/>
	<g>
		<circle class="st3" cx="162.1" cy="435.1" r="25.6"/>
		<rect x="153.5" y="315.6" class="st3" width="17.1" height="119.6"/>
		<path class="st3" d="M358.5,393.2v-77.6h-17.1v77.6c-24.6,4.2-42.7,25.5-42.7,50.5v17.1c0,4.7,3.8,8.5,8.5,8.5h25.6v-17.1h-17.1
			v-8.5c0-18.9,15.3-34.2,34.2-34.2s34.2,15.3,34.2,34.2v8.5H367v17.1h25.6c4.7,0,8.5-3.8,8.5-8.5v-17.1
			C401.2,418.7,383.1,397.4,358.5,393.2z"/>
	</g>
	<path d="M93.7,383.9c0-33,26.8-59.8,59.8-59.8l0,0v78.1c-18.3,4.7-29.3,23.4-24.5,41.6c4.7,18.3,23.4,29.3,41.6,24.5
		c18.3-4.7,29.3-23.4,24.5-41.6c-3.1-12-12.5-21.4-24.5-24.5v-78.1h4.3l74.3,99.1c2.8,3.8,8.2,4.5,12,1.7c0.6-0.5,1.2-1.1,1.7-1.7
		l74.3-99.1h4.3v69.1c-24.6,4.2-42.7,25.5-42.7,50.5v17.1c0,4.7,3.8,8.5,8.5,8.5h25.6v-17.1h-17.1v-8.5c0-18.9,15.3-34.2,34.2-34.2
		s34.2,15.3,34.2,34.2v8.5H367v17.1h25.6c4.7,0,8.5-3.8,8.5-8.5v-17.1c0-25-18.1-46.3-42.7-50.5v-69.1c33,0,59.8,26.8,59.8,59.8l0,0
		V512h17.1V383.9c0-42.5-34.4-76.9-76.9-76.9l0,0h-51.2v-30.9c31.7-18.3,51.2-52.1,51.2-88.6c18.9-0.2,34-15.7,33.8-34.6
		c-0.2-15.3-10.5-28.6-25.2-32.6V67.9c0-21.2-15.6-39.2-36.6-42.3C323.7,10,308.2-0.1,291.2,0h-69.3C179.4,0,145,34.4,145,76.9v43.9
		c-18,5.7-28,24.9-22.3,42.8c4.3,13.6,16.6,23.1,30.9,23.9c0,36.6,19.6,70.4,51.2,88.7V307h-51.2c-42.5,0-76.9,34.4-76.9,76.9l0,0
		V512h17.1L93.7,383.9L93.7,383.9z M179.1,435.1c0,9.4-7.6,17.1-17.1,17.1s-17.1-7.6-17.1-17.1S152.5,418,162,418
		S179.1,425.7,179.1,435.1z M259.2,341.2h-6.5l-8.5-17.1h23.6L259.2,341.2z M225.1,324.1l13.8,27.1l-3.3,25l-39.4-52.1H225.1
		L225.1,324.1z M249.9,395.8l5-37.5h2l5,37.5l-6.1,8L249.9,395.8z M276.7,376.2l-3.6-25l13.8-27.1h28.9L276.7,376.2z M375.6,153.3
		c0,9.4-7.6,17.1-17.1,17.1v-34.2C367.9,136.2,375.6,143.9,375.6,153.3z M162.1,76.4c0-33,26.8-59.8,59.8-59.8h69.3
		c11.1-0.1,21.1,7,24.6,17.5l0.8,2.3c1.1,3.4,4.2,5.7,7.8,5.8c14.2,0,25.6,11.5,25.6,25.6V119h-4.4c-15-17.6-25.2-38.8-29.7-61.5
		c-0.6-2.7-2.4-4.9-4.9-6.1c-2.4-1.2-5.3-1.2-7.8,0l-7.9,4.5c-32.8,19-69.9,29-107.6,29.1c-3,0-5.8,1.6-7.3,4.2l-18.3,30.5V76.4
		L162.1,76.4z M136.4,153.3c0-9.4,7.6-17.1,17.1-17.1v34.2C144.1,170.4,136.4,162.7,136.4,153.3z M170.6,187.5v-48.9l21.9-36.6
		c38.2-0.8,75.7-10.9,109.1-29.5c7,25.2,20.4,48,38.9,66.4l0.9,0.9v47.7c0,47.2-38.2,85.4-85.4,85.4S170.6,234.6,170.6,187.5z
		 M221.8,284c22.1,8,46.2,8,68.3,0v23h-68.3V284L221.8,284z"/>
	<circle cx="307.2" cy="153.3" r="17.1"/>
	<path d="M264.5,204.5v-17.1h-14.3l14.3-48.9l-17.1-4.6l-17.1,59.8c-0.7,2.6-0.2,5.3,1.4,7.4c1.6,2.2,4.1,3.4,6.8,3.4L264.5,204.5
		L264.5,204.5z"/>
	<path d="M284.1,207c-9.3,9.4-22,14.6-35.2,14.6h-10v17.1h10c17.7,0.1,34.8-7,47.3-19.6L284.1,207z"/>
	<circle cx="204.8" cy="153.3" r="17.1"/>
</g>
</svg>
