<?xml version="1.0" encoding="utf-8"?>
<!-- Generator: Adobe Illustrator 24.2.1, SVG Export Plug-In . SVG Version: 6.00 Build 0)  -->
<svg version="1.1" xmlns="http://www.w3.org/2000/svg" xmlns:xlink="http://www.w3.org/1999/xlink" x="0px" y="0px"
	 viewBox="0 0 512 512" style="enable-background:new 0 0 512 512;" xml:space="preserve">
<style type="text/css">
	.st0{fill:#FFFFFF;}
	.st1{fill:#4F4C5F;}
	.st2{fill:#E8A882;}
	.st3{fill:#5C586F;}
	.st4{fill:#6A647F;}
	.st5{fill:#423E4F;}
	.st6{fill:#E3986D;}
</style>
<g id="Layer_2">
	<rect x="-52.6" y="-38.1" class="st0" width="616.1" height="587.1"/>
</g>
<g id="Capa_1">
	<g>
		<g>
			<path class="st1" d="M105.5,403.9l-40.3-26.1c-9.2-6-21.5-3.3-27.5,5.9c-6,9.2-3.3,21.5,5.9,27.5l40.3,26.1
				c9.2,6,21.5,3.4,27.5-5.9C117.3,422.2,114.7,409.9,105.5,403.9z"/>
			<path class="st2" d="M250.9,7.5c-9.8,0-18.3,6.2-21.7,15.4c-14.2,38.2-74.1,59.2-11.8,131.4l56.6-77.8V30.6
				C273.9,17.8,263.6,7.5,250.9,7.5z"/>
			<path class="st2" d="M416.2,7.5c9.8,0,18.3,6.2,21.7,15.4c14.2,38.2,74.1,59.2,11.8,131.4l-56.6-77.8V30.6
				C393.2,17.8,403.5,7.5,416.2,7.5L416.2,7.5z"/>
			<path class="st3" d="M227.1,267.9c-15.8,83.3-175.5,49-175.5,217.2c0,10.7,8.7,19.4,19.4,19.4H320V356.3L227.1,267.9z"/>
			<path class="st1" d="M199.9,308.5c3,7.4,6.5,14.6,10.7,21.4c12.6,20.7,30.4,38,51.4,50c17.8,10.2,37.6,16.5,58,18.4v-42l-93-88.4
				C223.7,285.8,213.6,298.2,199.9,308.5L199.9,308.5z"/>
			<path class="st4" d="M232,316.8c-11-18-17.3-39.2-17.3-61.8v-75.8c0-65.6,53.2-118.9,118.9-118.9c65.6,0,118.9,53.2,118.9,118.9
				v75.8c0,22.6-6.3,43.8-17.3,61.8H232z"/>
			<path class="st3" d="M234.8,214.3c0-68.4,40.7-127.4,99.2-153.9c-0.1,0-0.3,0-0.4,0c-65.7,0-118.9,53.2-118.9,118.9v75.8
				c0,22.6,6.3,43.8,17.3,61.8h37.4C247.7,288.4,234.8,252.9,234.8,214.3L234.8,214.3z"/>
			<path class="st2" d="M364,244.5c33.4,9.8,60,35.7,71.1,72.3c-4.9,8.1-10.8,15.6-17.5,22.3c-21.5,21.5-51.2,34.8-84,34.8
				c-43,0-80.7-22.9-101.6-57.1c11.1-36.6,37.7-62.6,71.1-72.3L364,244.5z"/>
			<path class="st5" d="M364,244.5c-1.2,15.8-14.3,28.2-30.4,28.2s-29.2-12.4-30.4-28.2c9.6-2.8,19.9-4.3,30.4-4.3
				C344.1,240.2,354.3,241.7,364,244.5z"/>
			<g>
				<path class="st2" d="M284.9,152.5l-14-4.1c-8.1-2.4-16.5,2.2-19,10.2c-2.6,8.2,2.5,17,10.8,19.5l13.6,4
					c8.1,2.4,16.7-2.3,19.1-10.5C297.7,163.4,293,154.9,284.9,152.5L284.9,152.5z"/>
				<path class="st2" d="M382.2,152.5l14-4.1c8.1-2.4,16.5,2.2,19,10.2c2.6,8.2-2.5,17-10.8,19.5l-13.6,4
					c-8.1,2.4-16.7-2.3-19.1-10.5C369.4,163.4,374.1,154.9,382.2,152.5L382.2,152.5z"/>
				<path class="st2" d="M155.2,460.3h-28.9c-13.6,0-24.6,11-24.6,24.6v19.6h58.5c10.8,0,19.6-8.8,19.6-19.6
					C179.8,471.3,168.8,460.3,155.2,460.3z"/>
			</g>
			<path class="st6" d="M324.5,460.3h-28.9c-13.6,0-24.6,11-24.6,24.6v19.6h58.5c10.8,0,19.6-8.8,19.6-19.6
				C349.2,471.3,338.1,460.3,324.5,460.3z"/>
			<path class="st2" d="M268.2,460.3h-28.9c-13.6,0-24.6,11-24.6,24.6v19.6h58.5c10.8,0,19.6-8.8,19.6-19.6
				C292.8,471.3,281.8,460.3,268.2,460.3z"/>
			<path class="st6" d="M249.1,282.4c-7.4,10-13.2,21.5-17.1,34.4c20.9,34.2,58.5,57.1,101.6,57.1c4.3,0,8.5-0.2,12.7-0.7
				C302.8,357.5,267.6,324.5,249.1,282.4z"/>
		</g>
		<g>
			<path d="M254,210.3v13.8c0,4.1,3.4,7.5,7.5,7.5s7.5-3.4,7.5-7.5v-13.8c0-4.1-3.4-7.5-7.5-7.5S254,206.1,254,210.3L254,210.3z"/>
			<path d="M397.7,210.3v13.8c0,4.1,3.4,7.5,7.5,7.5s7.5-3.4,7.5-7.5v-13.8c0-4.1-3.4-7.5-7.5-7.5S397.7,206.1,397.7,210.3z"/>
			<path d="M360.6,289c-4.1,0-7.5,3.4-7.5,7.5c0,3.3-2.7,6-6,6s-6-2.7-6-6c0-4.1-3.4-7.5-7.5-7.5s-7.5,3.4-7.5,7.5c0,3.3-2.7,6-6,6
				s-6-2.7-6-6c0-4.1-3.4-7.5-7.5-7.5c-14.1,0-7.5,28.5,13.5,28.5c5.2,0,9.9-1.9,13.5-5c3.7,3.1,8.4,5,13.5,5
				C368.1,317.5,374.8,289,360.6,289z"/>
			<path d="M302.5,173.7c3.5-12.1-3.4-24.8-15.5-28.4l-14-4.1c-11.9-3.5-24.6,3.3-28.2,15.1c-3.8,12.3,3.6,25.3,15.8,28.9l13.6,4
				C286.3,192.8,299,185.7,302.5,173.7L302.5,173.7z M259.1,160.8c1.3-4.1,5.6-6.4,9.7-5.2l14,4.1c4.2,1.2,6.6,5.6,5.4,9.8
				c-1.2,4.2-5.6,6.6-9.8,5.4l-13.6-4C260.5,169.6,257.8,165,259.1,160.8z"/>
			<path d="M422.3,156.4c-3.7-11.8-16.4-18.6-28.2-15.1l-14,4.1c-12.1,3.5-19.1,16.2-15.5,28.4c3.5,12.1,16.2,19.1,28.4,15.6l13.6-4
				C418.7,181.7,426.2,168.7,422.3,156.4L422.3,156.4z M402.3,170.8l-13.6,4c-4.2,1.2-8.5-1.2-9.8-5.4c-1.2-4.2,1.2-8.5,5.4-9.8
				l14-4.1c4.1-1.2,8.4,1.1,9.7,5.2C409.3,165,406.6,169.6,402.3,170.8z"/>
			<path d="M39.5,417.4l12.7,8.2c-5.4,17.5-8.1,37.1-8.1,59.4c0,14.8,12.1,26.9,26.9,26.9h258.6c14.9,0,27.1-12.2,27.1-27.1
				c0-16.7-12.8-30.5-29.1-32v-71.7c2,0.1,4,0.2,6,0.2c70.3,0,126.4-57.1,126.4-126.4v-15.9c0-4.1-3.4-7.5-7.5-7.5s-7.5,3.4-7.5,7.5
				c-0.7,10.1,2.9,31.7-8.8,59.3c-14.5-31.5-37.3-50.6-70.1-61.1c0,0,0,0,0,0c-21.2-6.2-44.5-6-65,0c0,0,0,0,0,0
				c-1.6,0.9-46.9,10.8-70.1,61.1c-5.8-13.7-8.8-28.5-8.8-43.4v-75.8c0-61.3,49.9-111.4,111.4-111.4c61.4,0,111.4,50,111.4,111.4
				v30.5c0,4.1,3.4,7.5,7.5,7.5s7.5-3.4,7.5-7.5v-30.5c0-7.8-0.7-15.5-2.1-22.9c20.2-24.2,29-45.5,26.9-65
				c-2-18.2-12.6-31.8-22.9-44.9c-6.9-8.8-13.5-17.1-16.8-26.3C440.5,8.1,428.9,0,416.2,0c-16.9,0-30.6,13.7-30.6,30.6v33.6
				c-15.9-7.2-33.5-11.3-52.1-11.3s-36.2,4-52.1,11.3V30.6c0-16.9-13.7-30.6-30.6-30.6c-12.7,0-24.3,8.1-28.8,20.3
				c-3.4,9.1-9.9,17.4-16.8,26.3c-10.3,13.1-20.9,26.7-22.9,44.9c-2.1,19.5,6.7,40.8,26.9,65c-3.5,18.9-1.5,25.9-2.1,98.7
				c0,10.8,1.4,21.4,4,31.7c-11.6,16.5-32.4,26.8-56.4,38.5c-6,3-12.3,6-18.5,9.3c-3.7,1.9-5.1,6.4-3.2,10.1
				c1.9,3.7,6.4,5.1,10.1,3.2c6.1-3.2,12.2-6.2,18.2-9.1c21.1-10.4,41.3-20.3,55.4-35.2c16.2,38.9,51.3,68.6,95.7,76.1v73.1
				c-13.6,0.5-20.8-1.6-30.6,3.1c-1.1-0.5-2.2-1-3.3-1.4V405c0-4.1-3.4-7.5-7.5-7.5s-7.5,3.4-7.5,7.5v47.8
				c-22.7,0.2-25.4-0.5-31.4,0.8V405c0-4.1-3.4-7.5-7.5-7.5s-7.5,3.4-7.5,7.5v56.7c-13.7,13-9.2,28.9-10,35.4h-22.7
				c8.2-16.4-1.9-38.7-22-43.4c-1.8-20.9-12-32.8-20.6-39.2c-10.2-7.5-20.2-9.2-21.3-9.4c-4.1-0.6-7.9,2.2-8.5,6.3s2.2,7.9,6.3,8.5
				c0.1,0,7.3,1.2,14.5,6.6c8.2,6.1,13,14.9,14.4,26.4h-20.9c-17.7,0-32.1,14.4-32.1,32.1V497H70.9c-6.6,0-11.9-5.3-11.9-11.9
				c0-53.1,15.5-93.6,60.1-123.2c3.4-2.3,4.4-6.9,2.1-10.4s-6.9-4.4-10.4-2.1c-12.8,8.5-23.5,17.8-32.3,28.1l-9.2-6
				c-12.7-8.2-29.6-4.6-37.9,8.1C23.2,392.2,26.8,409.2,39.5,417.4L39.5,417.4z M400.7,30.6c0-8.6,7-15.6,15.6-15.6
				c6.6,0,12.3,4.1,14.7,10.5c4.2,11.3,11.8,21,19.1,30.3c17.6,22.4,33,42,3,82.4c-8.8-25.6-26.7-49.8-52.4-66V30.6z M333.5,366.4
				c-38.5,0-73.4-20-93.4-50.6c9.4-28,29.3-50.7,57.3-61.5c11.6,34,60.2,34.7,72,0c27,10.4,47.6,32.4,57.3,61.5
				C406.9,346.5,372.5,366.4,333.5,366.4L333.5,366.4z M355.2,250c-7.5,20.4-35.9,20-43.2,0C316,249.1,341,246.9,355.2,250
				L355.2,250z M214,138.2c-29.9-40.4-14.5-60,3-82.4c7.3-9.3,14.9-19,19.1-30.3c2.4-6.4,8.1-10.5,14.7-10.5c8.6,0,15.6,7,15.6,15.6
				v41.7C241,88.2,222.9,112.3,214,138.2z M324.5,467.8c9.4,0,17.1,7.7,17.1,17.1c0,6.7-5.4,12.1-12.1,12.1h-32.1
				c1.9-3.7,2.9-7.9,2.9-12.1c0-6.2-1.8-12.1-4.9-17.1C297.8,467.7,286.9,467.8,324.5,467.8L324.5,467.8z M222.2,484.9
				c0-9.4,7.7-17.1,17.1-17.1h28.9c7,0,13.1,4.3,15.7,10.4c4.3,9.9-1.9,18.9-10.7,18.9h-51L222.2,484.9z M109.2,484.9
				c0-9.4,7.7-17.1,17.1-17.1h28.9c9.4,0,17.1,7.7,17.1,17.1c0,6.7-5.4,12.1-12.1,12.1h-51V484.9z M44,387.7
				c3.7-5.7,11.4-7.4,17.1-3.7l8.3,5.4c-4.7,7-8.7,14.5-11.9,21.8l-9.9-6.4C41.9,401.1,40.2,393.5,44,387.7L44,387.7z"/>
		</g>
	</g>
</g>
</svg>
