<?xml version="1.0" encoding="utf-8"?>
<!-- Generator: Adobe Illustrator 24.2.1, SVG Export Plug-In . SVG Version: 6.00 Build 0)  -->
<svg version="1.1" xmlns="http://www.w3.org/2000/svg" xmlns:xlink="http://www.w3.org/1999/xlink" x="0px" y="0px"
	 viewBox="0 0 512 512" style="enable-background:new 0 0 512 512;" xml:space="preserve">
<style type="text/css">
	.st0{fill:#FFFFFF;}
	.st1{fill:#F5AD76;}
	.st2{fill:#FEDAC6;}
	.st3{fill:#F5C4B0;}
	.st4{fill:#75462E;}
	.st5{fill:#F0B184;}
	.st6{fill:none;}
	.st7{fill:#FECB66;}
	.st8{fill:#EDEBED;}
	.st9{fill:#A5CDFF;}
	.st10{fill:#8CB4EB;}
	.st11{fill:#DBD9DC;}
</style>
<g id="Layer_2">
	<rect x="-52.6" y="-38.1" class="st0" width="616.1" height="587.1"/>
</g>
<g id="Capa_1">
	<g>
		<path class="st1" d="M369.5,164.1V99.2c-0.1-27.7-17-52.7-42.7-63.1c-16.4-16.4-38.6-25.6-61.8-25.6h-14.6
			c-55,0-137,42.7-128.4,162.1c3.1,49.6,20.9,97.1,51.2,136.5l8.5-42.7h136.5l8.5,42.7C378,258,369.5,164.1,369.5,164.1z"/>
		<path d="M326.8,317.7c-0.8,0-1.7-0.1-2.5-0.4c-3-0.9-5.3-3.4-5.9-6.5l-8.5-42.7l16.7-3.4l5.1,25.3c28.8-40.7,29.2-99.7,29.2-100.4
			H378c0,3.3-0.5,80.9-45.2,125.5C331.3,316.8,329.1,317.7,326.8,317.7z"/>
		<path d="M173.2,317.7c-2.6,0-5.1-1.2-6.8-3.3c-31.4-40.9-49.7-89.7-52.9-141.2l17-1.1c2.6,41.6,15.7,81.3,38.2,116l4.6-23.2
			l16.7,3.4l-8.5,42.7c-0.7,3.3-3.2,5.9-6.4,6.6C174.5,317.6,173.9,317.7,173.2,317.7z"/>
		<path class="st2" d="M298.7,342.1v-68.2h-85.3v68.2L298.7,342.1L298.7,342.1z"/>
		<g>
			<path class="st3" d="M213.5,273.9v32.3c26.8,13.8,58.5,13.8,85.3,0v-32.3H213.5L213.5,273.9z"/>
			<path class="st3" d="M170.8,205.7h-17.1c-14.1,0-25.6-11.5-25.6-25.6l0,0c0-14.1,11.5-25.6,25.6-25.6h17.1V205.7z"/>
		</g>
		<path class="st2" d="M349.9,137.5v68.2c0,51.8-42,93.8-93.8,93.8l0,0c-51.8,0-93.8-42-93.8-93.8v-68.2c0-42.4,34.4-76.7,76.7-76.7
			h34.1C315.5,60.8,349.9,95.1,349.9,137.5z"/>
		<g>
			<circle class="st4" cx="205" cy="171.6" r="17.1"/>
			<circle class="st4" cx="307.3" cy="171.6" r="17.1"/>
		</g>
		<g>
			<path class="st5" d="M249,256.9h-10v-17.1h10c13.2,0,25.8-5.2,35.1-14.6l12.1,12.1C283.7,249.9,266.7,256.9,249,256.9z"/>
			<path class="st5" d="M264.6,222.8H239c-2.7,0-5.3-1.3-6.9-3.6c-1.6-2.2-2.1-5.1-1.2-7.7l17.1-51.2l16.2,5.5l-13.3,39.9h13.7
				V222.8L264.6,222.8z"/>
		</g>
		<path class="st3" d="M349.9,146h8.5c14.1,0,25.6,11.5,25.6,25.6l0,0c0,14.1-11.5,25.6-25.6,25.6h-8.5V146z"/>
		<circle cx="205" cy="171.6" r="17.1"/>
		<circle cx="307.3" cy="171.6" r="17.1"/>
		<path d="M284.1,225.3c-9.3,9.4-21.9,14.6-35.1,14.6h-10V257h10c17.7,0.1,34.7-7,47.2-19.5L284.1,225.3z"/>
		<path d="M264.6,222.8v-17.1h-13.7l13.7-39.9l-16.2-5.5l-17.1,51.2c-0.9,2.6-0.4,5.5,1.2,7.7c1.5,2.1,3.9,3.4,6.5,3.6L264.6,222.8
			L264.6,222.8z"/>
		<g>
			<path class="st6" d="M179.4,166.1l-8.6-5v44.7c0,47.1,38.2,85.3,85.3,85.3s85.3-38.2,85.3-85.3v-55.7c0,0-0.1,0-0.1-0.1l-3.9,2
				L179.4,166.1z"/>
			<path class="st6" d="M222,302.1l-4.2-2.1l0.7,42.1h74.2v-41.2l-2.6,1.2C268.2,310,244,310,222,302.1z"/>
			<path class="st6" d="M136.7,180.1c0,9.4,7.6,17.1,17.1,17.1v-34.1C144.4,163.1,136.7,170.7,136.7,180.1z"/>
			<path class="st6" d="M358.4,154.6v34.1c9.4,0,17.1-7.6,17.1-17.1S367.8,154.6,358.4,154.6z"/>
			<path d="M375.5,142.1c0-0.3-7.3-0.5-7.3-0.8H351l-9.7,3l-0.1,5.7c0,0,0.1,0,0.1,0.1v55.7c0,47.1-38.2,85.3-85.3,85.3
				s-85.3-38.2-85.3-85.3v-44.7l-16.4-9.6l-17.7-0.6c-16.2,9.6-21.5,30.5-11.9,46.7c6.1,10.2,17.1,16.6,29,16.7h0.4
				c2.8,33.4,21.8,63.2,50.7,80v39.4l-34.1,9.6v21.4l44.7-8l78,8l47.9,3.7l-6.6-27.7l-27.5-6.9v-39.4c31.6-18.3,51.1-52,51.2-88.5
				c18.8,0,34.1-15.3,34-34.2C392.4,159.4,386,148.2,375.5,142.1z M153.8,197.2c-9.4,0-17.1-7.6-17.1-17.1s7.6-17.1,17.1-17.1V197.2
				z M292.8,342.1h-74.2l-0.7-42.1l4.2,2.1c22,8,46.2,8,68.2,0l2.6-1.2v41.2H292.8z M358.4,188.7v-34.1c9.4,0,17.1,7.6,17.1,17.1
				S367.8,188.7,358.4,188.7z"/>
		</g>
		<path class="st7" d="M344.5,147c-34.1-51.2-34.1-85.3-34.1-85.3S216.5,147,122.6,172.6C114.1,53.2,196.1,10.5,251.2,10.5h14.5
			c23.2,0,45.4,9.2,61.8,25.6l0,0c25.7,10.4,42.6,35.3,42.7,63.1v56.4"/>
		<path class="st1" d="M122.6,172.6c0,0,144.5-59.7,178.6-110.9c0,0-102.4,59.7-179.2,59.7C117.1,138.2,117.3,156,122.6,172.6z"/>
		<path d="M122,181.2c-1.7,0-3.5-0.5-4.9-1.6c-2.1-1.5-3.4-3.8-3.6-6.4c-3.8-52.7,9.5-97,38.4-128C177.2,18.1,213.9,2,250,2h14.6
			c24.9,0.2,49.2,9.7,67,26.9C359.8,41,378,68.4,378.1,99.1v56.4L361,150V99.2c-0.1-24.4-14.7-46-37.3-55.2c-1.1-0.4-2-1.1-2.8-1.9
			c-14.8-14.8-35.6-23-56.1-23.1H250c-31.5,0-63.5,14.1-85.6,37.8C140.8,82.3,129,118.2,130,161.4c87.4-27.9,173.1-105.2,174-106
			c2.5-2.3,6.1-2.8,9.2-1.5c3.1,1.4,5.1,4.4,5.1,7.8c0,0.3,0.7,32.6,32.7,80.6l8.4,10.9l-18,5.5l-4.5-7
			c-21.3-32-29.9-57.7-33.3-73.4c-28.5,23.9-103.2,81.7-179.2,102.5C123.5,181.1,122.8,181.2,122,181.2z"/>
		<path d="M377,142.8c-8.5-6.6-35.6-1.5-35.6-1.5l4.6,15l10.2-1.8l5.9-1l12.1,3.9C374.2,157.5,385.5,149.4,377,142.8z"/>
	</g>
	<path class="st8" d="M407.8,374.8L325,345.5H186l-82.8,29.2c-19.2,6.8-32.1,25-32.1,45.4v87.4h368.7v-87.4
		C439.8,399.7,427,381.6,407.8,374.8z"/>
	<rect x="215.4" y="346" class="st9" width="80.2" height="152.3"/>
	<path class="st10" d="M215.4,390c11.5,7.7,25.2,12.2,40.1,12.2c14.9,0,28.6-4.5,40.1-12.2v-44h-80.2L215.4,390L215.4,390z"/>
	<rect x="111.2" y="450.2" class="st9" width="80.2" height="48.1"/>
	<path class="st2" d="M303.6,331c0,26.6-21.5,48.1-48.1,48.1l0,0c-26.6,0-48.1-21.5-48.1-48.1H303.6"/>
	<g>
		<path class="st11" d="M339.1,332.1l-35.5-16.7l-48.1,183v9.2H291l4.5-9.2l44.3-96.1c2.3-5.1,1.9-11-1.2-15.6l-11.1-16.6l15.7-20.9
			C347.6,343.4,345.6,335.1,339.1,332.1z"/>
		<path class="st8" d="M171.9,332.1l35.5-16.7l48.1,183v9.2h-35.9l-4.2-9.2l-44.3-96.1c-2.3-5.1-1.9-11,1.2-15.6l11.1-16.6
			l-15.7-20.9C163.3,343.4,165.4,335.1,171.9,332.1z"/>
	</g>
	<path d="M183.8,490.8h-65.2v-33.1h25.1v0.5c0,4.1,3.4,7.5,7.5,7.5s7.5-3.4,7.5-7.5v-0.5h25.1L183.8,490.8L183.8,490.8z
		 M296.1,314.3l-12.9,49c-8.4,4.7-18,7.2-27.7,7.2s-19.3-2.5-27.7-7.2l-12.9-49l-10-6.2l-5,2.4l-31.2,14.7c-5.1,2.4-8.9,7-10.3,12.5
		c-0.8,3.2-0.7,6.4,0.1,9.5l-57.8,20.4c-22.2,7.8-37.1,28.9-37.1,52.4v81.3c0,4.1,3.4,7.5,7.5,7.5s7.5-3.4,7.5-7.5V420
		c0-17.2,10.9-32.6,27.1-38.3l61-21.5l7.5,10l-8.1,12.2c-4.5,6.8-5.2,15.5-1.8,22.9l17.2,37.3h-22.7v-8.5c0-4.1-3.4-7.5-7.5-7.5
		s-7.5,3.4-7.5,7.5v8.5h-32.6c-4.1,0-7.5,3.4-7.5,7.5v48.1c0,4.1,3.4,7.5,7.5,7.5h80.2c4.1,0,7.5-3.4,7.5-7.5v-18l11.1,24.2
		c1.3,2.7,4,4.4,6.8,4.4c1.1,0,2.1-0.2,3.1-0.7c3.8-1.7,5.4-6.2,3.7-10l-45.7-99.2c-1.2-2.7-1-5.9,0.6-8.3l11.1-16.6
		c1.8-2.6,1.7-6.1-0.2-8.7l-15.7-20.9c-1-1.3-0.8-2.6-0.7-3.2c0.2-0.7,0.7-1.9,2.1-2.6l27.3-12.9l16.3,62.1c1.1,4,5.2,6.4,9.2,5.3
		s6.4-5.2,5.3-9.2l-0.6-2.4c7.3,2.5,15.1,3.7,22.9,3.7s15.5-1.3,22.9-3.7l-22.9,87l-13.8-52.6c-1.1-4-5.2-6.4-9.2-5.3
		s-6.4,5.2-5.3,9.2l21.1,80.2c0.9,3.3,3.8,5.6,7.3,5.6s6.4-2.3,7.3-5.6l45.8-174.3l27.3,12.9c1.4,0.7,1.9,1.9,2.1,2.6s0.3,2-0.7,3.2
		l-15.7,20.9c-1.9,2.5-2,6-0.2,8.7l11.1,16.6c1.6,2.5,1.9,5.6,0.6,8.3l-45.8,99.2c-1.7,3.8-0.1,8.2,3.7,10c1,0.5,2.1,0.7,3.1,0.7
		c2.8,0,5.5-1.6,6.8-4.4l45.8-99.2c3.4-7.4,2.7-16.2-1.8-22.9l-8.1-12.2l7.5-10l61,21.5c16.2,5.7,27.1,21.1,27.1,38.3v81.3
		c0,4.1,3.4,7.5,7.5,7.5s7.5-3.4,7.5-7.5v-81.3c0-23.5-14.9-44.6-37.1-52.4l-57.8-20.4c0.8-3.1,0.9-6.3,0.1-9.5
		c-1.4-5.5-5.1-10.1-10.3-12.5l-31.2-14.7l-3.9-1.6L296.1,314.3z"/>
	<path d="M399.8,446.7h-12.5v-12.5c0-4.1-3.4-7.5-7.5-7.5s-7.5,3.4-7.5,7.5v12.5h-12.5c-4.1,0-7.5,3.4-7.5,7.5s3.4,7.5,7.5,7.5h12.5
		v12.5c0,4.1,3.4,7.5,7.5,7.5s7.5-3.4,7.5-7.5v-12.5h12.5c4.1,0,7.5-3.4,7.5-7.5S403.9,446.7,399.8,446.7z"/>
</g>
</svg>
