<svg id="Layer_1" data-name="Layer 1" xmlns="http://www.w3.org/2000/svg" viewBox="0 0 115.75 82.82"><defs><style>.cls-1{fill:#231f20;}</style></defs><path class="cls-1" d="M38.29,85.45l-1.36-5.93h-.49a13.66,13.66,0,0,1-5.71,5,19.12,19.12,0,0,1-8.46,1.8Q14,86.27,10,82.18T5.93,69.77V40.15h9.7V68.09q0,5.2,2.13,7.8t6.68,2.6q6.06,0,8.91-3.62T36.2,62.72V40.15h9.66v45.3Z" transform="translate(-5.93 -22.79)"/><path class="cls-1" d="M35.61,28.15a5.3,5.3,0,0,1,1.42-4,5.48,5.48,0,0,1,4-1.39A5.38,5.38,0,0,1,45,24.18a5.3,5.3,0,0,1,1.42,4A5.2,5.2,0,0,1,45,32a5.31,5.31,0,0,1-3.95,1.42A5.41,5.41,0,0,1,37,32,5.2,5.2,0,0,1,35.61,28.15Z" transform="translate(-5.93 -22.79)"/><path class="cls-1" d="M54.38,105.61a21.54,21.54,0,0,1-7.21-1V97a21.85,21.85,0,0,0,5.7.74q6.14,0,6.14-7V40.15h9.63V91.39q0,7-3.67,10.61T54.38,105.61Zm4.06-77.46a5.33,5.33,0,0,1,1.41-4,5.51,5.51,0,0,1,4-1.39,5.38,5.38,0,0,1,4,1.39,5.33,5.33,0,0,1,1.41,4A5.23,5.23,0,0,1,67.84,32a5.31,5.31,0,0,1-4,1.42,5.44,5.44,0,0,1-4-1.42A5.23,5.23,0,0,1,58.44,28.15Z" transform="translate(-5.93 -22.79)"/><path class="cls-1" d="M80.41,28.15a5.33,5.33,0,0,1,1.41-4,5.52,5.52,0,0,1,4-1.39,5.38,5.38,0,0,1,4,1.39,5.33,5.33,0,0,1,1.41,4A5.23,5.23,0,0,1,89.81,32a5.31,5.31,0,0,1-4,1.42,5.45,5.45,0,0,1-4-1.42A5.23,5.23,0,0,1,80.41,28.15Z" transform="translate(-5.93 -22.79)"/><path class="cls-1" d="M121.68,85.45H112V57.6q0-5.24-2.11-7.82c-1.4-1.72-3.64-2.58-6.69-2.58q-6.1,0-8.93,3.6c-1.89,2.41-2.83,6.43-2.83,12.09V85.45H81.83V40.15h7.53l1.35,5.94h.5a13.37,13.37,0,0,1,5.81-5,19.42,19.42,0,0,1,8.36-1.77q16.31,0,16.3,16.59Z" transform="translate(-5.93 -22.79)"/></svg>