<?xml version="1.0" encoding="utf-8"?>
<!-- Generator: Adobe Illustrator 24.2.1, SVG Export Plug-In . SVG Version: 6.00 Build 0)  -->
<svg version="1.1" xmlns="http://www.w3.org/2000/svg" xmlns:xlink="http://www.w3.org/1999/xlink" x="0px" y="0px"
	 viewBox="0 0 512 512" style="enable-background:new 0 0 512 512;" xml:space="preserve">
<style type="text/css">
	.st0{fill:#FFFFFF;}
	.st1{fill:#FEDAC6;}
	.st2{fill:#F5C4B0;}
	.st3{fill:#215280;}
	.st4{fill:#70432C;}
	.st5{fill:#5C3724;}
	.st6{fill:#1C496E;}
</style>
<g id="Layer_2">
	<rect x="-52.6" y="-38.1" class="st0" width="616.1" height="587.1"/>
</g>
<g id="Capa_1">
	<path class="st1" d="M358.4,145.1v119.5c0,11.1-2.3,22.2-6.8,32.3l0,0c-16.6,37.4-53.6,61.5-94.5,61.5l0,0
		c-37.5,0-72.1-20.4-90.4-53.2l-3.2-5.6c-6.6-11.8-10-25.1-10-38.6v-116l59.7-68.3h85.3L358.4,145.1z"/>
	<path class="st2" d="M181.6,113.1l-28,32v116c0,13.5,3.4,26.8,10,38.6l3.2,5.6c6.8,12.2,16.1,22.9,27.2,31.4
		C187.7,281.6,170.7,213.3,181.6,113.1z"/>
	<path class="st1" d="M358.4,145.1h-8.5v51.2h8.5c14.1,0,25.6-11.5,25.6-25.6S372.5,145.1,358.4,145.1z"/>
	<path class="st2" d="M128,170.7c0,14.1,11.5,25.6,25.6,25.6h8.5v-51.2h-8.5C139.5,145.1,128,156.5,128,170.7z"/>
	<path class="st1" d="M256,415.9c31,0,59.1-18.5,71.3-47l2.9-6.7l-19.6-2.3c-7.8-0.9-15-4.5-20.5-10h-68.3c-5.5,5.5-12.7,9-20.5,10
		l-19.6,2.3l2.9,6.7C196.9,397.4,224.9,415.9,256,415.9z"/>
	<path class="st3" d="M376,367.5l-45.7-5.4l-2.9,6.7c-16.9,39.4-62.6,57.6-102,40.7c-18.3-7.9-32.8-22.4-40.7-40.7l-2.9-6.7
		l-45.7,5.4c-33.9,4.5-59.2,33.5-59.2,67.7V512h358.4v-76.8C435.2,401,409.9,372.1,376,367.5z"/>
	<g>
		<path class="st4" d="M325.6,76.8H189.1c-5.5,0-10.9-1.3-15.8-3.8l0,0c-17.4-8.8-24.3-30-15.5-47.4c1.6-3.2,3.7-6.1,6.1-8.6
			l8.1-8.5l8.5,17.1h108.1c26.5,0,52.7,26,44.1,51.2H325.6z"/>
		<path class="st4" d="M332.8,76.8c17.9,5.8,29.4,23.2,27.8,41.9l-2.2,26.4l-59.7-68.3C298.7,76.8,332.8,76.8,332.8,76.8z"/>
	</g>
	<path class="st5" d="M213.3,76.8l-59.7,68.3l-2.2-26.4c-1.5-18.8,13.1-34.1,27.8-41.9C179.2,76.8,213.3,76.8,213.3,76.8z"/>
	<path class="st4" d="M324.3,258.7c-2.5,4-7.8,5.2-11.8,2.6c-1.6-1-2.8-2.5-3.4-4.2l-6.1-15.8c-2.5-6.7-9-11.1-16.1-11h-61.8
		c-7.1,0-13.4,4.4-16,11l-6.1,15.8c-1.7,4.4-6.6,6.6-11,4.9c-1.7-0.7-3.2-1.9-4.2-3.4l-34.1-56.8V261c0,13.5,3.4,26.8,10,38.6
		l3.2,5.6c27.9,49.9,90.9,67.7,140.7,39.8c19.5-10.9,35-27.9,44.1-48.4l0,0c4.4-10.1,6.7-21.1,6.7-32.2v-58.9L324.3,258.7z"/>
	<g>
		<path class="st5" d="M153.6,201.9V261c0,13.5,3.4,26.8,10,38.6l3.2,5.6c7,12.6,16.6,23.6,28.2,32.3c-6.2-27.3-9.4-55.3-9.7-83.3
			L153.6,201.9z"/>
		<path class="st5" d="M158.5,23.5c-9.9,16.8-4.3,38.5,12.5,48.4c5.4,3.2,11.6,4.9,17.9,4.9h92.8C204.8,68.3,167.4,42.7,158.5,23.5z
			"/>
	</g>
	<rect x="110.9" y="469.3" class="st1" width="34.1" height="42.7"/>
	<rect x="76.8" y="469.3" class="st2" width="34.1" height="42.7"/>
	<rect x="366.9" y="469.3" class="st1" width="68.3" height="42.7"/>
	<path class="st2" d="M290.1,349.9h-68.3c-5.5,5.5-12.7,9-20.5,10l-19.6,2.3l2.9,6.7c5.5,12.8,14.3,23.9,25.6,32.2
		c22.4-3.2,64.1-11,96.6-42.7C301.1,355.9,295.5,353.1,290.1,349.9z"/>
	<path class="st6" d="M110.9,381c-20.4,7.2-34.1,26.5-34.1,48.2v40.1h34.1C110.9,469.3,110.9,381,110.9,381z"/>
	<circle cx="204.8" cy="170.7" r="17.1"/>
	<circle cx="307.2" cy="170.7" r="17.1"/>
	<path d="M256,238.9h-8.5c-2.4,0-4.8-1.1-6.4-2.9c-1.6-1.8-2.4-4.3-2.1-6.7l8.5-68.3l16.9,2.1l-8.5,67.7L256,238.9L256,238.9z"/>
	<path d="M358.4,204.8h-8.5v-17.1h8.5c9.4,0,17.1-7.7,17.1-17.1s-7.7-17.1-17.1-17.1h-8.5v-17.1h8.5c18.8,0,34.1,15.3,34.1,34.1
		S377.2,204.8,358.4,204.8z"/>
	<path d="M162.1,204.8h-8.5c-18.8,0-34.1-15.3-34.1-34.1s15.3-34.1,34.1-34.1h8.5v17.1h-8.5c-9.4,0-17.1,7.7-17.1,17.1
		s7.7,17.1,17.1,17.1h8.5V204.8z"/>
	<path d="M257.1,366.9c-40.6,0-78.1-22.1-97.8-57.5l-3.1-5.6c-7.3-13.1-11.1-27.8-11.1-42.8V136.5h17.1V261c0,12,3.1,23.9,8.9,34.4
		l3.1,5.6c16.7,30.1,48.5,48.8,82.9,48.8c37.4-0.1,71.5-22.2,86.7-56.4c4.1-9.1,6.1-18.9,6.1-28.9v-128h17.1v128
		c0,12.4-2.5,24.4-7.6,35.8C341.4,340.7,301.3,366.9,257.1,366.9z"/>
	<path d="M256,281.6c-9.6,0-19.2-1.5-28.3-4.6l5.4-16.2c14.8,4.9,31,4.9,45.8,0l5.4,16.2C275.2,280,265.6,281.6,256,281.6z"/>
	<path d="M316.9,271.2c-2.4,0-4.8-0.5-7-1.5c-4.2-1.9-7.3-5.3-9-9.5l-6-15.7c-1.3-3.3-4.5-5.5-8-5.5h-61.8c-3.8-0.2-6.9,2.2-8.1,5.5
		l-6.1,15.8c-1.3,3.4-3.7,6.4-6.8,8.3c-3.8,2.4-8.4,3.2-12.9,2.2c-4.4-1-8.2-3.7-10.7-7.5l-34.1-53.9l14.4-9.1l34.1,53.9l6.1-15.8
		c3.8-10,13.2-16.7,24.2-16.5h61.7c10.6,0,20.2,6.6,23.9,16.5l6,15.8l34.3-53.9l14.4,9.2l-34.3,53.9c-2,3.1-4.9,5.5-8.4,6.8
		C321,270.9,318.9,271.2,316.9,271.2z"/>
	<path d="M332.8,85.3H189.1c-6.8,0-13.6-1.6-19.6-4.7c-21.6-10.9-30.2-37.3-19.3-58.8c2-3.9,4.6-7.5,7.6-10.7l8-8.5
		c1.9-2,4.7-3,7.4-2.6c2.7,0.4,5.1,2.1,6.4,4.6l6.2,12.3h102.8c17.2,0,35.1,9.4,45.5,23.9c8.7,12.1,11,25.8,6.7,38.6
		C339.7,83,336.5,85.3,332.8,85.3z M169.8,23.2c-1.8,1.9-3.3,4-4.4,6.3c-6.7,13.1-1.4,29.2,11.8,35.9c3.7,1.8,7.8,2.8,11.9,2.8
		h136.8c0.5-7.6-3.1-13.9-5.5-17.4c-7.2-10-19.9-16.7-31.6-16.7H180.6c-3.2,0-6.2-1.8-7.6-4.7L169.8,23.2z"/>
	<path d="M358.4,153.6c-2.4,0-4.8-1-6.4-2.9l-59.7-68.3l12.9-11.2l46.5,53.1l0.5-6.3c1.3-15.4-7.8-29.8-22.3-35l5.9-16
		c21.7,7.9,35.4,29.6,33.4,52.5l-2.2,26.3c-0.3,3.4-2.6,6.3-5.8,7.4C360.2,153.5,359.3,153.6,358.4,153.6z"/>
	<path d="M153.6,153.6c-0.9,0-1.8-0.1-2.7-0.4c-3.3-1.1-5.6-4-5.8-7.4l-2.2-26.4c-1.8-21.1,9.3-40.8,28.3-50.3l7.6,15.3
		c-12.7,6.3-20.1,19.4-18.8,33.5l0.5,6.4l46.5-53.1l12.8,11.2L160,150.7C158.4,152.6,156,153.6,153.6,153.6z"/>
	<path d="M85.3,512H68.3v-76.8c0-38.3,28.6-71,66.6-76.1l65.5-7.7c5.8-0.7,11.3-3.4,15.4-7.5l12.1,12c-6.8,6.9-15.9,11.3-25.5,12.4
		L137,376c-29.4,3.9-51.7,29.4-51.7,59.2V512z"/>
	<path d="M256,424.5C256,424.5,256,424.5,256,424.5c-34.6,0-65.6-20.5-79.2-52.2l-5.5-12.7l15.7-6.7l5.5,12.7
		c10.9,25.4,35.8,41.8,63.5,41.8c0,0,0.1,0,0.1,0c27.7,0,52.6-16.4,63.5-41.8l5.5-12.7l15.7,6.7l-5.5,12.7
		C321.6,404,290.5,424.5,256,424.5z"/>
	<path d="M153.6,512h-17.1v-34.1H76.8v-17.1h68.3c4.7,0,8.5,3.8,8.5,8.5V512z"/>
	<path d="M443.7,512h-17.1v-76.8c0-29.8-22.3-55.3-51.8-59.2l-65.2-7.7c-9.6-1.2-18.7-5.6-25.5-12.4l12.1-12
		c4.1,4.2,9.6,6.8,15.5,7.5l65.3,7.7c38.1,5.1,66.8,37.8,66.8,76.1L443.7,512L443.7,512z"/>
	<path d="M375.5,512h-17.1v-42.7c0-4.7,3.8-8.5,8.5-8.5h68.3v17.1h-59.7V512z"/>
</g>
</svg>
